<svg width="137" height="88" viewBox="0 0 137 88" fill="none" xmlns="http://www.w3.org/2000/svg">
<path d="M21.5717 17.94V35.548H49.9677V51.916H21.5717V71.012H53.6877V88H0.367688V0.951997H53.6877V17.94H21.5717ZM109.614 18.064C117.715 18.064 124.163 20.7093 128.958 26C133.835 31.208 136.274 38.4 136.274 47.576V88H115.194V50.428C115.194 45.7987 113.995 42.2027 111.598 39.64C109.2 37.0773 105.976 35.796 101.926 35.796C97.875 35.796 94.651 37.0773 92.2536 39.64C89.8563 42.2027 88.6576 45.7987 88.6576 50.428V88H67.4536V18.808H88.6576V27.984C90.807 24.9253 93.7003 22.528 97.3376 20.792C100.975 18.9733 105.067 18.064 109.614 18.064Z" fill="black"/>
</svg>
