<svg width="110" height="92" viewBox="0 0 110 92" fill="none" xmlns="http://www.w3.org/2000/svg">
<path d="M109.388 16.484H97.236V92H77.6441V50.336H61.648V56.164C61.648 65.0093 59.3334 71.9533 54.7041 76.996C50.1574 81.956 43.544 84.436 34.864 84.436C29.4907 84.436 24.7374 83.4027 20.604 81.336C16.4707 79.2693 13.288 76.3347 11.056 72.532C8.82405 68.7293 7.70805 64.3067 7.70805 59.264C7.70805 51.1627 10.312 45.004 15.52 40.788C20.8107 36.572 27.5067 34.464 35.608 34.464H43.5441V16.484H0.640047V0.239999H109.388V16.484ZM77.6441 16.484H61.648V34.464H77.6441V16.484ZM43.5441 50.336H36.104C33.0454 50.336 30.5654 51.1213 28.664 52.692C26.7627 54.2627 25.812 56.4533 25.812 59.264C25.812 61.992 26.5974 64.1413 28.168 65.712C29.8214 67.2 31.9294 67.944 34.492 67.944C37.3854 67.944 39.6174 66.9933 41.188 65.092C42.7587 63.108 43.5441 60.4627 43.5441 57.156V50.336Z" fill="black"/>
</svg>
