<svg xmlns="http://www.w3.org/2000/svg" width="52" height="52" viewBox="0 0 52 52">
  <g id="School_svg" data-name="School svg" transform="translate(12062 16487)">
    <circle id="Ellipse_411" data-name="Ellipse 411" cx="26" cy="26" r="26" transform="translate(-12062 -16487)" fill="#d3dadf"/>
    <g id="school_2_" data-name="school (2)" transform="translate(-12054.803 -16478)">
      <path id="Path_19479" data-name="Path 19479" d="M9.117,16.129H2.378l4.586-3.236h5.212Zm18.706,0h6.738l-4.586-3.236H24.763ZM14.847,33.57h2.93V23.926h-2.93Zm4.012,0h2.929V23.926H18.859ZM35.137,17.212V33.57H22.872V22.843H13.764V33.57H1.8V17.212h7.78l4.443-4.7,3.9-4.127V0h7.02l-.279.182L21.535,2.222l3.134,2.041.279.182H19.011V8.386l3.9,4.127,4.443,4.7h7.78ZM6.988,28.2H3.9v3.086H6.988Zm0-4.815H3.9v3.086H6.988ZM11.927,28.2H8.84v3.086h3.086Zm0-4.815H8.84v3.086h3.086ZM21,17.582a2.531,2.531,0,1,0-2.531,2.531A2.531,2.531,0,0,0,21,17.582ZM28.1,28.2H25.013v3.086H28.1Zm0-4.815H25.013v3.086H28.1ZM33.038,28.2H29.952v3.086h3.086Zm0-4.815H29.952v3.086h3.086Z" transform="translate(0)" fill="#8ca8bd"/>
    </g>
  </g>
</svg>
