<svg xmlns="http://www.w3.org/2000/svg" width="173.344" height="38.469" viewBox="0 0 173.344 38.469">
  <g id="Shikshan_Darpan_Logo" data-name="Shikshan Darpan Logo" transform="translate(-3932 -14978)">
    <g id="_1573903957488" transform="translate(3932 14978)">
      <g id="Group_16818" data-name="Group 16818" transform="translate(51.816 0)">
        <path id="Path_19399" data-name="Path 19399" d="M12586.726,14990.729l3.93.015a57.741,57.741,0,0,1,.07,6.021c-.253,1.416-2.189,2.1-4.07,1.881Zm-8.646,0a29.193,29.193,0,0,1,.1,4.59,2.884,2.884,0,0,1-2.035,2.639c-2.245.617-1.67-.94-1.67-2.652,0-1.474-.07-3.116.028-4.576Zm-23-.1,9.853.041a4.205,4.205,0,0,1-.07,2.5c-1.8.154-5.726-.295-7.13.225-.561.828-2.455,2.063-2.792,4.337-.31,2.063,1.444,3.747,2.385,4.813,2.316,2.6,4.871,4.87,10.035,3.354.843.688,1.544,1.8,2.639,2.232-.351-1.264-1.375-1.909-1.853-2.836.674-.688,1.671-2.189,1.039-3.648a21.025,21.025,0,0,0-2.4-2.976c-1.319-1.18-2.175-1.277-3.48,0-1.348,1.319.436,2.288.772,3.5-2.218.448-3.649.688-5.755-.239-.112-1.937,1.923-4.309,2.723-4.759.716-.405,6.077-.336,7.2.113l.042-6.555h2.723c.8,3.973-1.951,4.449,3.213,9.208a13.308,13.308,0,0,0,1.84,1.333c.7.393,1.923.477,2.344.813.336.28.9,1.263,1.39,1.755.533.532.9,1.206,1.7,1.459l.07-14.512,1.657-.057c.547,3.817-.871,5.066,1.08,7.509,1.01,1.263,2.877,3.565,4.631,4.07,2.625.771,5.277-.281,5.221-2.919a68.293,68.293,0,0,1,.028-8.646l2.273-.028c.352,1.769.1,7.1.1,9.222,0,3.536-.085,2.568,1.922,5.107a3.072,3.072,0,0,0,1.432,1.081l.027-15.354,5.419-.057c-.3-1.122-1.741-2.863-2.3-3.774-4.183-.394-21.965.532-23.959-.212-1.01-3.718,5.713-2.624,7.565-3.677.309-1.782-1.137-2.975-2.2-4.112a2.647,2.647,0,0,0-1.277-.94c.337,1.517.6,1.685-2.624,1.825-1.418.056-3,.168-3.93.982-2.625,2.288.337,4.463,1.4,6.063l-25.024.014C12553.239,14987.895,12554.418,14990.267,12555.077,14990.631Z" transform="translate(-12483.823 -14977.999)" fill="#00756b" fill-rule="evenodd"/>
        <path id="Path_19400" data-name="Path 19400" d="M9758.578,15587.358a3.331,3.331,0,0,1,1.923-2.82c-.576,1.249-.323,1.193.1,2.231A2.445,2.445,0,0,1,9758.578,15587.358Zm18.792-10.259,3.733.015c.2,5.445.94,8.5-3.747,8.182Zm-18.146,2.793a4.051,4.051,0,0,1,2.6-3.341A3.045,3.045,0,0,1,9759.224,15579.893Zm-1.122.449a4.2,4.2,0,0,0-2.835,2.877c-.8,2.905,2.035,5.685,4.126,7.06a3.967,3.967,0,0,0,4.435.436c1.123.9,2.667,3.3,4,3.761-.141-.968-2.652-3.677-3.241-4.364.659-1.811,1.206-1.825-.226-3.509a9.682,9.682,0,0,0-2.778-2.568c1.024-.211,1.5-.618,2.245-.786,1.558,1.487,2.077,3.172,5.025,3.509.055,1.824.111,1.895,1.095,2.989.757.827,1.164,1.614,2.286,2.077l.015-14.652,1.727-.042c.042,1.431.014,2.863.014,4.267,0,1.979-.266,2.3.7,3.606,1.052,1.39,2.723,3.326,4.785,3.943,2.414.73,5.123.028,5.039-3.1-.084-2.78-.084-5.881,0-8.66l2.962-.1c.083,3.326.014,6.736.014,10.063,0,2.119-.352,2.736.744,4.169.393.519,1.74,2.315,2.623,2.483l.015-16.7h3.649a8.614,8.614,0,0,0-1.291-3.018c-.7-1.207-1.7-.813-3.411-.813-8.435.014-17.978-.2-26.16.014a12.05,12.05,0,0,0,1.8,3.8l3.4.028c.139,3.34.688,6.357-4.365,5.585.253-1.011.856-1.571.729-2.933-.224-2.4-3.129-5.8-4.646-6.821-2.119-1.432-6.189,2.105-4.183,5.109C9756.979,15578.938,9757.877,15579.822,9758.1,15580.342Z" transform="translate(-9725.218 -15564.271)" fill="#00756b" fill-rule="evenodd"/>
        <path id="Path_19401" data-name="Path 19401" d="M7631.031,15047.148c-.435-.855-.771-.758-.21-2.062.955-2.219,4.407-2.357,6.484-1.98,1.867.338,6.386,3.131,7.312,4.084Zm-1.165-.016-5.866.07a12.683,12.683,0,0,0,1.151,2.863c.8,1.434,1.361.83,3.256,1,.112,2.963.028,6.092.014,9.066,0,2.205-.183,2.33,1,3.678a8.557,8.557,0,0,0,2.315,2.217l.042-14.988h8.7l.071,1.4-6.638.027a12.6,12.6,0,0,0,2.666,3.439c1.011.729,4.449.35,5.979.363.183,2.316-2.541,4.324-4.631,4.66-.9-.953-3.551-5.572-5.067-3.76-.8,2.582,3.144,6.244,4.533,7.213.828.576,1.5.436,2.105.871a12.232,12.232,0,0,1,1.417,1.543c.9,1.023,2.007,1.938,3.116,3,6.849,6.5,11.719,1.375,10.119-1.209a11.347,11.347,0,0,0-2.961-2.988c-.253,1.629-.435,2.287-1.572,2.9a5.729,5.729,0,0,1-3.972.422c-1.712-.379-4.617-3.229-5.094-3.971,1.375-.619,5.375-1.432,5.473-5.207a6.207,6.207,0,0,0-1.361-3.957c-.533-.73-.786-.76-.8-1.951,0-.928,0-1.867.028-2.795l4.9-.014c.056,2.863.028,5.754,0,8.547-.014,2.205.547,2.682,2.1,4.281a2.634,2.634,0,0,0,1.291.941v-13.783l1.277-.014a13.218,13.218,0,0,0-1.558-2.441c-.982-1.391-.632-1.348-2.723-1.391,1.4-3.369-3.13-7.045-3.761-7.215.154.844,1.488,2.768.2,3.566-2.836,1.74-6.948-2.863-10.162-3.943-5.853-1.951-9.824,1.867-7.8,4.842A26.866,26.866,0,0,0,7629.866,15047.133Z" transform="translate(-7624 -15038.195)" fill="#00756b" fill-rule="evenodd"/>
      </g>
      <g id="Group_16819" data-name="Group 16819" transform="translate(0 0.772)">
        <path id="Path_19402" data-name="Path 19402" d="M4512.325,15042.444c2.821-.645,3.565,3.691,1.011,4.295A2.207,2.207,0,1,1,4512.325,15042.444Zm6.484-9.444h.042a17.748,17.748,0,0,1,17.838,18.891c-1.811.6-3.775.954-5.628,1.7a37.078,37.078,0,0,0-4.912,2.343c-2.736,1.628-5.839,4.323-7.186,7.327-.379-.379-1.066-1.642-1.516-2.231-2.709-3.636-6.555-5.867-10.793-7.481-.814-.294-5.249-1.558-5.474-1.712a10.752,10.752,0,0,1,.141-4.126,17.843,17.843,0,0,1,8.5-12.28c.491-.295,1-.506,1.488-.744A16.162,16.162,0,0,1,4518.81,15033Zm6.4,9.417c2.849-.337,3.383,3.986.576,4.364A2.2,2.2,0,1,1,4525.209,15042.417Zm-6.75,16.1a24.043,24.043,0,0,0-7.832-8.939c-.365-.267-3.018-2.05-3.284-2.12.688.028,2.582.716,3.72.843,3.129.364,4.6-1.418,5.754-3.93.478-1.024.856-2.779,1.319-3.579.028,1.348-.183,2.961-.225,4.364a83.394,83.394,0,0,0,.183,9.179C4518.164,15055.217,4518.557,15057.953,4518.458,15058.515Zm1.628-17.838c.6.856,1.319,5.038,3.214,6.554,2.653,2.119,4.688.674,7.635.168-.449.506-2.583,1.657-3.312,2.2-6.919,5.193-6.765,7.748-7.958,9.095.253-5.459.856-7.383.646-13.571C4520.269,15043.736,4520.03,15041.981,4520.086,15040.677Zm-2.091-1.391Zm0,0c.057-2.034,1.151-.673-.968-2.511h1.67l.435-1.39c.533.393.1.294.688,1.39h1.529a3.644,3.644,0,0,1-1.263.968c.126.52.295,1,.421,1.543a3.265,3.265,0,0,1-1.249-.841A13.077,13.077,0,0,1,4518,15039.286Z" transform="translate(-4493.042 -15033)" fill="#f4a63a" fill-rule="evenodd"/>
        <path id="Path_19403" data-name="Path 19403" d="M4106.353,16306.037c-1.811.6-3.775.955-5.628,1.7a37.081,37.081,0,0,0-4.912,2.344c-2.737,1.629-5.838,4.322-7.186,7.326-.379-.379-1.067-1.643-1.516-2.232-2.708-3.633-6.554-5.865-10.792-7.479-.814-.295-5.249-1.559-5.474-1.713-.477-.014-5.361-1.08-6.049-.941-.407.086-.154.029-.14,1.209a42.511,42.511,0,0,0,.7,4.6c2.681-.055,3.214-.588,7.214-.1a29.326,29.326,0,0,1,14.891,6.162c1.754,1.389.477.8,5.53-2.273a28.749,28.749,0,0,1,8.168-3.256,29.12,29.12,0,0,1,10.625-.535,30.809,30.809,0,0,0,.842-5.852c-.969.027-2.246.295-3.2.42C4108.29,16305.576,4107.462,16305.828,4106.353,16306.037Z" transform="translate(-4062.706 -16287.147)" fill="#32baae" fill-rule="evenodd"/>
        <path id="Path_19404" data-name="Path 19404" d="M3932,16812.281c.07.785,1.67,5.01,2.091,5.01.828,0,4.183-1.389,9.347-1.389a40.4,40.4,0,0,1,12.6,2.033,15.331,15.331,0,0,1,1.474.479c-.154-.6-.926-.885-1.7-1.375a29.156,29.156,0,0,0-6.161-3.031c-5.277-1.785-7.214-2.008-13.052-2.008C3934.877,16812,3933.572,16812.281,3932,16812.281Z" transform="translate(-3932 -16787.033)" fill="#029185" fill-rule="evenodd"/>
        <path id="Path_19405" data-name="Path 19405" d="M5800,16818.273c1.586,0,9.165-3.662,19.228-1.937.659.113,1.389.254,2.077.422a14.45,14.45,0,0,0,2.119.533,22.542,22.542,0,0,0,1.951-5.01c-1.348,0-2.415-.281-3.9-.281-5.024,0-8.94.127-13.529,1.951C5806.063,16814.7,5800.94,16816.982,5800,16818.273Z" transform="translate(-5773.783 -16787.033)" fill="#029185" fill-rule="evenodd"/>
        <path id="Path_19406" data-name="Path 19406" d="M5840.27,15586.723c-2.947.506-4.982,1.951-7.635-.168-1.895-1.516-2.61-5.7-3.214-6.555-.056,1.3.183,3.061.225,4.449.21,6.189-.393,8.111-.646,13.572,1.192-1.348,1.038-3.9,7.957-9.1C5837.688,15588.379,5839.82,15587.229,5840.27,15586.723Z" transform="translate(-5802.376 -15572.323)" fill="#fefefe" fill-rule="evenodd"/>
        <path id="Path_19407" data-name="Path 19407" d="M4962.115,15605.725c.1-.561-.295-3.3-.364-4.182a83.153,83.153,0,0,1-.183-9.179c.042-1.4.252-3.017.225-4.364-.463.8-.842,2.555-1.319,3.579-1.151,2.512-2.625,4.294-5.755,3.93-1.137-.127-3.031-.814-3.719-.843.267.07,2.919,1.854,3.284,2.12A24.046,24.046,0,0,1,4962.115,15605.725Z" transform="translate(-4936.699 -15580.211)" fill="#fefefe" fill-rule="evenodd"/>
        <path id="Path_19408" data-name="Path 19408" d="M6085.289,15702.686a2.2,2.2,0,1,0,.576,4.365C6088.671,15706.672,6088.138,15702.348,6085.289,15702.686Z" transform="translate(-6053.121 -15693.269)" fill="#fefefe" fill-rule="evenodd"/>
        <path id="Path_19409" data-name="Path 19409" d="M5180.815,15701.41a2.206,2.206,0,1,0,1.011,4.293C5184.38,15705.1,5183.636,15700.764,5180.815,15701.41Z" transform="translate(-5161.531 -15691.965)" fill="#fefefe" fill-rule="evenodd"/>
      </g>
      <path id="Path_19410" data-name="Path 19410" d="M10141,17183.609v-.674h.729a1.278,1.278,0,0,1-.224-.631,1.221,1.221,0,0,1,.449-.926,1.687,1.687,0,0,1,1.107-.379,2.525,2.525,0,0,1,1.53.506,2.758,2.758,0,0,1,1,1.346h-.7a1.894,1.894,0,0,0-.744-.842,1.852,1.852,0,0,0-1.082-.322.886.886,0,0,0-.574.182.521.521,0,0,0-.238.436.939.939,0,0,0,.055.322,1.659,1.659,0,0,0,.169.309h.729v.674h-.744v3.93h-.729v-3.93Zm2.021,0v-.674h5.811v.674h-.73v3.93h-.744v-2.428h-.912a1.2,1.2,0,0,1,.183.617,1.078,1.078,0,0,1-.364.828,1.245,1.245,0,0,1-.885.338,1.725,1.725,0,0,1-1.319-.674,3.461,3.461,0,0,1-.772-1.7l.633-.209a3.216,3.216,0,0,0,.547,1.361,1.18,1.18,0,0,0,.912.533.513.513,0,0,0,.365-.154.43.43,0,0,0,.154-.338,1.187,1.187,0,0,0-.184-.549,5.717,5.717,0,0,0-.547-.742h2.189v-.814Zm5.627,0v-.674h3.762v.674Zm1.979,3.93a3.375,3.375,0,0,1-1.179-.9,1.78,1.78,0,0,1-.436-1.082,1.191,1.191,0,0,1,.422-.912,1.369,1.369,0,0,1,.982-.379,1.21,1.21,0,0,1,.547.127.979.979,0,0,1,.449.336,1.053,1.053,0,0,1,.477-.336,1.476,1.476,0,0,1,.618-.127v.674a.9.9,0,0,0-.6.322,2.645,2.645,0,0,0-.491.844l-.59-.324a1.671,1.671,0,0,1,.295-.59.521.521,0,0,0-.295-.168,1.15,1.15,0,0,0-.406-.07.682.682,0,0,0-.478.182.536.536,0,0,0-.183.422,1.2,1.2,0,0,0,.336.8,2.366,2.366,0,0,0,.912.59Zm1.6-3.93v-.674h4.084v.674h-.575v1h-1.838a.532.532,0,0,0-.268.072c-.07.041-.111.084-.111.139a.453.453,0,0,0,.111.24,2.459,2.459,0,0,0,.324.309,1.439,1.439,0,0,1,.617-.127,1.476,1.476,0,0,1,.939.322.991.991,0,0,1,.379.785.808.808,0,0,1-.126.422,1.232,1.232,0,0,1-.365.393l-.491-.393a.819.819,0,0,0,.183-.211.525.525,0,0,0,.07-.211.329.329,0,0,0-.169-.293.708.708,0,0,0-.42-.127,1.262,1.262,0,0,0-.744.225.7.7,0,0,0-.323.563.979.979,0,0,0,.464.813,1.823,1.823,0,0,0,1.108.336h.827v.689h-.855a2.476,2.476,0,0,1-1.6-.533,1.637,1.637,0,0,1-.674-1.3,1.14,1.14,0,0,1,.141-.562,1.278,1.278,0,0,1,.393-.436,1.805,1.805,0,0,1-.393-.42,1.09,1.09,0,0,1-.141-.492.753.753,0,0,1,.337-.617,1.239,1.239,0,0,1,.813-.268h1.066v-.309Zm3.9,0v-.674h2.2v.674h-.73v3.93h-.729v-3.93Zm3.859,0v-.674h4.183v.674h-.729v3.93h-.744V17186a1.082,1.082,0,0,1-.364.238,1.284,1.284,0,0,1-.464.084,1.5,1.5,0,0,1-1.01-.35,1.069,1.069,0,0,1-.406-.857v-1.5Zm1.881,2.021a1,1,0,0,0,.436-.111,1.23,1.23,0,0,0,.393-.324v-1.586h-1.516v1.5a.459.459,0,0,0,.2.365A.821.821,0,0,0,10161.869,17185.631Zm2.119-2.021v-.674h.744a1.271,1.271,0,0,1-.225-.631,1.177,1.177,0,0,1,.449-.926,1.69,1.69,0,0,1,1.108-.379,2.488,2.488,0,0,1,1.517.506,2.776,2.776,0,0,1,1.01,1.346h-.715a2.007,2.007,0,0,0-1.812-1.164.928.928,0,0,0-.589.182.557.557,0,0,0-.238.436,1.35,1.35,0,0,0,.057.322,1.129,1.129,0,0,0,.182.309h.716v.674h-.73v3.93h-.729v-3.93Zm2.021,0v-.674h3.411v.674h-.59v.814a1.067,1.067,0,0,1-.31.785,1,1,0,0,1-.743.324l1.306,1.754-.576.393-2.287-3.129.617-.393a1.417,1.417,0,0,0,.379.5.708.708,0,0,0,.449.2.414.414,0,0,0,.309-.127.4.4,0,0,0,.112-.309v-.814Zm3.229,0v-.674h4.027v.674h-.73v3.93h-.742v-1.375a.522.522,0,0,1-.281.154,2.108,2.108,0,0,1-.449.057,1.455,1.455,0,0,1-.969-.352,1.04,1.04,0,0,1-.393-.828v-1.586Zm1.824,2.064a1.207,1.207,0,0,0,.337-.029.668.668,0,0,0,.225-.111l-1.193-1.348v1.01a.413.413,0,0,0,.183.338A.692.692,0,0,0,10171.063,17185.674Zm.73-.689v-1.375h-1.18Zm1.291-1.375v-.674h4.1v.674h-.687v1.4h-1.613a.752.752,0,0,0-.492.168.522.522,0,0,0-.211.422.918.918,0,0,0,.407.771,1.454,1.454,0,0,0,.982.322.517.517,0,0,1-.056-.295.506.506,0,0,1,.182-.406.562.562,0,0,1,.436-.184.6.6,0,0,1,.435.2.749.749,0,0,1,.183.477.76.76,0,0,1-.1.338,1.264,1.264,0,0,1-.281.336l.492.885-.66.309-.436-.98a2.518,2.518,0,0,1-1.641-.521,1.53,1.53,0,0,1-.688-1.248,1.158,1.158,0,0,1,.435-.912,1.454,1.454,0,0,1,1.012-.379h.883v-.7Zm5.67,0v-.674h4.771v.674h-.856a1.134,1.134,0,0,1,.153.576,1.118,1.118,0,0,1-.111.506.666.666,0,0,1-.294.322,1.053,1.053,0,0,1,.448.449,1.3,1.3,0,0,1,.169.646,1.421,1.421,0,0,1-.407,1.01,1.276,1.276,0,0,1-.955.42,2.137,2.137,0,0,1-1.6-.8,4.427,4.427,0,0,1-1.066-2.035l.66-.254a4.735,4.735,0,0,0,.855,1.727,1.556,1.556,0,0,0,1.15.674.57.57,0,0,0,.436-.209.8.8,0,0,0,.182-.533.7.7,0,0,0-.209-.52.627.627,0,0,0-.492-.225h-.758v-.687h.674a.612.612,0,0,0,.408-.156.4.4,0,0,0,.168-.336.706.706,0,0,0-.07-.254,1.552,1.552,0,0,0-.226-.322Zm4.589,0v-.674h3.677v.674h-1.178v1.082a1.062,1.062,0,0,1-.212.66.678.678,0,0,1-.519.266l1.263,1.627-.589.379-2.246-2.961.645-.477a3.282,3.282,0,0,0,.352.563c.1.125.2.2.268.2a.25.25,0,0,0,.21-.1.309.309,0,0,0,.1-.24v-1Zm2.919,1.84-.42-.687h1.262v.688Zm.561-1.84v-.674h4.436v.674h-.743v3.93h-.729v-1.838h-1.418v.449a.193.193,0,0,1-.07.141.218.218,0,0,1-.141.055c-.111,0-.336-.154-.631-.449-.309-.279-.463-.49-.463-.6a.465.465,0,0,1,.055-.211.181.181,0,0,1,.155-.07h.351v-1.4Zm1.545,1.4h1.418v-1.4h-1.418Zm2.709-1.4v-.674h2.2v.674h-.73v3.93h-.743v-3.93Zm2.021,0v-.674h4.49v.674h-.744v3.93h-.729v-2.344h-1.221a.177.177,0,0,0-.141.057.2.2,0,0,0-.07.154v.449a.329.329,0,0,1-.071.225.2.2,0,0,1-.167.07c-.183,0-.407-.168-.687-.506a1.434,1.434,0,0,1-.407-.828.317.317,0,0,1,.112-.225.3.3,0,0,1,.226-.1h2.427v-.885Zm4.308,0v-.674h2.2v.674h-.73v3.93h-.743v-3.93Zm2.021,0v-.674h4.183v.674h-.744v3.93h-.73v-.855a2.034,2.034,0,0,1-.842.2,1.472,1.472,0,0,1-1.053-.408,1.353,1.353,0,0,1-.449-1.01,1.283,1.283,0,0,1,.463-1.012,1.576,1.576,0,0,1,1.123-.434,1.4,1.4,0,0,1,.66.141l-.238.631a1.23,1.23,0,0,0-.422-.07.747.747,0,0,0-.406.113l1.164.967v-2.189Zm1.866,2.582a.867.867,0,0,0,.281-.041.468.468,0,0,0,.225-.1l-1.123-.914a.226.226,0,0,0-.07.141.614.614,0,0,0-.028.184.729.729,0,0,0,.21.52A.687.687,0,0,0,10201.293,17186.191Zm2.133-2.582v-.674h2.2v.674h-.729v3.93h-.744v-3.93Zm2.021,0v-.674h4.1v.674h-.687v1.4h-1.613a.752.752,0,0,0-.492.168.523.523,0,0,0-.21.422.916.916,0,0,0,.407.771,1.456,1.456,0,0,0,.982.322.516.516,0,0,1-.057-.295.505.505,0,0,1,.184-.406.558.558,0,0,1,.435-.184.594.594,0,0,1,.435.2.749.749,0,0,1,.183.477.762.762,0,0,1-.1.338,1.26,1.26,0,0,1-.28.336l.491.885-.659.309-.436-.98a2.527,2.527,0,0,1-1.643-.521,1.534,1.534,0,0,1-.687-1.248,1.159,1.159,0,0,1,.436-.912,1.453,1.453,0,0,1,1.011-.379h.884v-.7Z" transform="translate(-10053.858 -17150.082)" fill="#2b2a29"/>
    </g>
  </g>
</svg>
