<svg width="61" height="47" viewBox="0 0 61 47" fill="none" xmlns="http://www.w3.org/2000/svg">
<path d="M29.6491 38.3785C28.6899 31.8624 26.6116 25.7793 23.5971 20.6646C23.6081 20.6066 23.6234 20.5504 23.6426 20.4969C24.6751 17.0478 25.528 11.2006 26.0442 4.03715C26.0394 3.98031 26.0394 3.92285 26.0442 3.86601L34.1425 3.78102C34.1425 3.80055 34.2311 5.8059 34.5783 8.89663C35.0238 12.8901 35.6987 16.8258 36.5961 20.6646C35.5841 22.574 34.655 24.5685 33.8141 26.637C32.5263 29.7702 30.9165 34.3403 30.5621 38.3246V20.699C30.8145 20.5505 31.0227 20.2829 31.1513 19.942C31.2798 19.601 31.3208 19.2076 31.2671 18.8287C31.2135 18.4499 31.0686 18.109 30.8572 17.8641C30.6457 17.6191 30.3807 17.4853 30.1072 17.4853C29.8337 17.4853 29.5687 17.6191 29.3572 17.8641C29.1457 18.109 29.0009 18.4499 28.9472 18.8287C28.8936 19.2076 28.9346 19.601 29.0631 19.942C29.1917 20.2829 29.3999 20.5505 29.6523 20.699V38.3785H29.6491Z" fill="white"/>
<path d="M34.4726 0H25.7361V2.9575H34.4726V0Z" fill="white"/>
<path d="M0.110321 38.1789L3.14795 41.0261C3.14795 41.0261 16.8485 34.0879 27.5443 45.4722C27.4947 45.4045 28.7721 48.0941 31.772 46.4873C31.7468 46.4517 32.3945 46.0278 32.4961 45.3926C32.5091 45.3926 36.5057 40.9248 40.8699 39.937C45.234 38.9493 48.6752 38.0191 56.9052 40.9857C56.8499 40.8709 59.4307 38.2993 60.1103 38.2602C55.4015 35.7671 50.3318 34.9439 45.3453 35.8622C40.3589 36.7805 35.6083 39.4127 31.5093 43.5279C31.0716 44.0543 30.6154 44.5483 30.1421 45.009C30.1421 45.009 18.6251 30.8352 2.93994 37.0017C2.9497 36.9351 0.110321 38.1789 0.110321 38.1789Z" fill="white"/>
<path d="M30.1098 43.8929C30.1098 43.8929 38.9578 29.4015 56.1511 33.8325C56.9021 32.6021 57.8284 31.6094 58.8696 30.9197C58.8696 30.9013 45.4553 26.5876 35.0489 37.3242C33.4455 39.0017 31.9625 40.8981 30.6219 42.9856C30.6397 43.0005 30.1098 43.8929 30.1098 43.8929Z" fill="white"/>
<path d="M57.5273 23.9851C56.6319 24.6692 55.8492 25.6121 55.2288 26.7521C55.2288 26.7923 43.2033 25.1635 34.3822 35.7105C34.3619 35.7415 31.1748 39.2885 30.322 41.6327C30.3439 41.6327 33.6558 32.8463 42.5987 26.9922C51.5417 21.138 57.5273 23.9851 57.5273 23.9851Z" fill="white"/>
<path d="M30.0976 43.8929C30.0976 43.8929 21.2487 29.4015 4.05538 33.8325C3.30511 32.602 2.37856 31.6093 1.33771 30.9197C1.33771 30.9013 14.7528 26.5876 25.1592 37.3242C26.763 39.001 28.2452 40.8975 29.5855 42.9856C29.5668 43.0005 30.0976 43.8929 30.0976 43.8929Z" fill="white"/>
<path d="M2.6808 23.9851C3.57586 24.6698 4.35925 25.6126 4.98007 26.7521C4.98007 26.7923 17.004 25.1635 25.8251 35.7105C25.847 35.7415 29.034 39.2885 29.8901 41.6327C29.8681 41.6327 26.5522 32.8463 17.6133 26.9922C8.67439 21.138 2.6808 23.9851 2.6808 23.9851Z" fill="white"/>
</svg>
