<svg xmlns="http://www.w3.org/2000/svg" width="99" height="65.642" viewBox="0 0 99 65.642">
  <g id="Group_16996" data-name="Group 16996" transform="translate(-1123 -200.299)">
    <g id="Group_16871" data-name="Group 16871" transform="translate(1137.882 200.299)">
      <path id="Subtraction_45" data-name="Subtraction 45" d="M7.444,30.123A35.353,35.353,0,0,0,0,14.7H0a.751.751,0,0,1,.056-.146C1.326,11.551,2.375,6.46,3.01.223a.621.621,0,0,1,0-.149L12.971,0c0,.017.109,1.763.536,4.454A64.877,64.877,0,0,0,15.989,14.7a51.326,51.326,0,0,0-3.422,5.2c-1.584,2.728-3.564,6.707-4,10.176V14.73a1.455,1.455,0,1,0-1.119,0V30.123Z" transform="translate(28.889 3.292)" fill="#fff"/>
      <rect id="Rectangle_18370" data-name="Rectangle 18370" width="10.746" height="2.575" transform="translate(31.52 0)" fill="#fff"/>
      <path id="Path_19982" data-name="Path 19982" d="M13866.418,6555.083l3.736,2.479s16.852-6.041,30.008,3.871c-.061-.059,1.51,2.283,5.2.884-.031-.031.766-.4.891-.953.016,0,4.932-3.89,10.3-4.75s9.6-1.67,19.723.913c-.068-.1,3.107-2.339,3.943-2.373a37.819,37.819,0,0,0-35.18,4.586,20.777,20.777,0,0,1-1.682,1.29s-14.166-12.341-33.459-6.972C13869.91,6554,13866.418,6555.083,13866.418,6555.083Z" transform="translate(-13866.418 -6521.842)" fill="#fff"/>
      <path id="Path_19983" data-name="Path 19983" d="M14196.057,6522.761s10.883-12.617,32.031-8.759a10.048,10.048,0,0,1,3.344-2.536c0-.016-16.5-3.772-29.3,5.576a37.436,37.436,0,0,0-5.445,4.929C14196.709,6521.984,14196.057,6522.761,14196.057,6522.761Z" transform="translate(-14159.157 -6484.545)" fill="#fff"/>
      <path id="Path_19984" data-name="Path 19984" d="M14231.852,6458.775a8.919,8.919,0,0,0-2.828,2.409c0,.035-14.791-1.383-25.641,7.8-.025.027-3.945,3.115-4.994,5.156.027,0,4.1-7.65,15.1-12.747S14231.852,6458.775,14231.852,6458.775Z" transform="translate(-14161.228 -6437.892)" fill="#fff"/>
      <path id="Path_19985" data-name="Path 19985" d="M14231.432,6522.761s-10.885-12.617-32.033-8.759a10.033,10.033,0,0,0-3.342-2.536c0-.016,16.5-3.772,29.3,5.576a37.328,37.328,0,0,1,5.445,4.929C14230.779,6521.984,14231.432,6522.761,14231.432,6522.761Z" transform="translate(-14194.547 -6484.545)" fill="#fff"/>
      <path id="Path_19980" data-name="Path 19980" d="M14198.389,6458.775a8.941,8.941,0,0,1,2.828,2.409c0,.035,14.789-1.383,25.639,7.8.027.027,3.947,3.115,5,5.156-.027,0-4.105-7.65-15.1-12.747S14198.389,6458.775,14198.389,6458.775Z" transform="translate(-14195.227 -6437.892)" fill="#fff"/>
    </g>
    <text id="ZP_SATARA" data-name="ZP SATARA" transform="translate(1123 258.941)" fill="#fff" font-size="20" font-family="Poppins-Bold, Poppins" font-weight="700"><tspan x="0" y="0">ZP Satara</tspan></text>
  </g>
</svg>
