<svg width="103" height="69" viewBox="0 0 103 69" fill="none" xmlns="http://www.w3.org/2000/svg">
<path d="M7.21008 60.2H13.2501V63H3.33008V60.4L9.33008 51.76H3.33008V48.96H13.2501V51.56L7.21008 60.2ZM26.1841 53.48C26.1841 54.2933 25.9975 55.04 25.6241 55.72C25.2508 56.3867 24.6775 56.9267 23.9041 57.34C23.1308 57.7533 22.1708 57.96 21.0241 57.96H18.9041V63H15.4841V48.96H21.0241C22.1441 48.96 23.0908 49.1533 23.8641 49.54C24.6375 49.9267 25.2175 50.46 25.6041 51.14C25.9908 51.82 26.1841 52.6 26.1841 53.48ZM20.7641 55.24C21.4175 55.24 21.9041 55.0867 22.2241 54.78C22.5441 54.4733 22.7041 54.04 22.7041 53.48C22.7041 52.92 22.5441 52.4867 22.2241 52.18C21.9041 51.8733 21.4175 51.72 20.7641 51.72H18.9041V55.24H20.7641ZM37.2829 63.14C36.2562 63.14 35.3362 62.9733 34.5229 62.64C33.7096 62.3067 33.0562 61.8133 32.5629 61.16C32.0829 60.5067 31.8296 59.72 31.8029 58.8H35.4429C35.4962 59.32 35.6762 59.72 35.9829 60C36.2896 60.2667 36.6896 60.4 37.1829 60.4C37.6896 60.4 38.0896 60.2867 38.3829 60.06C38.6762 59.82 38.8229 59.4933 38.8229 59.08C38.8229 58.7333 38.7029 58.4467 38.4629 58.22C38.2362 57.9933 37.9496 57.8067 37.6029 57.66C37.2696 57.5133 36.7896 57.3467 36.1629 57.16C35.2562 56.88 34.5162 56.6 33.9429 56.32C33.3696 56.04 32.8762 55.6267 32.4629 55.08C32.0496 54.5333 31.8429 53.82 31.8429 52.94C31.8429 51.6333 32.3162 50.6133 33.2629 49.88C34.2096 49.1333 35.4429 48.76 36.9629 48.76C38.5096 48.76 39.7562 49.1333 40.7029 49.88C41.6496 50.6133 42.1562 51.64 42.2229 52.96H38.5229C38.4962 52.5067 38.3296 52.1533 38.0229 51.9C37.7162 51.6333 37.3229 51.5 36.8429 51.5C36.4296 51.5 36.0962 51.6133 35.8429 51.84C35.5896 52.0533 35.4629 52.3667 35.4629 52.78C35.4629 53.2333 35.6762 53.5867 36.1029 53.84C36.5296 54.0933 37.1962 54.3667 38.1029 54.66C39.0096 54.9667 39.7429 55.26 40.3029 55.54C40.8762 55.82 41.3696 56.2267 41.7829 56.76C42.1962 57.2933 42.4029 57.98 42.4029 58.82C42.4029 59.62 42.1962 60.3467 41.7829 61C41.3829 61.6533 40.7962 62.1733 40.0229 62.56C39.2496 62.9467 38.3362 63.14 37.2829 63.14ZM43.8276 57.4C43.8276 56.2533 44.0409 55.2467 44.4676 54.38C44.9076 53.5133 45.5009 52.8467 46.2476 52.38C46.9942 51.9133 47.8276 51.68 48.7476 51.68C49.5342 51.68 50.2209 51.84 50.8076 52.16C51.4076 52.48 51.8676 52.9 52.1876 53.42V51.84H55.6076V63H52.1876V61.42C51.8542 61.94 51.3876 62.36 50.7876 62.68C50.2009 63 49.5142 63.16 48.7276 63.16C47.8209 63.16 46.9942 62.9267 46.2476 62.46C45.5009 61.98 44.9076 61.3067 44.4676 60.44C44.0409 59.56 43.8276 58.5467 43.8276 57.4ZM52.1876 57.42C52.1876 56.5667 51.9476 55.8933 51.4676 55.4C51.0009 54.9067 50.4276 54.66 49.7476 54.66C49.0676 54.66 48.4876 54.9067 48.0076 55.4C47.5409 55.88 47.3076 56.5467 47.3076 57.4C47.3076 58.2533 47.5409 58.9333 48.0076 59.44C48.4876 59.9333 49.0676 60.18 49.7476 60.18C50.4276 60.18 51.0009 59.9333 51.4676 59.44C51.9476 58.9467 52.1876 58.2733 52.1876 57.42ZM64.3018 60.1V63H62.5618C61.3218 63 60.3551 62.7 59.6618 62.1C58.9685 61.4867 58.6218 60.4933 58.6218 59.12V54.68H57.2618V51.84H58.6218V49.12H62.0418V51.84H64.2818V54.68H62.0418V59.16C62.0418 59.4933 62.1218 59.7333 62.2818 59.88C62.4418 60.0267 62.7085 60.1 63.0818 60.1H64.3018ZM65.5268 57.4C65.5268 56.2533 65.7401 55.2467 66.1668 54.38C66.6068 53.5133 67.2001 52.8467 67.9468 52.38C68.6935 51.9133 69.5268 51.68 70.4468 51.68C71.2335 51.68 71.9201 51.84 72.5068 52.16C73.1068 52.48 73.5668 52.9 73.8868 53.42V51.84H77.3068V63H73.8868V61.42C73.5535 61.94 73.0868 62.36 72.4868 62.68C71.9001 63 71.2135 63.16 70.4268 63.16C69.5201 63.16 68.6935 62.9267 67.9468 62.46C67.2001 61.98 66.6068 61.3067 66.1668 60.44C65.7401 59.56 65.5268 58.5467 65.5268 57.4ZM73.8868 57.42C73.8868 56.5667 73.6468 55.8933 73.1668 55.4C72.7001 54.9067 72.1268 54.66 71.4468 54.66C70.7668 54.66 70.1868 54.9067 69.7068 55.4C69.2401 55.88 69.0068 56.5467 69.0068 57.4C69.0068 58.2533 69.2401 58.9333 69.7068 59.44C70.1868 59.9333 70.7668 60.18 71.4468 60.18C72.1268 60.18 72.7001 59.9333 73.1668 59.44C73.6468 58.9467 73.8868 58.2733 73.8868 57.42ZM83.201 53.7C83.601 53.0867 84.101 52.6067 84.701 52.26C85.301 51.9 85.9677 51.72 86.701 51.72V55.34H85.761C84.9077 55.34 84.2677 55.5267 83.841 55.9C83.4143 56.26 83.201 56.9 83.201 57.82V63H79.781V51.84H83.201V53.7ZM87.6557 57.4C87.6557 56.2533 87.869 55.2467 88.2957 54.38C88.7357 53.5133 89.329 52.8467 90.0757 52.38C90.8224 51.9133 91.6557 51.68 92.5757 51.68C93.3624 51.68 94.049 51.84 94.6357 52.16C95.2357 52.48 95.6957 52.9 96.0157 53.42V51.84H99.4357V63H96.0157V61.42C95.6824 61.94 95.2157 62.36 94.6157 62.68C94.029 63 93.3424 63.16 92.5557 63.16C91.649 63.16 90.8224 62.9267 90.0757 62.46C89.329 61.98 88.7357 61.3067 88.2957 60.44C87.869 59.56 87.6557 58.5467 87.6557 57.4ZM96.0157 57.42C96.0157 56.5667 95.7757 55.8933 95.2957 55.4C94.829 54.9067 94.2557 54.66 93.5757 54.66C92.8957 54.66 92.3157 54.9067 91.8357 55.4C91.369 55.88 91.1357 56.5467 91.1357 57.4C91.1357 58.2533 91.369 58.9333 91.8357 59.44C92.3157 59.9333 92.8957 60.18 93.5757 60.18C94.2557 60.18 94.829 59.9333 95.2957 59.44C95.7757 58.9467 96.0157 58.2733 96.0157 57.42Z" fill="white"/>
<path d="M50.5233 34.2957C49.5322 28.4728 47.3846 23.0368 44.2696 18.4662C44.281 18.4144 44.2968 18.3642 44.3167 18.3164C45.3836 15.2342 46.2649 10.009 46.7983 3.60766C46.7933 3.55687 46.7933 3.50553 46.7983 3.45473L55.1666 3.37878C55.1666 3.39623 55.2581 5.18825 55.6169 7.95018C56.0772 11.5188 56.7746 15.0358 57.702 18.4662C56.6562 20.1725 55.6962 21.9548 54.8272 23.8033C53.4964 26.6032 51.833 30.6871 51.4668 34.2475V18.497C51.7276 18.3643 51.9428 18.1252 52.0756 17.8205C52.2084 17.5158 52.2508 17.1642 52.1953 16.8257C52.1399 16.4872 51.9902 16.1825 51.7717 15.9636C51.5532 15.7448 51.2793 15.6251 50.9967 15.6251C50.7141 15.6251 50.4403 15.7448 50.2218 15.9636C50.0032 16.1825 49.8535 16.4872 49.7981 16.8257C49.7427 17.1642 49.785 17.5158 49.9178 17.8205C50.0507 18.1252 50.2658 18.3643 50.5267 18.497V34.2957H50.5233Z" fill="white"/>
<path d="M55.5077 0H46.48V2.64287H55.5077V0Z" fill="white"/>
<path d="M20 34.1173L23.1389 36.6617C23.1389 36.6617 37.2961 30.4615 48.3484 40.6348C48.2972 40.5742 49.6171 42.9777 52.7171 41.5419C52.6911 41.51 53.3603 41.1312 53.4653 40.5636C53.4788 40.5636 57.6085 36.5711 62.1182 35.6884C66.6278 34.8057 70.1837 33.9745 78.688 36.6256C78.6309 36.5229 81.2977 34.2249 82 34.19C77.1342 31.9621 71.8955 31.2264 66.7428 32.0471C61.5902 32.8677 56.6812 35.2199 52.4455 38.8973C51.9933 39.3677 51.5219 39.8092 51.0328 40.2208C51.0328 40.2208 39.132 27.5549 22.9239 33.0654C22.934 33.0059 20 34.1173 20 34.1173Z" fill="white"/>
<path d="M50.9994 39.2235C50.9994 39.2235 60.1424 26.2737 77.9089 30.2333C78.6849 29.1338 79.642 28.2467 80.7179 27.6304C80.7179 27.6139 66.8565 23.7591 56.1032 33.3535C54.4464 34.8526 52.914 36.5472 51.5286 38.4126C51.5471 38.426 50.9994 39.2235 50.9994 39.2235Z" fill="white"/>
<path d="M79.3309 21.4335C78.4057 22.0448 77.5969 22.8874 76.9558 23.9061C76.9558 23.9421 64.5294 22.4865 55.4143 31.9115C55.3933 31.9392 52.1 35.1089 51.2187 37.2037C51.2414 37.2037 54.6636 29.352 63.9047 24.1206C73.1458 18.8893 79.3309 21.4335 79.3309 21.4335Z" fill="white"/>
<path d="M50.9868 39.2235C50.9868 39.2235 41.843 26.2737 24.0766 30.2333C23.3013 29.1337 22.3439 28.2466 21.2683 27.6304C21.2683 27.6139 35.1306 23.7591 45.8839 33.3535C47.5411 34.852 49.0727 36.5467 50.4577 38.4126C50.4383 38.426 50.9868 39.2235 50.9868 39.2235Z" fill="white"/>
<path d="M22.6561 21.4335C23.581 22.0453 24.3905 22.8879 25.032 23.9061C25.032 23.9421 37.4568 22.4865 46.5719 31.9115C46.5946 31.9392 49.8878 35.1089 50.7724 37.2037C50.7497 37.2037 47.3233 29.352 38.0864 24.1206C28.8495 18.8893 22.6561 21.4335 22.6561 21.4335Z" fill="white"/>
</svg>
