<svg xmlns="http://www.w3.org/2000/svg" width="164.172" height="150.164" viewBox="0 0 164.172 150.164">
  <g id="Features" transform="translate(0 -21.844)">
    <g id="Group_1064" data-name="Group 1064" transform="translate(0 100.047)">
      <g id="Group_1063" data-name="Group 1063">
        <path id="Path_1368" data-name="Path 1368" d="M157.952,293.322a11.015,11.015,0,0,0-16.066-12.993l-21.4,12.7a10.813,10.813,0,0,0-2.059,1.6l-2.468.172c.526-3.22-.239-7.28-4.763-10.361-17.822-12.141-20.891-14.75-26.366-15.965-5.986-1.306-10.162-2.2-13.545-2.711a2.4,2.4,0,0,0-.718,4.756c4.519.682,12.024,2.411,13.193,2.645,4.589,1.094,6.57,2.88,24.729,15.25,4.224,2.877,2.583,6.646,2.033,7.655a5.453,5.453,0,0,1-6.054,1.633l-17.548-6.377a2.4,2.4,0,1,0-1.643,4.52l17.548,6.377a10.254,10.254,0,0,0,10.818-2.44c41.777-2.906,39.018-2.843,40.5-2.6,6.5,1.043,7.746,10.187-.955,12.532-.107.022-49.764,10-49.869,10.023a19.007,19.007,0,0,1-14.434-2.3c-16.878-11.5-17.718-12.752-24.8-14.1-5.454-1.036-9.2.288-13.3,2L38.9,276.464a118.284,118.284,0,0,1,21.2-5.943,2.4,2.4,0,0,0-.792-4.744,122.788,122.788,0,0,0-22.238,6.243l-.829-2.014a5.834,5.834,0,0,0-7.621-3.175L3.689,277.1A5.944,5.944,0,0,0,0,282.609v50.029a5.053,5.053,0,0,0,6.969,4.672l43.348-17.8a5.844,5.844,0,0,0,3.175-7.621h0l-.87-2.113c3.73-1.56,6.45-2.506,10.571-1.723,4.832.918,5.716,1.47,15.857,8.456.305.21,6.961,4.793,7.277,4.987a23.686,23.686,0,0,0,18.142,2.905l49.743-9.993c.045-.009.089-.02.134-.031C167.461,310.951,166.17,297,157.952,293.322Zm-4.734-1.071c-.764-.036-20.807,1.4-24.826,1.682l15.949-9.468a6.206,6.206,0,0,1,8.876,7.786ZM48.488,315.062l-43.346,17.8a.241.241,0,0,1-.333-.223V282.609a1.145,1.145,0,0,1,.712-1.063l24.935-10.268a1.028,1.028,0,0,1,1.342.559l17.246,41.883A1.028,1.028,0,0,1,48.488,315.062Z" transform="translate(0 -265.733)" fill="#fff"/>
      </g>
    </g>
    <g id="Group_1066" data-name="Group 1066" transform="translate(59.698 21.844)">
      <g id="Group_1065" data-name="Group 1065">
        <path id="Path_1369" data-name="Path 1369" d="M276.888,43.305H274.3a20.208,20.208,0,0,0-1.646-3.975l1.827-1.827a3.508,3.508,0,0,0,0-4.955l-3.265-3.265a3.5,3.5,0,0,0-4.955,0l-1.826,1.826a20.191,20.191,0,0,0-3.975-1.646V26.881a3.508,3.508,0,0,0-3.5-3.5h-4.617a3.508,3.508,0,0,0-3.5,3.5v2.584a20.182,20.182,0,0,0-3.975,1.646l-1.826-1.826a3.5,3.5,0,0,0-4.955,0l-2.549,2.549c-.774-.268-1.557-.51-2.348-.715V25.982a4.143,4.143,0,0,0-4.138-4.138H221.76a4.143,4.143,0,0,0-4.138,4.138v5.134a30.534,30.534,0,0,0-7.9,3.271l-3.63-3.631a4.136,4.136,0,0,0-5.853,0l-5.152,5.152a4.144,4.144,0,0,0,0,5.853l3.631,3.631a30.519,30.519,0,0,0-3.271,7.9h-5.134a4.143,4.143,0,0,0-4.139,4.138v7.286a4.143,4.143,0,0,0,4.139,4.139h5.134a30.532,30.532,0,0,0,3.271,7.895l-3.631,3.631a4.144,4.144,0,0,0,0,5.853l5.152,5.152a4.144,4.144,0,0,0,5.853,0l3.631-3.631a30.533,30.533,0,0,0,7.9,3.271v5.134a4.143,4.143,0,0,0,4.138,4.139h7.286a4.143,4.143,0,0,0,4.138-4.139V91.021a30.534,30.534,0,0,0,7.9-3.271l3.63,3.63a4.136,4.136,0,0,0,5.853,0l5.152-5.152a4.144,4.144,0,0,0,0-5.852l-3.633-3.633q.542-.922,1.019-1.885h3.858a3.508,3.508,0,0,0,3.5-3.5V68.77a20.208,20.208,0,0,0,3.975-1.646l1.826,1.826a3.5,3.5,0,0,0,4.955,0l3.266-3.265a3.508,3.508,0,0,0,0-4.955L272.659,58.9a20.227,20.227,0,0,0,1.646-3.975h2.584a3.508,3.508,0,0,0,3.5-3.5V46.809A3.509,3.509,0,0,0,276.888,43.305Zm-29.25,44.2-4.517-4.517a2.4,2.4,0,0,0-3.052-.289,25.853,25.853,0,0,1-9.739,4.035,2.4,2.4,0,0,0-1.954,2.362v6.387h-5.943V89.1a2.4,2.4,0,0,0-1.954-2.362,25.849,25.849,0,0,1-9.739-4.035,2.4,2.4,0,0,0-3.052.289L203.17,87.5l-4.2-4.2,4.517-4.517a2.4,2.4,0,0,0,.289-3.052,25.841,25.841,0,0,1-4.035-9.738,2.4,2.4,0,0,0-2.362-1.955h-6.387V58.1h6.387a2.4,2.4,0,0,0,2.362-1.955,25.839,25.839,0,0,1,4.035-9.738,2.4,2.4,0,0,0-.289-3.052l-4.517-4.517,4.2-4.2,4.517,4.517a2.4,2.4,0,0,0,3.052.289,25.84,25.84,0,0,1,9.739-4.035,2.4,2.4,0,0,0,1.954-2.362V26.653h5.944V33.04A2.4,2.4,0,0,0,230.33,35.4a25.936,25.936,0,0,1,3.746,1.012,3.541,3.541,0,0,0,.742,1.089l1.827,1.827A20.529,20.529,0,0,0,235,43.3H232.58a19.157,19.157,0,1,0,10.17,25.9h0a3.528,3.528,0,0,0,.288-.256l1.826-1.826a20.2,20.2,0,0,0,3.975,1.646v2.584a3.981,3.981,0,0,0,.141.988,25.993,25.993,0,0,1-1.945,3.392,2.4,2.4,0,0,0,.288,3.052L251.84,83.3Zm-12.82-21.819,2.845,2.845a14.353,14.353,0,1,1-8.751-21.374v4.269a3.508,3.508,0,0,0,3.5,3.5H235a20.193,20.193,0,0,0,1.646,3.975l-1.826,1.826A3.5,3.5,0,0,0,234.818,65.686ZM275.582,50.12h-3.168a2.4,2.4,0,0,0-2.362,1.954,15.5,15.5,0,0,1-2.419,5.843,2.4,2.4,0,0,0,.288,3.052l2.239,2.239-1.418,1.418L266.5,62.387a2.4,2.4,0,0,0-3.053-.288,15.5,15.5,0,0,1-5.843,2.419,2.4,2.4,0,0,0-1.954,2.362v3.168h-2.006V66.881a2.406,2.406,0,0,0-1.954-2.362,15.5,15.5,0,0,1-5.843-2.419,2.406,2.406,0,0,0-3.053.289l-2.239,2.239-1.418-1.418,2.239-2.239a2.4,2.4,0,0,0,.288-3.053,15.5,15.5,0,0,1-2.42-5.843,2.4,2.4,0,0,0-2.362-1.954h-3.168V48.115h3.168a2.4,2.4,0,0,0,2.362-1.954,15.723,15.723,0,0,1,2.42-5.843,2.406,2.406,0,0,0-.288-3.053l-2.239-2.239,1.418-1.418,2.24,2.239a2.4,2.4,0,0,0,3.052.288,15.506,15.506,0,0,1,5.843-2.419,2.4,2.4,0,0,0,1.954-2.362V28.187h2.006v3.168a2.4,2.4,0,0,0,1.954,2.362,15.505,15.505,0,0,1,5.843,2.419,2.4,2.4,0,0,0,3.053-.288l2.239-2.239,1.418,1.418-2.239,2.239a2.4,2.4,0,0,0-.288,3.052,15.5,15.5,0,0,1,2.419,5.843,2.4,2.4,0,0,0,2.362,1.954h3.168Z" transform="translate(-186.179 -21.844)" fill="#fff"/>
      </g>
    </g>
    <g id="Group_1068" data-name="Group 1068" transform="translate(115.149 36.087)">
      <g id="Group_1067" data-name="Group 1067">
        <path id="Path_1370" data-name="Path 1370" d="M382.7,81.908a2.4,2.4,0,0,0-3.228,1.07,8.213,8.213,0,1,1-1.533-9.492,8.364,8.364,0,0,1,.711.814,2.4,2.4,0,1,0,3.814-2.93,13.181,13.181,0,0,0-1.123-1.284,13.024,13.024,0,1,0,2.429,15.051A2.4,2.4,0,0,0,382.7,81.908Z" transform="translate(-359.11 -66.263)" fill="#fff"/>
      </g>
    </g>
  </g>
</svg>
