<svg xmlns="http://www.w3.org/2000/svg" width="147.204" height="127.577" viewBox="0 0 147.204 127.577">
  <g id="responsive_website" data-name="responsive website" transform="translate(0 -32)">
    <g id="Group_1070" data-name="Group 1070" transform="translate(0 32)">
      <g id="Group_1069" data-name="Group 1069" transform="translate(0 0)">
        <path id="Path_1374" data-name="Path 1374" d="M139.844,95.789h-2.453V44.267A12.282,12.282,0,0,0,125.124,32H22.081A12.282,12.282,0,0,0,9.814,44.267v36.8H7.36A7.36,7.36,0,0,0,0,88.428v63.789a7.36,7.36,0,0,0,7.36,7.36H100.59a2.454,2.454,0,0,0,2.453-2.453,12.282,12.282,0,0,0-12.267-12.267h-7.36v-14.72h29.441v22.081a7.36,7.36,0,0,0,7.36,7.36h19.627a7.36,7.36,0,0,0,7.36-7.36V103.149A7.36,7.36,0,0,0,139.844,95.789ZM53.975,152.217a2.454,2.454,0,0,1-2.453,2.453H7.36a2.454,2.454,0,0,1-2.453-2.453v-2.453H53.975Zm0-7.36H4.907V88.428A2.454,2.454,0,0,1,7.36,85.975H51.522a2.454,2.454,0,0,1,2.453,2.453Zm36.8,4.907a7.375,7.375,0,0,1,6.941,4.907H58.43a7.276,7.276,0,0,0,.451-2.453v-2.453Zm-31.894-4.907v-14.72h4.907v14.72Zm9.814,0v-14.72h9.814v14.72Zm44.161-19.627H58.882v-14.72h53.975Zm0-22.081V105.6H58.882V88.428a7.272,7.272,0,0,0-.839-3.339c.037-.034.086-.044.12-.081L82.452,60.72a2.453,2.453,0,0,0-3.469-3.469L54.694,81.539c-.059.061-.083.14-.135.2a7.268,7.268,0,0,0-3.037-.675H14.72v-36.8a7.36,7.36,0,0,1,7.36-7.36H125.124a7.36,7.36,0,0,1,7.36,7.36V95.789H120.217A7.36,7.36,0,0,0,112.857,103.149ZM142.3,152.217a2.454,2.454,0,0,1-2.453,2.453H120.217a2.454,2.454,0,0,1-2.453-2.453v-2.453H142.3Zm0-7.36H117.764V103.149a2.454,2.454,0,0,1,2.453-2.453h19.627a2.454,2.454,0,0,1,2.453,2.453Z" transform="translate(0 -32)" fill="#fff"/>
      </g>
    </g>
    <g id="Group_1072" data-name="Group 1072" transform="translate(14.69 110.213)">
      <g id="Group_1071" data-name="Group 1071">
        <path id="Path_1375" data-name="Path 1375" d="M62.527,287.752a2.453,2.453,0,0,0-3.469,0L48.651,298.159a2.453,2.453,0,0,0,3.409,3.529l.06-.06,10.407-10.407C62.965,290.462,62.085,289.019,62.527,287.752Z" transform="translate(-47.902 -287.034)" fill="#fff"/>
      </g>
    </g>
    <g id="Group_1074" data-name="Group 1074" transform="translate(29.411 110.242)">
      <g id="Group_1073" data-name="Group 1073">
        <path id="Path_1376" data-name="Path 1376" d="M110.467,287.819a2.454,2.454,0,0,0-3.409,0L96.651,298.227a2.453,2.453,0,0,0,3.409,3.529l.06-.06,10.407-10.407A2.454,2.454,0,0,0,110.467,287.819Z" transform="translate(-95.902 -287.131)" fill="#fff"/>
      </g>
    </g>
    <g id="Group_1076" data-name="Group 1076" transform="translate(68.911 56.564)">
      <g id="Group_1075" data-name="Group 1075">
        <path id="Path_1377" data-name="Path 1377" d="M253.148,112.787a2.454,2.454,0,0,0-3.409,0l-24.289,24.289a2.453,2.453,0,1,0,3.409,3.53l.06-.06,24.289-24.289A2.453,2.453,0,0,0,253.148,112.787Z" transform="translate(-224.702 -112.099)" fill="#fff"/>
      </g>
    </g>
    <g id="Group_1078" data-name="Group 1078" transform="translate(124.078 116.884)">
      <g id="Group_1077" data-name="Group 1077">
        <path id="Path_1378" data-name="Path 1378" d="M415.686,309.475a2.453,2.453,0,0,0-3.409,0l-6.938,6.938a2.453,2.453,0,0,0,3.409,3.529l.06-.06,6.938-6.938A2.453,2.453,0,0,0,415.686,309.475Z" transform="translate(-404.59 -308.786)" fill="#fff"/>
      </g>
    </g>
    <g id="Group_1080" data-name="Group 1080" transform="translate(71.186 115.416)">
      <g id="Group_1079" data-name="Group 1079">
        <path id="Path_1379" data-name="Path 1379" d="M234.586,304h-.025a2.466,2.466,0,1,0,.025,0Z" transform="translate(-232.12 -304)" fill="#fff"/>
      </g>
    </g>
    <g id="Group_1082" data-name="Group 1082" transform="translate(66.242 41.814)">
      <g id="Group_1081" data-name="Group 1081" transform="translate(0 0)">
        <path id="Path_1380" data-name="Path 1380" d="M228.267,64h-9.814a2.453,2.453,0,1,0,0,4.907h9.814a2.453,2.453,0,1,0,0-4.907Z" transform="translate(-216 -64)" fill="#fff"/>
      </g>
    </g>
  </g>
</svg>
