<svg xmlns="http://www.w3.org/2000/svg" xmlns:xlink="http://www.w3.org/1999/xlink" width="148.722" height="153.466" viewBox="0 0 148.722 153.466">
  <defs>
    <clipPath id="clip-path">
      <path id="path3183" d="M0-682.665H148.722V-529.2H0Z" transform="translate(0 734.147)"/>
    </clipPath>
  </defs>
  <g id="sass" transform="translate(-2099.45 -8526.09)">
    <g id="g3181" transform="translate(2099.45 8474.607)" clip-path="url(#clip-path)">
      <g id="g3191" transform="translate(6.55 61.67)">
        <path id="path3193" d="M-269.893-134.947a65.719,65.719,0,0,1-65.72,65.72,65.719,65.719,0,0,1-65.72-65.72,65.719,65.719,0,0,1,65.72-65.72A65.719,65.719,0,0,1-269.893-134.947Z" transform="translate(401.332 200.666)" fill="none" stroke="#fff" stroke-miterlimit="10" stroke-width="5"/>
      </g>
    </g>
    <path id="Path_1373" data-name="Path 1373" d="M197.316,117.1c-2.37-9.294-17.779-12.349-32.364-7.167-8.68,3.084-18.076,7.923-24.832,14.243-8.033,7.513-9.314,14.053-8.786,16.786,1.863,9.642,15.074,15.945,20.5,20.621v.028c-1.6.788-13.323,6.72-16.066,12.785-2.894,6.4.461,10.989,2.682,11.607,6.882,1.915,13.944-1.529,17.74-7.19,3.662-5.463,3.358-12.518,1.766-16.027a21.081,21.081,0,0,1,8.008-.459c9.179,1.072,10.98,6.8,10.636,9.2a6.053,6.053,0,0,1-2.913,4.116c-.644.4-.84.536-.786.832.078.43.376.415.925.322a7.157,7.157,0,0,0,4.994-6.379c.222-5.622-5.166-11.91-14.7-11.746a25.175,25.175,0,0,0-8.183,1.106c-.132-.15-.266-.3-.4-.448-5.9-6.292-16.8-10.742-16.337-19.2.168-3.075,1.237-11.172,20.948-20.994,16.147-8.046,29.073-5.832,31.306-.925,3.191,7.01-6.908,20.04-23.676,21.919-6.389.716-9.753-1.76-10.589-2.682-.881-.971-1.012-1.015-1.341-.833-.536.3-.2,1.154,0,1.665.5,1.3,2.555,3.614,6.058,4.763,3.081,1.011,10.582,1.567,19.653-1.942,10.159-3.93,18.093-14.862,15.763-24Zm-43.223,47.362a13.4,13.4,0,0,1-.109,7.821q-.131.4-.288.784t-.339.765a14.61,14.61,0,0,1-2.417,3.523c-3.04,3.317-7.288,4.571-9.11,3.514-1.967-1.14-.982-5.817,2.543-9.543a35.422,35.422,0,0,1,9.248-6.586l-.008-.017C153.772,164.637,153.931,164.55,154.093,164.461Z" transform="translate(2009.333 8455.846)" fill="#fff"/>
  </g>
</svg>
