<svg xmlns="http://www.w3.org/2000/svg" width="501.107" height="369.543" viewBox="0 0 501.107 369.543">
  <g id="Osmanabad_Dist" data-name="Osmanabad Dist" transform="translate(7371.83 13710.325)">
    <g id="_5" data-name="5">
      <path id="5" data-name="5" d="M1393.254,1160.354l.062.686.046.827.343.235.656.246.655.079.172.032.094.686.031.343-.047.436-.468.3-.623.187-.422.2-.452.267-.5.779-.2.485-.032.39-.031.369-.265.156-.233-.094-.234-.156-.123-.312-.28-.437-.686-.047-.874.03v6.007l-.563.562-.369.3-.109.515.032.369.28.2.17.28-.048.3-.184.187-.172.171-.031,3.666-.344.578-.156.281v.921l1.966-.172.515.369,3.027.108.015,2.621-.4.952-.657,1.966-.562,3.151-.686,1.6-.737,2.23-1.015,2.855-.966,4.165-1.171,2.729-.246.874-.079,7.373-.684,1.9-.516,1.012-.967.327-1.434.3-1.106.188-.42,2.324-.86,2.653-.936,4.523-.451,2.667,3.339-.123,1.72.513,1.311.156-.032,1.2-.235.654.235.687.624.906,1,.686.922.563.808.483,3.777,1.029,1.481.14,5.8.3,1.263-.3.716.031,1.5,1,2.995,1.279.86.359,1.045-.281.172-.576.246-1.014,1.217.155,1.466.439,5.257-.079,1.7.312,2.262.016,1.2-3.4.95-3.634.64-1.72.172-.737-.2-.531-.2-.779v-.737l.313-.2,1.45-.936.656-.483.559-.369,1.264.686.452.64h.7l4.975.078.656.86,1.138,1.561.484.763.359.369,1.106.328,1.044.169,2.98-.246.358-.623,1.749.246.779.077.281.438-.048,1.169.437.966.187,1.187.468,1.5.624,2.761,1.123,2.433.842,1.155,6.692-.2.983-.3,2.481.312.562.281-.764,1.419-.123.748,1.466,1.575,1.063.546.812-.031.763-.187.781.141.468.233.56.687.063.78-.015.9.109.9.594,1.577.077,1.966.595,1.72.156.405-.219.922-.343.921-1.294,1.389-1.279,1.622-.156,1.4-.123,1.171-.048.737-.5.766-.246.031-.578-.327-.936-.233-2.154-.016-1.043.626-1.654,1.7-.468.748-.235.936-.514.217-1.31.111-1.966.39-.983-1.061-1.154-.141-1.352-.14-3.4-.614-2.559-.718-.78.123-.934.546-.78.625-.312,1.09-.842,1.093-.452.687-.188,1.061-.172,1.326-1.561.748-.843,1.843-.515,1.123-1.2,1.638-.369,1.72-.562,1.7-.594.779-1.388,1.514-.843,1.763-.562.9-.156.656.187.763.28.156.515.093.78.156.763.233.875.344,1.622.7.063,4.67-.079,1.949-.233.952-.763.842-.407-.077-.64-.405-1.262-.514-1.125-.2-1.843-.922-1.7-.935-1.732-.405-1.061-.14-.92-.123-1.091-.123-1.685-.327-.422,1.185-.389.891-.469.7-.983,1.075-1.341.936-.922.888-1.106.141-.3,1.139-.8,2.871-.639,1.122-.485,1.229-.061,2.433-.171.563-.171,1.061-.3,1.077-.952.312-.888-.156-1.03-.468-.748-.078-.141.716.219.453.015.562.156.614.484.608.42.624.484.748-.219.766-1.327,1.294-1.575,2.324-.343.967-.172,1.3-.078,1.467-.466,1.7.216,1.575.359.968.016.737-.172.983-.4.827-.64.9-1.186,1.155-1.31,2.013-.343.827-.2.737-.3.139-.763.423-.312.343-.39-.048-.14-.188-.156-.405-.217-.546-.219-.28-.42-.369-.42-.187-.484-.172-.484-.219-.452-.234-.614-.594.716-.67.344-.246.171-.265.094-.3-.218-.22-.78-.615-1.387-.888-.89-.484-.639-.578-.86-.919-.562-.468-.56-.264-1.482-.173-.655.095-.2.156-.312.327-.141.513-.062.344-.063.3-.2.375-.423.343-.265.031-.358-.077-.42-.246-.3-.515-.108-.453-.032-.4.123-.531.343-.656.123-.328-.079-.4-.281-.546-.312-.563-.063-.67-.047-.39.079-.483.281-.594.172-.391-.016-.671-.313-.264-.405-.047-.766-.031-1.153.047-1.2.015-1.451.328-.562.094-.64.156-.562.219-.515.155-.246.281-.047.312.188.375.233.233.312.406.2.467.156.562-.14.656-.4.887-.579.141-.28-.031-.422-.28-.468-.624-.312-.452-.615-.312-1.122-.407-.327-.217-.625-.81-.312-.484-.515-.5-.92-.7-1.229-.8-.595-.14-.562.015-.75.157-.671.232-.562.2-.625-.14-.654-.592-.422-.781-.327-.887-.141-.906.016-.246.264-.531.484-.872.436-.906.156-.608.032-.369.077-.615.077-.484.172-.312.343-.484.737-.576.9-.764.468-.436.093-.235-.048-.327-.327-.639-.639-.874-.936-.75-.312-.264-.7-.359-.422-.312-.14-.562-.2-1.122-.187-.718-.563-1.217-.047-.343v-.36l.108-.28.375-.28.265-.328.048-.312-.016-.28-.123-.453-.3-.578-.718-1.4-.516-.063-.171.156-.343.233-.246-.594.156-.327.344-.532.3-.4.369-.344.563-.326.594-.36.468-.312.109-.8.047-1.856.172-1.17.359-1.263-1.762-.328-1.075-.016-1.843-.217-1.389-.078-4.119-.015-1.435-.123-.123-6.412-.14-.42-.281-.219-.109-.281.016-.312.171-.484.36-.5.669-.622.563-.812.359-.8.233-.357v-.3l-.047-.359-.139-.217-.423-.392-.594-.327-.407-.265-.28-.311-.453-.671-.311-.578-.236-.53-.015-.187-.032-.187.032-.233.246-.375.343-.437.826-.875.594-.56.246-.123.578-.235.391-.246.14-.281-.217-.452-.359-.312-.265-.4-.219-.452v-.531l.246-.421.5-.246.389-.094.4-.14.141-.171v-.3l-.2-.343-.512-.312h-.5l-.484.219-.7.281-.608.28-.515.235-.423.155h-.614l-.369-.218-.358-.452-.562-.656-.312-.737-.343-1.229-.453-1.513.016-.686-.188-.7-1.045-.9-.109-.123-.811-.437-.872-.2-.764-.452-.827-.842-1.372-1.3-.624-.686-.639-.795-.3-.437-.079-.453.172-.56-.078-.531-.514-.624-.578-.405-.592-.14-1.156-.032-.5-.141-.359-.369-.233-.515-.156-.5-.4-.7-.563-.514-.737-.53-.935-.265-.75-.359-.328-.344-.188-.436-.032-.369.032-.436-.047-.594-.187-.452-.655-.234-.422.2-.3.614-.359.436-.608.2-.53-.188-.233-.281-.173-.327-.094-.8-.123-.492-.141-.547-.265-.516-.78-.246-.748-.155-.936-.2-.81-.032-.369.236-.3.4-.344.485-.422.578-.3.233-.737.092-.376-.234-.369-.3-.14-.311-.123-.547-.369-.919-.358-.7-.327-.436-.375-.391-.812-.047-.779-.031-.874-.156-.369-.141-.391-.3-.359-.295-.343-.39-.265-.594-.14-1.217.592-1.078.686-1.184.86-1.577,2.354-1.843.75-1.342.5-2.089-1.229-1.95-.531-2.012.219-4.462.624-1.6.842-2.2.187-3.54-.343-1.311-.079-1.17-.155-.484-.3-.369-.3-.219-.327-.369-.3-.436-.279-.265-.142-.233.063-.3.312-.468.281-.246.141-.312.141-1.015.86-1.387.235-.548.311-.3.369-.062,1.125.047.576-.015.265-.281.827-3.994,2.668-1.229,1.352-.141.951.016.483-.233.016-.7.015-.874.094-1.215.093-1.2.547-1.5,1.653-1.7.344-.625.233-.668.141-.811.343-1.124.157-.7.654-.952.452-.422.672-.015.64.093,1.106.546,1.325,1.03,1.106.369.89.233.874.235.515.3.546.311.763-.016,1.062-.045,1.077.264,1.747.89,3.441,1.45,1.373.405.828.281.952.607.7.515.563.614,1.106,1.215.763.594.687.405.687-.217.737-.656,1.3-1.592,2.855-3.416,1.373-1.342,1.685-3.666.594-3.089.747-2.653,1.72-2.668.514-.887.453-.468.484-.615.188-.608.047-.655.369-.281.576.095.748.28.14-.5.874-1.106.28-.327-.077-.423.047-.53.187-.578.343-.246,1.888-.86.53-.546,1.124-.9.86-.484.936-.936,1.154-.544.843-.453v-.484l.078-.357.265-.439.246-.388.312-.5.4-.246.246.172.3.514.313.391.452.14.312-.246.2-.156.264.031.246.156.233.5.491.42.391-.079.28-.576.235-.219.842.077.719-.077.327-.2.329-.326" transform="translate(-8690.837 -14844.445)" fill="#039286" stroke="#fff" stroke-linecap="square" stroke-linejoin="bevel" stroke-width="1" fill-rule="evenodd"/>
      <text id="_Paranda" data-name=" Paranda" transform="translate(-7330 -13584)" fill="#fff" font-size="16" font-family="Noto Sans Devanagari" font-weight="700"><tspan x="0" y="0" xml:space="preserve"> Paranda</tspan></text>
    </g>
    <g id="_1" data-name="1">
      <path id="1" data-name="1" d="M1420.444,1161.489l.095.369-.173.358-.2.236-.095.28-.015.187-.123.687-.843,1.077-.265.436-.265.5-.077.983-.048.718v.578l-.187.468-.077.655.062,1.2.359.532-.187.67-.109.547-.064.9.047.888-1.075.094-.718-.047-.422-.047-.951-.359-3.057-.2.375,1.122.312.563-.172,2.106-2.308.7-1.229.686-.64.359-.188,1.4.328.514.032.436-.172.407-.687.063-.716.045-.514.236-.265.419-.515.438-.187.327.047.219.469.265.483.171.188.094.639.422.312.5.123.369-.109,3.339.28.484-.031.39.047.53.624-.327.86-.484.687-.369.452-.2.369-.843.8.281.8.281,1.106.172.422.246,1.094.264.172-.311-.313-.421-.015-.328.421-.265.328-.369.42-.608.187-.594.438-.218.514.141.423.2.7.3.577.246.063,1.062.094.407.2.219h.358l.5-.047.686-.344.5-.5.5.032.888-.048.235.2-.562.219-.389.063-.2.281-.031.313.246.2.095.123.156.109.842.592.718-.123.375-.515.934-.032,1.561.123.483.437-.062.935-.111.687-.264.623-.187,1.81.14.406.467-.015h.614l.3.14.483,1.123.031.467.217.078.327-.141.344-.2.264-.047.344-.219.2-.405.016-.738.123-.42.344-.515.686-.468.578-.405.983-.312.983-.235,1.123-.484.639-.016.5.423.468.405.436.389.407.246.327.032.369-.369.375-.766.515-.684.407-.516,1.153-.406.562-.123.312.531.422.484.468.608,1.389.827,2.6,1.576,1.263.935-.779.614-.951.218-.64.515-.407.469-.328.3-.326.281-1.015.578-.614-.2-.406.187-.2.369-.2.5-.344.369-.562.265-1.153.671-.361-.468-.389-.092-.36-.048-.3.173v.234l.188.343.246.28.111.391-.015.483.062.92.452.5.22.764.217.594.42,1.982-.156.5-.094.482-.3.3-.047.123-1.125.89.906,1.09.467.7.235.311-.75.267-.671.654-.718,1.014-.233.718-.187.245-.369.42-.033.265-.045.532.359.671.2.359.575,1.387.2.718.172.5.156.5,1.106,1.919,1.263.156,1.325-.156.906-.219.952-.593,2.089-1.546,1.778.5,1.263-.063,1.139.032.78.109,1.825,1.825,1.31,1.577,1.076,1.483.123,1.277.095.718.077.453.7.047.452.406.047.592-.095.405-.42.563-.015.623.031.483.781.11.092.246-.391.016-.512.095-1.311.843-.737.561-.515.764.108,1.124-.218,1.2-.468.468-1.7,1.043-1.138.369-.7.123-.874-.047-.639-.016-1.2-.14-.967.077-1.31.422-1.03.265-1.328.078-.356.919-.983,3.432-.936,2.714-2.152,3.4-.344.64-.562-.281-2.481-.312-.983.3-6.693.2-.841-1.155-1.125-2.432-.623-2.762-.467-1.5-.188-1.185-.437-.967.047-1.17-.281-.436-.779-.077-1.747-.246-.36.624-2.979.246-1.046-.172-1.106-.328-.36-.369-.484-.763-1.137-1.562-.656-.86-4.977-.078h-.7l-.455-.64-1.263-.687-.562.369-.655.485-1.451.936-.312.2v.737l.2.78.2.531-.172.737-.64,1.72-.951,3.636-1.2,3.4-2.262-.016-1.7-.312-5.257.078-1.467-.436-1.218-.156-.246,1.014-.172.577-1.044.281-.86-.359-2.993-1.279-1.5-1-.717-.032-1.265.3-5.8-.3-1.482-.141-3.775-1.029-.811-.484-.921-.563-1-.685-.623-.9-.234-.687.234-.656.031-1.2-1.311-.156-1.72-.516-3.339.123.454-2.669.936-4.523.86-2.652.421-2.324,1.106-.187,1.435-.3.967-.327.513-1.015.687-1.9.077-7.373.246-.875,1.17-2.729.968-4.165,1.015-2.854.737-2.23.687-1.6.563-3.151.654-1.966.406-.952-.016-2.62-3.025-.109-.516-.369-1.966.172v-.92l.156-.28.342-.578.031-3.667.171-.171.188-.188.047-.3-.172-.28-.28-.2-.031-.375.108-.514.369-.3.562-.563v-6l.875-.031.685.047.28.435.123.311.235.157.233.094.267-.156.031-.369.031-.39.2-.484.492-.779.452-.265.422-.2.624-.186.467-.3.048-.437-.031-.344-.095-.687-.171-.03-.656-.077-.655-.246-.344-.233-.047-.827-.062-.686.5-.592.687-.7.391-.219.452-.343.655-.624.951-.561.123-.656.016-.5.077-.484.8-.155.764-.109.391-.093.811-.265.86-.047.615.123.687.219.811.139h.639l.67-.216.218-.5.359-.546.968-.359.655-2.2-.016-1.229-.419-.968-1.015-.108-.623-.095-.344-.686-.016-.779-.03-.8.091-.81.188-.781v-.827l-.047-.576.123-.452.2-.78.156-.765.246-.9.89-.546,2.932-.811,2.573-.406.86-.123,1.622-.219,1.14.094,1.4.281.8.063.516-.094.169-1.124.369-2.074.094-1.466.563.2.235.016.188-.032h.265l.2.111.246.156.171.219.187.171.2.171.219.123.2.123.2.045.28.111.406.108.359.123.391.281.369.328.265.3.246.2.28.186.312.171.483.246.233.123.687.5.219.233.061.328.123.343.246.7.436.406.187.187.156.245.061.359.095.359.031.2.092.187.312.594.312.562.063.75.063.326.094.423.032.219.2.452.439.515.295.3.246.233.22.156.188.123.156.047.171.032.265.032.246-.016.53-.016.246.172.141.344.109.217.218.219.3.234.246.063.391.267.438.326.264.187.438.359.2.14.188.188.172.156.156.156.218.2.123.064.187-.016.235-.123.2-.141.172-.156.123-.123.123-.078.141-.015.218.047.123.108.032.109.063.312v.2l-.015.312-.047.219v.186l.093.141.246.14.187.123.716.3.219.063.187-.063.265-.015.246.171.2.123.188.094.233.095.172.063.187.047.141.016.139-.063.156-.094.246-.016.3.031.172.063.874.218.359-.015.218-.063" transform="translate(-8668.953 -14853.576)" fill="#039286" stroke="#fff" stroke-linecap="square" stroke-linejoin="bevel" stroke-width="1" fill-rule="evenodd"/>
      <text id="Bhum" transform="translate(-7290.43 -13637.035)" fill="#fff" font-size="16" font-family="Noto Sans Devanagari" font-weight="700"><tspan x="0" y="0">Bhum</tspan></text>
    </g>
    <g id="_7" data-name="7">
      <path id="7" data-name="7" d="M1554.366,1408.4l.719.031.764-.311.872-.246.516-.156.716-.437,1.373-.437.938-.2.435-.748.672-.576.468-.469.453-.615.28-.7,1.262-.827.7-.671,1.217-1,.671-.563.468-.3.67.093.532-.67.737-1.406.328-.934.123-.452.9-1,1.2-1.309.359-.671v-4.039l-.748-.64.391-.623-1.434-.156-1.826.172-1.389.032-.811.278-.828-.015-.826-.246-1.217-.094-.671-.064-.233-.046-2.184-.329-1.124-.515-.514-.483-.483-.779-.28-.531-.188-.468-.14-.624.246-.737.591-.936,1.871-2.949.779-2.852.156-1.281-.737-1.856-1.139-1.7-.687-1.3-.719-.811-.86-.39-.407-.032-.388-.14-.655-4.493.171-1.106.515-1.015.811-.53.484-.405-.047-1.061.935-1.092.453-.763.312-.615.078-.592v-1.9l-.5-.686.264-1.514,1.046-1.352,1.247-1.622.687-.453.639.369.422.562.435.123.8-1.4,1.374-2.464.077-1.352-.016-1.061-.544-.936-.594-1.733-.14-.86.109-.719.468-.952,2.448-2.6,2.356-1.248,1.311-.9.639-.422.592-.86.531-.578.108-.654.015-.452.719-.405,2.277-.015.89-.187.952-.328,1.247-.389.343-.265,3.261.047.7-1.325,1.607-1.545.342-1.72,1.5-.906,1.045-.531,1.031-.094.748.515,4.01.063.5-1.045.344-1.294.843-1.373,1.229-.936.423-.655-.111-.953.157-1.076,1.341.094,1.31.28,1.451.123,1.95.156.828-.015.623-.872.22-.938.467-2.9.547-2.931.156-5.508-.016-2.026.329-.936.172-.983.919.123,1.562.623.983.123,1.046-.092,1.294.06,1.229.031.764-.031.3-.7,1.373-2.59.369-1.217.187-.8.108-1.015.615-1.778-.032-1-.246-.655-.329-.453.953-.468,2.277-.233.935.406.531.655.7.75.7.436.716.515,1.342-.312,1.106-.592.531-.281.311-.219.9-.592.016.827-.2,1.482-.171,1.078-1.358,5.8-.3,1.482,1.031.267,1.278.718,1.341.872,1.935.188,1.888-.031,3.526.343,4.554.156,4.758.079,4.3,1.186.89.655,1.17,4.383.421,1.514.343.919.2.75.171.592-.452.388-.8.079-.84.077-.615.219-.936.246-.42-.842-.187.8-.123.437-.532.359-.295,1.574.7,1.342.156,1.045-.3.78-.171.545-.219.375h.614l.779.172.578.123.614.5.233.687-.436.592-.764,1.638-.623.8-.187,3.82-.267,1.435.156.737h1.811l2.166.2,1.3.123,1.406.172,1.622.281,2.041.187,1.622.172h.875l.86-.172.967-.328.812-.031.794.327.188.671.141.67.64.453.737.015.919.123.812.343.233.187,1.3,2.949.4.295-.123,15.085,4.962-.484,4.211,2.324h1.165l1.733,2.169.184,1.466,2.2,2.2,1.7.453,1.03,2.76-.906.921-1.72,1.575-.033,3.634-1.589,3.028-3.028-.016-.778,2.636-1.373,1.343-3.072-.093-.5.795-2.76.369.343,1.561-1.9-.047-5.9-2.808-2.153,2.558-.436,2.916,2.668.953-.641,6.131,1.982.42.639,4.414-8.891,3.417,1.511,1.731-1.637,5.256-2.511.595.312,3.711-1.062,2.827.156,1.918-.235.391-.7.123-.469-.281-.311-.624-.312-.716-.422-.437-.359.064-.576-.095-.39-.391-.687-.594-.718-.369-1.3-.468-1.169.766-.531.369-.608.123-.123-.369-.064-.92-.265-.889-.737-2.246-.016-.967-.42-1.529-.3-1.185-.794-1.514-.951-1.81-.312-.763-1.606-.547-.937-.141-1.075-.39-.843-.328-1-.483-.747-.172-.375-.623-.236-1.67-.326-.874-.142-.5v-.9l-.171-.687-.2-.7-.079-1.076.016-.544.141-.594.329-.452.172-.452-.219-.5-1.091-.467-.954-.737-1.309-1.72-.594-.9-.265-.655-.656-.452-.86-.313-.516.188-.311.764-.737,1.683-.3.594-.156.843-.5.451-.173.827-.28,1.154-.5,1.966-.607,2.745-.516,2.761v.531l.313.64.015.391-.263.369-.3.235-.779.246-.967.953-.391.608-.764,1.389-.422,1.4-.327.748-.235.592-.422.156-.671.28-1.185.246-2.1.141-.688.032-.233-.235-.171-.123-.017-.5-.109-.919-.094-1.326-.078-1.7-.279-2.826-.281-1.249.016-2.448-.123-1.919-.171-1.106-.172-.53-.233-.391-.265-.281-.172-.369.077-.369.3-.592.922-.812.687-.343.264-.246.265-.376.031-.482-.156-.406-.327-.172-.328-.156-.467-.172-.5-.156-.42-.187-.625-.3-.827-.079h-.483l-.8.123-.655.2-.563.264-.5.2-.953.246-.3.14-.28.219-.406.031-.422-.063-.328-.156-.5-.109-.53.045-.515.188-.405.3-.764.246-.966.233-.484.095-.39.108-.246-.078-.311-.187-.423-.2-.546-.109-.467-.047-.235.3.123.764.109.983.016.468.077.983.484,1.778.406,1.046.171.967-.406,2.043v2.481l-.578,2.559-.328.9-.562.172-1.091-.156-1.31-.311-2.683-.547-1.81.092-.86.156-1.186.578-1.638.359-1.046.53-.047.594v1.229l-.031,1.966-.375,1.982-.2,2.573-.343,2,.076,2.744.328,1.5.36,1.217.359,1.17.265.67.246.811-.123.391-.436.39-.874.047-.687.031-1.106-.031-1.56.016-4.227.015-1.561.39-.654.157-.626.217-.187.39.156.614.187.7-.172.358-.748.063-.439.032-.841.155-.75.032-.89.156-.015.39.093.453.172.4.2.468.216.592-.341.123-.344-.109-.312-.281-.922-.576-.748-.369-.369-.172-.827-.094-.563.045-.28.123-.359.281-.39.295-1.154-.076-.5.031h-.326l-.983-.187-.922-.281-.655-.5-1.106-1.171-1.72-1.294.078-1.186-.032-2-.156-2.105-.766-1.966-.343-1.075-.591-.952-.86-.562-.5-.016-.046-.7-.22-.5-.246-.656-.452-.483-.5-.031-.516.246-.624.312-.264-.2-.078-.591.562-.936v-.578l-.016-.7.246-.624.156-.737-.063-.747" transform="translate(-8558.731 -14770.74)" fill="#039286" stroke="#fff" stroke-linecap="square" stroke-linejoin="bevel" stroke-width="1" fill-rule="evenodd"/>
      <text id="Umarga" transform="translate(-6971.334 -13407.052)" fill="#fff" font-size="16" font-family="Noto Sans Devanagari" font-weight="700"><tspan x="0" y="0">Umarga</tspan></text>
    </g>
    <g id="_3" data-name="3">
      <path id="3" data-name="3" d="M1540.086,1278.33l.468.5.614.328.81.109,1.342.077.843.047h.9l2.45-.123.515.031.123,1.72.748,3.711.094,1.061.217.423.89-.3.468-.406.764-.36.983-.016.951.047.7-.032.78-.265.737-.156,1.106-.514,2.837-1.857,1.966-.8,1.138-.468,1.31.063,1.093.576.64.81.312.983.264.92.624.7.5.328,1.154.39.359,1.014.623,1.138,1.092.716.592.28-.093.89-.281.889-.155.8.405,1.559.687.843.53.562,1.077,1.5,1.39.766,1.229.246,1.467.438.624.686.359.967.376.639.42.328.983.313,1.031.295,1.466.123,1.72.28,3.962.141,1.3.826,1.123.578,1.046.11.53-.453.686-.687,1.249.281,1.044.246.968.281.686.578.9.28,1.326-.3.7.369,1.155.5,1.263.094.875-.062.311-.952.2-1.546-.047-1.653.246-1.559.391-2.089.578-.64,1.435.515,1.467.14.966.468.578.281-.047.747-.3,1.031-.737,1.622-.123.967-.079,1.077.015,1v.737l.763.342.7-.234.737-.313.935-.233.578.016.265.608.405.516,1.352.109,1.373-.156.157-2.106-.109-1.653.219-.78,1.466-.218,2.964.327,1.092.369.422.763.077,1.106.311.78.737.109.983-.39.778-.313.671-.311.906-1.045.264-1.576.452-.67.874-.369.92.281.983.42,1.263-.032.328.452.246.655.031,1-.614,1.778-.109,1.014-.187.8-.369,1.218-1.373,2.588-.3.7-.764.031-1.229-.031-1.294-.062-1.046.094-.983-.123-1.559-.625-.922-.123-.171.983-.329.936.016,2.029-.156,5.506-.546,2.932-.468,2.9-.219.936-.626.872-.826.016-1.95-.155-1.451-.123-1.309-.281-1.343-.094-.156,1.076.109.95-.421.658-1.229.935-.842,1.374-.343,1.294-.5,1.046-4.008-.063-.75-.516-1.03.095-1.046.53-1.5.9-.343,1.72-1.607,1.545-.7,1.326-3.26-.048-.343.265-1.247.39-.952.329-.89.187-2.277.016-.718.405-.016.452-.109.655-.531.577-.591.86-.64.422-1.311.9-2.356,1.249-2.448,2.6-.468.954-.108.718.14.86.592,1.73.546.936.016,1.061-.078,1.358-1.373,2.458-.8,1.406-.436-.123-.421-.563-.639-.369-.687.452-1.249,1.622-1.046,1.352-.264,1.513.5.687v1.9l-.079.594-.311.607-.451.766-.936,1.091.047,1.061-.484.4-.811.531-.515,1.014-.172,1.106.655,4.493.39.14.405.031.86.39.718.811.686,1.3,1.139,1.7.737,1.857-.154,1.278-.782,2.854-1.871,2.949-.594.935-.246.737.14.623.187.467.28.531.484.78.514.484,1.125.512,2.185.329.233.045.671.063,1.218.094.827.246.826.016.812-.281,1.389-.031,1.825-.172,1.436.157-.391.623.75.64v4.042l-.359.67-1.2,1.311-.9,1-.123.453-.327.936-.737,1.4-.531.671-.67-.092-.469.3-.671.562-1.216,1-.7.673-1.263.825-.281.7-.452.615-.468.468-.671.576-.436.75-.936.2-1.373.436-.718.437-.516.155-.872.246-.766.313-.718-.032-1.155-.576-3.291-.359-.716.592-.748.263-1.122.188-.983-.063-1-.2-1.229-.219-1.03-.42.343-.78.109-.764.437-.86-.016-3.541.217-.5.344-.279.737-.328,3.229-.967,2.278-1,2.621-.936,1.45-1.249.281-.623.246-.8.28-1.325-.187-2.246-.422-.983-.639-1.67-.123-1.122-1.529-.123-2.264-.281-.326-.062-.328-.656-.419-.563-.516-.435-.7-.313h-1.059l-.828.109-.094-.562.094-1.794.423-1.2.015-4.93.312-1.185.079-3.791.622-1.046-.264-5.444-1.341-.468-.7.016-1.339-.172-.016-.281.671-.952.246-.763.607-1.359.687-1.885.327-2.106.032-5.849-1.374-2.212-1.435-.779-1.061-.764-.967-.592-.109-.547-.188-1.529-.687-.921-.327-.467-.578-.562-.872-.452-1.044-.453-.217-.452-.094-.639-.2-.655-.2-.687-.047-.764.438-1.437-.328-.795-1.062-.9-.716-.655-.2-2.778-.453-2.246-.246-.388-.639-.452-.592-.422-.75-.468-.531-.81.22-2.7-.22-1.171-2.678-.378.079-.579.031-.919-.422-.737-.952-.53-.795-.246-.8-.406-.843-.42-.763-.265-.032-1.045-.4-1-.313-1.249-.141-.624-.483-.64-.8-.638-.951-.64-.219-.842-.093-.935-.359-1.015.187-1.371-1.325-.827-2.137-1.606-1.077-1.031-.737-.737-.576-.826-.687-.888.141-.719-.671-.578-.435-1.5.326-1.185.3-1.123.359-.843.407-.469.5-.388,1.637.14.983.032,1.045-.453,1.061-.187.716-.171.5-.594.123-3.494.343-1.263.095-6.3-1.282-.032-.528-.093-.187-1.31.031-1.359-.563-1.434-.123-1.467-.594-.811-.9-.343-.437-.094-.063-1.106.875-.639,1.326-.811.67-1.17-.016-.764.436-.391.578-.092.625.343.563.048.388-.2.531-.452.75-.614.78-.123.451-.246.265-.156" transform="translate(-8572.991 -14778.166)" fill="#039286" stroke="#fff" stroke-linecap="square" stroke-linejoin="bevel" stroke-width="1" fill-rule="evenodd"/>
      <text id="Lohara" transform="translate(-7023.848 -13449.939)" fill="#fff" font-size="16" font-family="Noto Sans Devanagari" font-weight="700"><tspan x="0" y="0">Lohara</tspan></text>
    </g>
    <g id="_6" data-name="6">
      <path id="6" data-name="6" d="M1436.763,1335.9l-.123-4.587.327-4.71.966-1.825.624-1.03.344-1.918.217-2.246-.264-.515-1.262-.063-.048-.614.718-1.062.2-.811.281-1.4.89-1.311,1.637-3.635.516-.5.514-.312.7-.75.766-.358.778-.061,1.515.246,1.918.109,1.855,1.342.578.452.919.575h.737l.671-.077.484.3.608.264.359-.062.547-.423.359-.4.686.031.779.295,1.155.078,1.669.766.576.048.737.281.235.842-.045.2-.063.921-.141.827-.187,1.326.5,1.263.935,2.745,1,.888,1.342.281,1.138.436,2.061.311,3.712-1.059,3.057-.967.874-.156,1.606.5,1.091.468,1.576.781.872.763.875.078,1.029.016,1.72-.313.369-.591-.031-1.015.53-2.916.156-2.979h.547l.827-.031,1.684-.123,1.467-.624.123-2.1.671-2.262.762-2.856.453-1.229.468-1.843.14-2.058.922-.484.716-.578.515-.64.951-.842,1-.86.7-.624-.953-1.622-.2-.827-.436-.639-.578-.017-.89.156-.763.2-.344.032-.246-.156-.2-.5-.172-.614-.219-.779-.639-.032-1.075.265-1.078.592-1.059.233-.422.2-.484.3-.935-.265-.267-.436.188-1.326.592-1.2,1.352-.86.655-.843.28-.515.062-.482,2.106-1.2,2.185-1.4.827-.369,2.043-1.2,1.747-1.17,1.934-2.074,1.546-1.856,1.106-1.389,2.668.7,2.074.123,1.888-.171,1.419-.172,2.979.28,3.823-.369.654,1.933.7,2.826.14,1.762-.109,1.25-.093,1.731.78,1.371.5,1,.436.8.737.56,1.061-.172,1.17-.246.5-1.389.763-.359.748.016.656.436.607.532.624.467.655.265,2.621.14.3.686.39.5.188.391.14.684v.7l.109.2h1.653l.766-.516,1.262.016,1.28.094.483.235,1.482.39.516,1.2,1.169.562.922.219.9.14,1.015.047.639.032.951.453,1.763.827,1.31.639.624.3,1.106.312.719.109h1.4l2.729-.032.359,1.123.369,1.106.515,1.606.86.375,1.077.156.983.311.954.22.934.076.86.233.872.156,1.062.343.656.123.327.016.906-.453.86.812.3.686.246.436.484.563.515.328.614.436.359.328,6.536-.017,1,.452h.889l.983-.295h.78l.737-.032.435,1.5.672.577-.14.716.686.89.578.826.737.737,1.078,1.031,2.137,1.606,1.326.827-.187,1.371.359,1.015.093.935.219.843.952.639.8.639.483.641.141.623.313,1.249.4,1,.032,1.044.763.265.844.422.794.407.795.246.953.53.422.737-.032.919-.079.576,2.668.389.218,1.171-.218,2.7.531.812.75.467.592.422.639.451.246.391.452,2.246.2,2.776.716.656,1.061.9.327.795-.437,1.435.047.764.2.687.2.655.093.639.218.452,1.046.452.872.452.578.563.327.468.688.921.186,1.529.11.547.968.591,1.061.766,1.435.78,1.374,2.212-.032,5.848-.327,2.106-.687,1.886-.608,1.358-.246.764-.671.952.016.281,1.341.172.7-.016,1.341.468.265,5.445-.623,1.044-.077,3.79-.313,1.185-.015,4.93-.422,1.2-.1,1.794.1.56.826-.109h1.061l.7.311.516.437.419.563.328.655.327.061,2.262.28,1.529.123.123,1.123.639,1.669.422.983.187,2.246-.281,1.325-.246.8-.281.622-1.449,1.248-2.621.935-2.278,1-3.229.967-.737.327-.344.28-.219.5.016,3.541-.436.86-.11.764-.344.78,1.031.421,1.229.219,1,.2.983.063,1.123-.188.748-.265.716-.592,3.292.359,1.154.578.061.75-.156.737-.246.625.015.7v.578l-.562.936.078.594.265.2.623-.313.515-.246.5.03.452.485.246.655.218.5.046.7.5.014.86.562.594.951.342,1.078.764,1.966.156,2.106.032,2-.08,1.185-1.014-.311-1.638-.436-1.918-.3-.936-.155-1.247-.281h-.936l-.358-.437.123-.8-.078-3.011-.157-.592-.369-.78.14-.639.063-.719-.172-1.029-.109-1.217-.844.047-.763.123-1,.265-.936.015-1.106-.28-.906-.281-.686-1.326-.546-1.155-.614-.919-4.43.233-.716.467-1,.265-.737-.095-1.3-.139-1-.141-1.03-.2-.718-.139-1.075-.548-.453-.53-.453-.67-.614-1.14-.841-1.9.2-.874.187-.7-.015-.422-.328-.369-.89-.423-.8-.265-1.529-.484v-.826l-.312-.782-.469-.53-.86-.56-.843-.5-1.154-.093-2.839.2-.764.359-.468.141-.531-.032-.615-.39-1.03-.2-.921.048-1.45.219.015,1.341-.608.5-1.015.468-1.139.531-1.311,1.029-.451.781-.614,1.2-.078,1.622-.764.077-3.744-.592.188.7.265.78.032,1.294-.468.328-1.482-.171-1.229-.047-2.605-.2-.062,3.792-3.9-.123-1.513-.267-.983.032-1.342.3-1.7.983-2.075.86-5.07-2.635-1.218-.64-.966-.079-.156-.5v-1.513l-1.685-.063-1.171-.078-1.482-.017-.827.157-.67.139-.437-.156.015-.42.14-1.281-.219-.935-.14-1.029v-.625l.094-.934.123-.484.5-.624.546-.452.452-.123.936.169,2.232.608,1.247.687.592.14.592-.032.615-.812,1.685-3.476.123-.75-.405-.64-.614-.435-.592-.281-.623-.015-.874-.079-.86.063-1.352-.219h-1.249l-1.247-.233-1.17.016-.359-.423-.235-.966-.246-1.483-.031-.639-.141-1.106-.016-1.434.328-1.873-1.732.483-.737-.483-.578-.016-.718-.155-.624-.515-.812-.369-.187-.468.047-.779.016-1.373-.639-.36-.844.031-.639.093-.172.246-.422.265-.436-.063-.687-.422-.81.048-.687.737-1.091.2-.889.016-1.6-.1-.56-1.481-.28-.874-.265-.578-.343-.5-.578-.872-1.091-.246-1-.142-1,.188-.594.235-1.106.281-1.513.2-.842,1.027-.624.36-.874.889-1.279.28-.515-.123h-.615l-.737-.327-1.012.983-.484.718-.562.686-1.2-.422-.781-.422-1.352-.156-4.915-.123-.615.031-.513.737-.36.483-.748.671-1.4,1.015-1.229,1-1.341.766-1.421.546-1.216.467-.265-.232-.171-.687-.109-.7.063-1.092.453-2.7.156-2.418.369-3.822.2-1.062.171-.109.842-.094.781-.14.246-.5-.078-.718-.246-.922-.64-1.262-.171-1.545.108-.468.577-.8.468-.827.625-1.077.483-.766.437-1.075-.187-1.81-.141-.7.594-1.062.369-.78-.484-.246-1.045-.156-.766-.016-.811-.094-.826-.14-.359-.615-.531-.639-.7-.576-1.419-.764-2.855-1.218-1.352-.515-1.14-.369-1.09.219-.8.608-.141,2.232.123,1.091.2.53.468.614.123.594v2.152l-.327.264-.812.109-1.155.235-.92.311-.623-.155-.092-.36-.423-1.434-.405-1.341-.405-1.229-.546-.615-.468-.467-.592-.468-.7-.467-1.17-.7-1.076-.874-.452-.86-.656.077-.592-.515-.155-.514-.157-.766-.077-.827-.53-.545h-1l-1.352.141-1.062.684-.312,1.6-.872,2.636-.548,1.5-.86.094-1.014.016-.936-.11-1.466.11-.826-.359-1.106-.369-1.5-.655-1.326-1.012-3.963-1.468-1.326-.419-1.17-.047-1.229.218-.109-5.085-.515-.547-1.327-.921-2.837-1.45-.922-.281-.748-.748-.344-1.171-.326-1.4-1.077-1.765-1.545-2.433-.313-1.373-.2-1.229.2-1.17.359-.639.563-1.4,1.075-3.354.188-1.03-.312-1.764-.874-1.574-.406-.484-.89-.265-.655-.032-1.2-.327" transform="translate(-8624.09 -14778.33)" fill="#039286" stroke="#fff" stroke-linecap="square" stroke-linejoin="bevel" stroke-width="1" fill-rule="evenodd"/>
      <text id="Tuljapur" transform="translate(-7115.716 -13422.052)" fill="#fff" font-size="16" font-family="Noto Sans Devanagari" font-weight="700"><tspan x="0" y="0">Tuljapur</tspan></text>
    </g>
    <g id="_4" data-name="4">
      <path id="4" data-name="4" d="M1478.677,1329.357l-.874.312-.624-.469-.281-.655-.246-1.2-.062-3.195-.779-1.014-.624-.453-1.5.032-2.154.281-1.933.077-2.419.246-1.794.077v-4.67l-1.465-.407-.718-.264-.687-.439-.3-.7.047-.718-.016-.936-.343-.888-.077-1.546-.328-.9-.093-1.062-.369-.779-.592-.375-.36-.484.469-.359.528-.14.672-.369.108-.686.452-1.352.171-.233.7-.343.9-1.843.766-1.72.95-3.245.375-1.545V1295.7l-1.229-2.277-.767-1-1.183-.954-1.229-.75-1.2-.717-.032-.766-.078-.919v-.7l-.342-.75-.614-.5-.483-.623.369-1.452.468-2.2.671-.529.436-.369.391-.531.375-.671.234-.842.436-1.218-.312-2.248.312-.935.218-.7.187-.718-.123-1.92-.56-1.138-.614-2.418-.281-.983-1.56-1.185-2.246-1.478-.484-.561-.2-1.062-.264-1.56.063-1.106.28-2.121.737-2.513.389-1.466v-.718l-.171-.686-.614-.89-.89-1.78-1.155-1.606,1.124-.843.95-.827.14-.639.408-.515.5-.5.311-.186,1.374-1.17.779-.686.576-.422-.016-.359.391-.764.246-.3.592-.123,1.279.032.4-.235.141-.233.094-.469.156-2.449.219-.779-.246-.718-.283-.546-.295-.467-.405-.312-.484-.562.233-.594,1-.452.795-.369.86.246.8.451.967.562.591.369.7.47.483.171.654-.155.578-.3,1.731-.375,3.564-.139,2.169-.094.7-1.326,2.465.141.737.42.92-.639.094-.78.108-.608.235-.546-.452-.328-.3-.328-.671-.515.439-.562.265-.467.28-.906.108-.967-.623-.67h-.671l-.562-.078-.451-.515.171-3.759.405-1.03.28-1.044.718-1.093.532-.718,1.153-.842,1.352-1.5.531-1.122.016-1.4.062-.218.156-1.155.546-1.342.235-1.825.093-1.076.078-1.59.437.063,2.324.312,1.279.2,2.262.468,1.59.171,2.792-.171,1.95-.2,1.062-.469,1.012-.515.671-.359.826-.437.5-.031.406.888.422.86.123.671.423,1,.843,1.574.921,2.62.515.281,1.2.233,1.218.281,2.262.342.888.141,2.808.062,1.483.189.737,1.435.406.841.576.719.86.108.716-.047.86-.421,4.71.015,2.9.123,1.513.936.562.546,1.247.359,1.811.64,2.089.246.7-2.793.718-1,.592-.951.53-.406.344-.484.14-2.949.531.591,1.279,1.3,1.03.436,1.352.388,1.047.312,2.184,1.669.591.766,1.327,1.155.89.623.515.483.827.391.607.36.89.578.468.435.718.391,1.106.608.672-.062,2.557.369.624.219,1.106.342,1.685.048,1.326.748.592.92.919,1.046,1.3,1.731.874-.592.748-.547.614-.874.369-.671.577-.671,1.123-1.262,1.6-1.311,1.45-.888,1.45-.718,1.265-.921.343.015.31.2-.123.764-.219,1.091-.033,1.062.173,1.966-.344,2.2-.312,1.823-.156,2.827-.3,3.149-.109,1.514,1.352.265,2.262.686,1.419.7,2.212.952,2,.9,1.247.28.047,1.669-.356,4.29-.246,3.369-.327,2.294.139,3.932-.031,1.309-1.218.328-.3.53-.217.407-.422,1.543-.327.563.016.468.141.36-.094.358-.267.39-.172.547-.5,1.248-1.106.2-.718.032-.437.233-.2.156-.592.031-.484.233-.608.625-.737.966-.451.593-.3.452-.343.369-.7.369-.233.234.031,1.53.062,1.014.579,1.7.107.547.095.547.031.515.063.234,1.155.093.779.032.844.015h1.388l.64.095.156.639-.095,2.277-.3,1.093-.236.718-.343,1.731-.313.123-.512.2-.235.407-.031.639-.437,2.793-.655,1.95-.267.56-.576.4-.5.422-.531.547-.562.687-.468,1.3-.482.483-.265.343-.109.436.156,2.933-.047,1.732.3.812.095.779-.048.936-.03,1.249.077,1.309-.235.906-.246.515-.279.468-.468.407-.437.56-.369,1.061-.047.36.154.311.281.391.265.436.406.764.328.687.3.483.312.594.079.278.233.375.435.375-.56,1.092-.171.9-.369,1.187-.2.934-.093.516-.187.546-.016,1,1.339.187.875.094.9.246.779.171.656.094.78.157.607.047.359.187-.032.369-.108.391-.281.467-.235.407-.17.422.359.312.547.172,1.72.468-.267.156-.452.246-.78.123-.75.615-.53.452-.389.2-.562-.047-.624-.344-.576.094-.436.39.015.763-.671,1.171-1.325.811-.874.64.063,1.106.436.094.9.343.594.811.123,1.467.562,1.435-.032,1.352.188,1.31.531.093,1.279.031-.095,6.3-.343,1.262-.123,3.495-.5.594-.716.171-1.062.188-1.043.452-.983-.032-1.638-.14-.5.39-.405.467-.359.843-.3,1.123-.327,1.186-.737.03h-.781l-.983.3h-.89l-1-.454-6.536.015-.36-.328-.608-.437-.516-.327-.483-.563-.246-.435-.3-.687-.86-.811-.9.451-.328-.016-.656-.123-1.06-.344-.872-.155-.86-.235-.938-.077-.952-.219-.983-.312-1.078-.156-.86-.375-.514-1.606-.375-1.106-.359-1.125-2.728.032h-1.406l-.718-.109-1.106-.313-.624-.3-1.311-.638-1.764-.827-.95-.454-.64-.031-1.014-.047-.906-.141-.922-.218-1.169-.562-.517-1.2-1.481-.391-.483-.233-1.279-.095-1.263-.015-.762.514h-1.655l-.109-.2v-.7l-.141-.687-.187-.391-.388-.5-.3-.684-2.62-.141-.656-.265-.623-.468-.614-.53-.655-.436-.75-.017-.764.359-.5,1.39-1.17.246-1.062.172-.737-.562-.435-.8-.5-1-.779-1.374.092-1.732.111-1.247-.14-1.765-.7-2.826-.654-1.934-3.823.369-2.979-.281-1.421.172-1.887.169-2.074-.123-2.668-.7-1.106,1.389-1.546,1.857-1.933,2.074-1.747,1.17-2.044,1.2-.826.369-2.185,1.4-2.1,1.2" transform="translate(-8613.754 -14819.51)" fill="#039286" stroke="#fff" stroke-linecap="square" stroke-linejoin="bevel" stroke-width="1" fill-rule="evenodd"/>
      <text id="Osmanabad" transform="translate(-7138.513 -13536.463)" fill="#fff" font-size="16" font-family="Noto Sans Devanagari" font-weight="700"><tspan x="0" y="0">Osmanabad</tspan></text>
    </g>
    <g id="_2" data-name="2">
      <path id="2" data-name="2" d="M1467.7,1275.922l-.187-1.887-1.044-1.215-2.48-3.228-1.2-1.265-1.2-1.186-.24-1.283-.233-1.091-.687-1.92-.578-2.137-.437-1.794-.592-1.591-.843-1.123-.716-.7-.75-.439-1-.422-.983-.577-1.311-.343-.935.031-1.352.188-1.263.246-1.092.468-1.091.484-1.4.45-1.888-.794-2.745-.468-2.386-1.2-1.2-.78-1.6-1.309-1.122-1.343-.672-.343-1.81.109,2.777-3.479.655-2.513,1.389-.016,1.45-1.341,1.6-2.248.888-1.8.344-.935,1.217-.375,1.077.064.86.967,1.106.872,1.25.484.342.063.967-.422.8-.093,2.728-.391,1.03-.935.343-1.248.233-.716.078-.594-1.229.123-.748-.109-.812-.562.935-2.335-.483-.92-.156-.64.141-.827.172-1.154.141-.672.279-1.352,1.514-.048,1.481.109,1,.2.763.2,2.652.328,1.186.313.951.06.64-.03.53-.109.547-1.059.78-1.047.422-.764.246-.591-.108-.484-.625-1.076-.748-1.466-1.03-1.342-.406-.766-.7-.827.032-5.475.359-1.078,1.029-3.025,1.467-2.558v-1.5l.764-.22.515-3.634.093-2.356.094-.764.016-.75-.344-.422-1.466-.093-1.732-.359-.89-.155-.764-.312-3.979-1.229-1.091-.375-.968-.295-.405-.123.343-1.328.14-.591.094-.64.236-.748.077-5.258-1.046.614-.546-.3-.672-.888-1.185-2.356-.468-2.122-.5-1.825-1.046-2.963-.655-1.483-.3-.78.123-.594,1.2-.455,1.311-.388.687-.217.56-.391-.312-.779-.358-.391.078-.369.716-.123.983-.063.78-.452.874-.5,1.091-.639.531-.546,1.25-.952,1.293-.671.968-.359.7-.233-.047-.594.123-.468.14-.452.123-2.979.369-1.093.173-.764.687-.187.246-.594-.031-1.31.468-1.046.64-.047.7.156.345.375.419.387.906.719.3.235.592-.123.624-.123.531-.047.983-.047.592.42.78.312h.748l1.545.188.452.311.359.764.406.547.607.872v.921l.047.452.172.452.188.328.017.407-.235.39-.407.28-.343.328-.123.327-.095.562.14.686.155.922-.155,1.339v.484l.28.468.187.624.405.608.359.531.624.187h.545l1.091.061.687.064.576-.111.436-.737.686-.639.656-.264.7-.312.953-.3,1.029-.369,1.279-.141,1.45-.3.515-.9.578-.531.716-.436.906-.187.655-.048.4.172.737.812.78.219.281.56.217.764.232.671-.2.951-.4.369-.267.217-1.076.546-1.013.843-.3.608-.234.514-.405.484-.359.39-.344.467-.264.453-.094.5.079.42.246.187.624.062.5.111.171.328.406.86.437.546.623.312.484.219.936.265.95.016.563-.109.766-.2,1.09-.562.64-.188.032-.594-.235-.748-.327-1.106-.281-1.825-.048-.764.141-.737.2-.655.218-.375.407-.7.872-.045.874.2.935.3,1.046.265.78.246,2.106.686.827.451.5.281.217.281.327.608.172,1.075.2.812.109.171.077.189.514-.219.484-.157.375.017.452.093.422.188.267.2.343.469.077.327.2.737.092.5.048.563.171.639.423,1.561.562.86.737.467,1.39.392.716-.031,1.093-.219.718-.267,1.73-.53.794.03.86.156.89-.079.544-.14,2.029-1.513,1.342-.827,1.093-.578,1.248-.607.9-.594.89-.3.983-.032.45.328.614.562.576.281.624-.109.592-.265.748.111,2.089.156,1.063-.531,1.592-.313,1.855.188,1.466.233.843.359,1.014.391,3.712.608.187,1.326.079.719.265,1.075-.063,2.917.186,1.294.047.9.328.531.343.5.171.062.548.108.452-.531.281-.279.528-.047.764-.407.233-.246.375-.843-.312-.7-.4-.578-.407-1-.123-.874.312-1.746.156-.952.547-2.434,1.777.111,1.6.436,1.576.031.8.14,1.217.358,1.669.654.53-.045.737-.344.5-.109v1.577l.094.3.843.077.592-.048.639-.062.764-.032.5.017.623.015.983.39.546.312,1.029.36.547-.123,1.061-.172,2.777-.14,1.093.344.56.281.468.171.359.187.328.123.5-.109.966-.219.483-.063.953-.3,1.2-.423.141.626.108.64.077,1.2-.015,1.016.111.311.466.236.484.17.687.2,2.826.8.8.279.515.157.563.172.5.109-.246,2.76-.407.86-.594.5-.328.615-.264,1.012-.406,1.638.141,3.011-.123,1.653-.328.265-.779.2-.737.246-.655.123-.748.046-.737.048-.89.123-.359.17-.2.86.531,1.826.265.967.078,1-.108.935-.032.874-.295,1.482.187.78,1.2.219.4.187-.094.388-.345.187-.685.748-.562,1.352-.235.614-.079.453.246.246.875.062.032.515.077.311.39.515.737.328,1.093.452,1.014.359.716,1.685.123.615-.187.295-.812.047-.514.14-.528.14-.375.156-.095.514.2.968.423,1.7.7,3.152.235,1.389.14,1.81-.093,1.825.28.78.329,3.556-.453-.312-.8-.483-.576-.687-.888-.437-.968-.217-.718-.172-1.341-.173-.86-.139-1.247-.8-1.4-.468-1.03-.235-.8-.235-1.014-.246-.935.095-.615.219-.64.3-.436.391-.435.737-.219.452-.265.455.109,1.434-.391.737-.422.546-.188.656-.172,1.061-.39.86-.155.531-.3.8-.614.843-1.59,1.966-.687.795-.436.56-.485.453-.575.5-.594-.764-2.184-1.669-1.047-.312-1.352-.391-1.03-.437-1.278-1.294-.532-.594-.14,2.949-.343.484-.531.406-.594.95-.718,1-.7,2.792-2.089-.246-1.81-.64-1.249-.358-.562-.547-1.513-.936-2.9-.123-4.711-.016-.86.42-.719.048-.86-.108-.575-.718-.407-.843-.737-1.434-1.481-.188-2.808-.063-.89-.141-2.261-.343-1.218-.281-1.2-.235-.515-.28-.92-2.62-.842-1.578-.421-1-.123-.67-.422-.86-.4-.889-.5.031-.828.436-.671.359-1.013.512-1.062.469-1.949.2-2.793.172-1.59-.172-2.262-.469-1.278-.2-2.325-.31-.437-.063-.077,1.6-.094,1.074-.233,1.828-.546,1.342-.156,1.154-.063.219-.017,1.4-.528,1.123-1.358,1.5-1.154.844-.53.716-.718,1.093-.281,1.046-.405,1.029-.172,3.76.452.514.562.079h.671l.624.671-.108.967-.283.9-.265.468-.437.563.672.515.3.327.452.327-.235.548-.108.614-.092.778-.922.641-.737-.423-2.458-.14-.7,1.326-2.168.093-3.564.14-1.73.369-.576.3-.656.156-.484-.173-.7-.466-.592-.369-.967-.563-.8-.452-.86-.246-.8.369-1,.453-.234.594.484.56.4.311.3.467.279.547.246.718-.219.781-.156,2.448-.095.469-.139.235-.406.233-1.28-.031-.591.123-.246.295-.388.766.016.359-.579.419-.78.687-1.371,1.17-.312.188-.5.5-.4.514-.141.639-.951.828-1.124.841" transform="translate(-8627.011 -14847.635)" fill="#039286" stroke="#fff" stroke-linecap="square" stroke-linejoin="bevel" stroke-width="1" fill-rule="evenodd"/>
      <text id="Kalamb" transform="translate(-7141.03 -13634.194)" fill="#fff" font-size="16" font-family="Noto Sans Devanagari" font-weight="700"><tspan x="0" y="0">Kalamb</tspan></text>
    </g>
    <g id="_8" data-name="8">
      <path id="8" data-name="8" d="M1457.358,1254.869l-.9-.311-1.229-.173-1.545-.077-2,.14-1.154-.064-.843-.311-.391-.544-.14-.891-.047-1.029-.624-.531-1.419-.436-.983-.888-1.343-.92-.187-.359.063-.766.063-.67-.032-.577-.3-.5-.607-.392-.92-.216-.983-.312-.779-1.67-.219-1.591-.077-.92-.369-1.106-.515-1.387-.265-1.934V1235l-.094-1.513-2.417-.343.218-1.2-.108-1.123.515-.766.737-.56,1.31-.843.516-.094.391-.016-.093-.246-.782-.109-.032-.484.017-.623.422-.562.093-.407-.048-.592-.452-.405-.7-.047-.078-.453-.094-.718-.123-1.279-1.078-1.483-1.31-1.574-1.825-1.825-.781-.11-1.138-.03-1.265.063-1.777-.5-2.089,1.543-.953.592-.9.219-1.326.156-1.263-.156-1.106-1.918-.156-.5-.17-.5-.205-.718-.578-1.389-.2-.358-.359-.673.047-.53.032-.265.369-.422.187-.246.233-.719.718-1.014.671-.655.751-.265-.235-.312-.468-.7-.9-1.091,1.123-.889.047-.123.3-.3.095-.483.156-.5-.422-1.98-.22-.592-.218-.766-.453-.5-.061-.919.015-.484-.109-.39-.246-.281-.187-.342v-.233l.295-.172.359.047.39.093.359.468,1.156-.671.56-.264.343-.369.2-.5.2-.375.4-.186.614.2,1.014-.577.329-.28.327-.3.4-.467.641-.516.951-.217.779-.614-1.265-.936-2.605-1.575-1.387-.827-.468-.607-.422-.484-.311-.531-.562.123-1.155.407-.406.515-.516.686-.369.763-.369.375-.327-.031-.405-.246-.437-.391-.468-.406-.5-.42-.639.016-1.123.484-.983.234-.983.312-.576.406-.687.468-.343.513-.123.423-.013.737-.2.407-.343.217-.265.047-.344.2-.328.139-.217-.078-.031-.466-.483-1.125-.3-.141h-.608l-.467.015-.142-.405.188-1.809.265-.625.109-.684.063-.938-.483-.436-1.559-.123-.936.031-.369.515-.719.123-.842-.592-.155-.11-.095-.123-.246-.2.031-.312.2-.281.39-.063.563-.219-.235-.2-.891.047-.5-.031-.5.5-.687.344-.5.047h-.357l-.2-.218-.093-.407-.063-1.062-.576-.246-.7-.3-.42-.2-.515-.141-.437.219-.187.592-.42.608-.328.369-.422.265.016.328.312.423-.171.311-1.091-.265-.42-.246-1.106-.172-.8-.281-.8-.281-.375.843-.452.2-.686.369-.86.484-.624.328-.047-.53.032-.39-.279-.484.107-3.34-.123-.369-.312-.5-.64-.42-.186-.095-.484-.172-.468-.265-.048-.217.187-.328.516-.436.265-.422.515-.233.716-.048.688-.061.172-.406-.031-.437-.329-.515.189-1.4.639-.359,1.229-.687,2.308-.7.171-2.106-.312-.562-.369-1.124,3.056.2.952.359.422.047.716.047,1.076-.092-.048-.89.064-.9.109-.547.186-.671-.359-.529-.063-1.2.08-.654.187-.468v-.578l.047-.716.079-.983.263-.5.265-.436.843-1.077.123-.687.016-.187.094-.28.2-.236.172-.358-.093-.375.123-.094.2-.123.2.109.063.245.123.187.172.14.109-.015.311-.265.625-.437.531-.063.265-.123.169-.172.235-.233.36-.453.092-.452.016-.578-.219-.592-.171-.422-.109-.36-.032-.369-.032-.405-.108-.547-.173-.546v-.484l-.139-2.808.28-1.248.22-1.2.514-2.388.36-1.668.484.063.919.264,1.265.079,5.161.14,1.7.219,2.043.391,1.154,1.03,1.72,1.013,1.015.515.952.515.748.281.737.369.7.421.951.312.295-.437.281-.436.328-.437.592-.2.936-.376,1.352-.187.86-.22.766-.359.639-.156.219.438.405.615.515.245.625.015.421.015.311.017.469-.329.655-.123.546.265.75.391.123.369.936,1.2.686.547.827.546.827.53.56.246.2-.842.048-.671.311-.246.781.281.265.264.216.515.578-.032-.03.624-.017.344-.063.422-.016.312.7.343.369.343.188.313.919,1.467.78.794.794.123.592.063.313-.078.3-1.123.376-1.546.281-1.31.312-.89.482-1.351.764-.031.828.045.763.2.64.422.235.437.3.576,1.169.094,2.918.078.264.656.233.439.246.622.188.344.562.219.64.015.546-.328.369-.233.313.484.513.246.281.094.7.246,1.045.562,2.278.483.936.842.4-.109.515-.844.86-.528.563-.077.562.219-.188.684-.28.672-.123.531-.077.623-.047.484.078.467.344.172.918-.123.7-.187.936-.3.543-.39.265-.2.375-.155,1.154-.359.406.063-.094,1.09v.531l.172.328,1.359.246.763.188.592.187.579-.123.577-.312.369-.235.515-.03.531.187.531.172,1.044-.625,2.481-.219h1.326l.983.359.75.3-.468,1.046.031,1.311-.246.594-.687.186-.172.764-.369,1.093-.123,2.979-.14.452-.123.469.048.594-.7.232-.967.359-1.294.671-1.249.952-.531.546-1.092.639-.874.5-.78.452-.983.064-.719.123-.077.369.359.39.312.781-.562.39-.687.219-1.31.389-1.2.453-.123.594.3.78.655,1.481,1.044,2.964.5,1.825.467,2.121,1.186,2.356.672.889.546.3,1.046-.608-.079,5.257-.232.748-.095.639-.14.592-.344,1.327.406.123.967.3,1.093.369,3.976,1.229.766.313.887.154,1.733.359,1.466.093.344.422-.015.748-.095.763-.094,2.356-.516,3.635-.763.219v1.5l-1.466,2.558-1.031,3.026-.358,1.078-.031,5.474.7.827.406.766,1.03,1.341.748,1.466.624,1.077.109.484-.246.591-.422.764-.779,1.046-.547,1.06-.53.108-.639.032-.951-.064-1.186-.312-2.652-.328-.764-.2-1-.2-1.482-.11-1.511.048-.281,1.352-.139.671-.172,1.154-.141.827.157.64.484.919-.938,2.335.814.562.748.108,1.229-.123-.077.593-.235.718-.343,1.249-1.029.936-2.73.388-.8.094-.966.423-.344-.063-1.25-.484-1.106-.874-.86-.968-1.076-.061-1.217.375-.344.935-.888,1.8-1.59,2.246-1.451,1.342-1.39.016-.655,2.51-2.777,3.478" transform="translate(-8651.764 -14853.107)" fill="#039286" stroke="#fff" stroke-linecap="square" stroke-linejoin="bevel" stroke-width="1" fill-rule="evenodd"/>
      <text id="Washi" transform="translate(-7222.595 -13642.844)" fill="#fff" font-size="16" font-family="Noto Sans Devanagari" font-weight="700"><tspan x="0" y="0">Washi</tspan></text>
    </g>
  </g>
</svg>
