<svg xmlns="http://www.w3.org/2000/svg" width="154.149" height="38" viewBox="0 0 154.149 38">
  <g id="Shikshan_Darpan_White_Logo" data-name="Shikshan Darpan White Logo" transform="translate(-45 -17.546)">
    <g id="Group_16643" data-name="Group 16643" transform="translate(118.149 27.288)">
      <text id="शिक्षण_दर्पण" data-name="शिक्षण दर्पण" transform="translate(0 16)" fill="#fff" font-size="15" font-family="Poppins-Bold, Poppins" font-weight="700"><tspan x="0" y="0">शिक्षण दर्पण</tspan></text>
    </g>
    <g id="Group_16817" data-name="Group 16817" transform="translate(45 17.546)">
      <path id="Subtraction_7" data-name="Subtraction 7" d="M-2017.161,1278.865h0a.014.014,0,0,0,0-.009c-4.231-8.383-14.153-12.192-21.73-13.909a5.337,5.337,0,0,1-.109-1.289,21.506,21.506,0,0,1,1.7-8.427,21.569,21.569,0,0,1,4.64-6.882,21.58,21.58,0,0,1,6.882-4.64,21.524,21.524,0,0,1,8.428-1.7,21.511,21.511,0,0,1,8.428,1.7,21.568,21.568,0,0,1,6.882,4.64,21.567,21.567,0,0,1,4.64,6.882,21.516,21.516,0,0,1,1.7,8.427,7.108,7.108,0,0,1-.13,1.383c-7.425,1.741-17.151,5.551-21.323,13.816A.022.022,0,0,0-2017.161,1278.865Zm1.215-27.878h0a97.1,97.1,0,0,1,.4,11.339,101.494,101.494,0,0,1-.9,11.313c.133-.254.253-.522.36-.76l.007-.017c.1-.219.2-.445.313-.665a26.1,26.1,0,0,1,6.729-8.186,43.161,43.161,0,0,1,6.208-4.291c.019-.011.041-.021.059-.029h0c.088-.04.18-.082.119-.235-.313.089-.623.181-.915.268l-.011,0a22.338,22.338,0,0,1-3.442.826,8.729,8.729,0,0,1-1.129.076,5.564,5.564,0,0,1-4.973-2.745,22.282,22.282,0,0,1-2.371-5.6c-.042-.131-.073-.269-.1-.39a2.312,2.312,0,0,0-.352-.9Zm-15.351,8.539a.287.287,0,0,0-.131.03,43.877,43.877,0,0,1,7.92,5.756,25.029,25.029,0,0,1,5.777,7.935,107.226,107.226,0,0,1-.824-11.11,96.474,96.474,0,0,1,.405-11.131,1.836,1.836,0,0,0-.159.417l-.006.022a25.843,25.843,0,0,1-2.394,6.123,6.506,6.506,0,0,1-2.191,2.31,5.636,5.636,0,0,1-2.956.776,7.988,7.988,0,0,1-.939-.058,21.39,21.39,0,0,1-4.087-.934c-.045-.015-.09-.035-.134-.054l-.006,0a.718.718,0,0,0-.276-.083Zm21.944-6.12a2.7,2.7,0,0,0-2.7,2.7,2.7,2.7,0,0,0,2.7,2.7,2.7,2.7,0,0,0,2.7-2.7,2.7,2.7,0,0,0-2.7-2.7Zm-15.421,0a2.7,2.7,0,0,0-2.7,2.7,2.7,2.7,0,0,0,2.7,2.7,2.7,2.7,0,0,0,2.7-2.7,2.7,2.7,0,0,0-2.7-2.7Zm7.486-4.7h0l1.727,1.207-.6-2.041,1.665-1.294-2.1-.054-.7-2.007-.7,2.007-2.1.054,1.665,1.294-.6,2.041,1.727-1.207Z" transform="translate(2048.946 -1242.007)" fill="#fff"/>
      <path id="Union_8" data-name="Union 8" d="M-2028.211,1249.625c9.556-6.883,19.925-8.564,30.932-7.184a32.426,32.426,0,0,1-2.429,6,1.47,1.47,0,0,1-.237-.056,39.225,39.225,0,0,0-17.207-1.3,54.492,54.492,0,0,0-10.1,2.4,1.781,1.781,0,0,1-.658.174A1.315,1.315,0,0,1-2028.211,1249.625Zm-1.6-.139a54.493,54.493,0,0,0-10.1-2.4,39.228,39.228,0,0,0-17.208,1.3,1.118,1.118,0,0,1-.465.061,32.44,32.44,0,0,1-2.424-5.981c11.09-1.43,21.534.227,31.155,7.156a1.319,1.319,0,0,1-.3.037,1.776,1.776,0,0,1-.658-.173Z" transform="translate(2060.002 -1211.662)" fill="#fff"/>
      <path id="Union_9" data-name="Union 9" d="M29.147,15.095c0,.057-.22.2-.22.2A35.658,35.658,0,0,0,1,6.97,29.935,29.935,0,0,1,0,0C1.4.1,22.46,1.843,29.142,15.082a.007.007,0,1,0,.01,0C35.834,1.843,56.893.1,58.294,0a29.938,29.938,0,0,1-1,6.97A35.658,35.658,0,0,0,29.367,15.3S29.148,15.152,29.147,15.095Z" transform="translate(2.839 21.763)" fill="#f5a63a"/>
    </g>
  </g>
</svg>
