<svg width="174" height="39" viewBox="0 0 174 39" fill="none" xmlns="http://www.w3.org/2000/svg">
<path fill-rule="evenodd" clip-rule="evenodd" d="M154.719 12.7285L158.649 12.7441C158.777 14.7486 158.8 16.7578 158.719 18.7646C158.466 20.1806 156.53 20.8655 154.649 20.6465L154.719 12.7285ZM146.073 12.7285C146.227 14.2535 146.26 15.7891 146.173 17.3193C146.148 17.9157 145.94 18.4892 145.575 18.9619C145.211 19.4346 144.708 19.7828 144.138 19.958C141.893 20.575 142.468 19.0177 142.468 17.3057C142.468 15.8317 142.398 14.1905 142.496 12.7305L146.073 12.7285ZM123.073 12.6289L132.926 12.6699C133.156 13.4911 133.133 14.363 132.856 15.1699C131.056 15.3239 127.13 14.8745 125.726 15.3945C125.165 16.2225 123.271 17.4584 122.934 19.7324C122.624 21.7954 124.378 23.4789 125.319 24.5449C127.635 27.1449 130.19 29.4154 135.354 27.8994C136.197 28.5874 136.898 29.6989 137.993 30.1309C137.642 28.8669 136.619 28.2219 136.141 27.2949C136.815 26.6069 137.811 25.1065 137.179 23.6475C136.471 22.5846 135.668 21.588 134.779 20.6709C133.46 19.4909 132.604 19.3939 131.299 20.6709C129.951 21.9899 131.735 22.9589 132.071 24.1709C129.853 24.6189 128.422 24.8586 126.316 23.9316C126.204 21.9946 128.239 19.6229 129.039 19.1729C129.755 18.7679 135.116 18.8371 136.239 19.2861L136.281 12.7314H139.004C139.804 16.7044 137.053 17.1805 142.217 21.9395C142.791 22.4354 143.407 22.8814 144.057 23.2725C144.757 23.6655 145.98 23.749 146.401 24.085C146.737 24.365 147.301 25.3478 147.791 25.8398C148.324 26.3718 148.691 27.0458 149.491 27.2988L149.561 12.7871L151.218 12.7305C151.765 16.5475 150.347 17.7963 152.298 20.2393C153.308 21.5023 155.175 23.8036 156.929 24.3086C159.554 25.0796 162.206 24.0276 162.15 21.3896C161.977 18.5099 161.986 15.6227 162.178 12.7441L164.451 12.7158C164.803 14.4848 164.551 19.8165 164.551 21.9385C164.551 25.4745 164.467 24.5059 166.474 27.0449C166.833 27.5397 167.331 27.9162 167.905 28.126L167.932 12.7725L173.351 12.7148C173.051 11.5928 171.61 9.85241 171.051 8.94141C166.868 8.54741 149.086 9.47252 147.092 8.72852C146.082 5.01052 152.805 6.10476 154.657 5.05176C154.966 3.26976 153.52 2.07743 152.457 0.94043C152.137 0.503966 151.691 0.17548 151.18 0C151.517 1.517 151.781 1.6852 148.557 1.8252C147.139 1.8812 145.556 1.99264 144.626 2.80664C142.001 5.09464 144.963 7.27012 146.026 8.87012L121.002 8.88379C121.232 9.89479 122.411 12.2669 123.07 12.6309L123.073 12.6289Z" fill="white"/>
<path fill-rule="evenodd" clip-rule="evenodd" d="M85.176 23.0862C85.2124 22.4864 85.4098 21.9069 85.7483 21.4104C86.0868 20.914 86.5538 20.5188 87.0989 20.2659C86.5229 21.5149 86.7755 21.4583 87.1985 22.4963C86.9265 22.7391 86.6042 22.9188 86.2542 23.0208C85.9041 23.1227 85.5358 23.145 85.176 23.0862ZM103.968 12.8264L107.7 12.842C107.9 18.287 108.641 21.3417 103.954 21.0237L103.968 12.8264ZM85.8215 15.6194C85.9047 14.8769 86.1918 14.1719 86.6506 13.5823C87.1095 12.9927 87.7228 12.5415 88.4221 12.2786C88.507 13.0641 88.2833 13.8522 87.7981 14.4758C87.313 15.0994 86.6038 15.5085 85.8215 15.6194ZM84.6995 16.0686C84.0232 16.2712 83.4098 16.6409 82.9143 17.1438C82.4188 17.6467 82.0572 18.2664 81.8645 18.9456C81.0645 21.8506 83.8995 24.6311 85.9905 26.0061C86.601 26.5146 87.3511 26.8278 88.1419 26.9055C88.9326 26.9833 89.7281 26.8215 90.426 26.4417C91.549 27.3417 93.093 29.7414 94.426 30.2024C94.285 29.2344 91.7738 26.5261 91.1848 25.8391C91.8438 24.0281 92.3912 24.0133 90.9592 22.3293C90.2111 21.299 89.2668 20.427 88.1809 19.762C89.2049 19.551 89.681 19.1438 90.426 18.9758C91.984 20.4628 92.5024 22.1476 95.4504 22.4846C95.5054 24.3086 95.5621 24.3799 96.5461 25.4739C97.3031 26.3009 97.7103 27.088 98.8323 27.551L98.8469 12.8987L100.573 12.8567C100.615 14.2877 100.588 15.7203 100.588 17.1243C100.588 19.1033 100.322 19.4237 101.288 20.7297C102.34 22.1197 104.011 24.0561 106.073 24.6731C108.487 25.4031 111.196 24.7005 111.112 21.5725C111.028 18.7925 111.028 15.6914 111.112 12.9124L114.073 12.8127C114.156 16.1387 114.088 19.5492 114.088 22.8762C114.088 24.9952 113.736 25.6122 114.832 27.0452C115.225 27.5642 116.572 29.3596 117.455 29.5276L117.47 12.8274H121.119C120.886 11.7479 120.448 10.7238 119.828 9.80982C119.128 8.60282 118.128 8.99634 116.417 8.99634C107.982 9.01034 98.4391 8.79699 90.2571 9.01099C90.6297 10.3734 91.2388 11.6594 92.0569 12.8108L95.4573 12.8391C95.5963 16.1791 96.145 19.1961 91.092 18.4241C91.345 17.4131 91.9476 16.8525 91.8206 15.4905C91.5966 13.0905 88.6921 9.69117 87.1751 8.67017C85.0561 7.23817 80.9855 10.7746 82.9915 13.7786C83.5765 14.6656 84.4745 15.5496 84.6975 16.0696L84.6995 16.0686Z" fill="white"/>
<path fill-rule="evenodd" clip-rule="evenodd" d="M58.8468 8.95258C58.4118 8.09758 58.0758 8.19408 58.6368 6.89008C59.5918 4.67108 63.0442 4.53359 65.1212 4.91059C66.9882 5.24859 71.5072 8.04157 72.4332 8.99457L58.8468 8.95258ZM57.6823 8.93598L51.816 9.00629C52.0818 10.0039 52.4682 10.9656 52.9669 11.8696C53.7669 13.3036 54.3283 12.6996 56.2233 12.8696C56.3353 15.8326 56.2509 18.961 56.2369 21.935C56.2369 24.14 56.0539 24.2647 57.2369 25.6127C57.8621 26.491 58.6475 27.2439 59.5519 27.8305L59.5939 12.8422H68.2941L68.3649 14.2426L61.7272 14.269C62.4097 15.5613 63.3118 16.7254 64.3932 17.7084C65.4042 18.4374 68.8422 18.0577 70.3722 18.0707C70.5552 20.3867 67.8308 22.3949 65.7408 22.7309C64.8408 21.7779 62.19 17.1591 60.674 18.9711C59.874 21.5531 63.8182 25.215 65.2072 26.184C66.0352 26.76 66.7071 26.6201 67.3121 27.0551C67.8277 27.528 68.3018 28.0442 68.7291 28.5981C69.6291 29.6211 70.7358 30.5361 71.8448 31.5981C78.6938 38.0981 83.564 32.9731 81.964 30.3891C81.1719 29.2173 80.1677 28.2036 79.0031 27.4008C78.7501 29.0298 78.5683 29.6882 77.4313 30.3012C76.2008 30.9138 74.7909 31.0635 73.4591 30.7231C71.7471 30.3441 68.8419 27.4944 68.3649 26.7524C69.7399 26.1334 73.74 25.3204 73.838 21.5454C73.856 20.1086 73.3752 18.71 72.4772 17.5883C71.9442 16.8583 71.6909 16.8282 71.6769 15.6372C71.6769 14.7092 71.6772 13.7702 71.7052 12.8422L76.6051 12.8286C76.6611 15.6916 76.6331 18.5824 76.6051 21.3754C76.5911 23.5804 77.1522 24.0567 78.7052 25.6557C79.0277 26.0955 79.4788 26.4247 79.9962 26.5971V12.8139L81.2731 12.8002C80.8447 11.932 80.3221 11.113 79.715 10.3588C78.733 8.96783 79.0828 9.01121 76.9918 8.96821C78.3918 5.59921 73.8621 1.92336 73.2311 1.75336C73.3851 2.59736 74.7193 4.52079 73.4313 5.31879C70.5953 7.05879 66.4832 2.45641 63.2692 1.37641C57.4162 -0.574591 53.4449 3.24321 55.4689 6.21821C56.1466 7.17175 56.8862 8.07879 57.6823 8.93598Z" fill="white"/>
<path fill-rule="evenodd" clip-rule="evenodd" d="M19.2833 10.2158C22.1043 9.57079 22.848 13.9067 20.294 14.5107C20.0089 14.586 19.7119 14.603 19.42 14.5615C19.1281 14.52 18.8471 14.4203 18.5943 14.2685C18.3415 14.1168 18.1217 13.9158 17.9478 13.6777C17.774 13.4396 17.6496 13.1698 17.5821 12.8828C17.5145 12.5958 17.5054 12.2975 17.5547 12.0068C17.6041 11.7161 17.7111 11.438 17.8697 11.1894C18.0282 10.9408 18.2348 10.7269 18.4776 10.5595C18.7203 10.3922 18.9945 10.2756 19.2833 10.2158ZM25.7671 0.771454H25.8091C28.2468 0.754028 30.6619 1.23922 32.9039 2.19626C35.1458 3.1533 37.1668 4.56155 38.8404 6.33395C40.514 8.10636 41.8044 10.2049 42.6314 12.498C43.4584 14.7911 43.8041 17.2294 43.647 19.6621C41.836 20.2621 39.8721 20.6163 38.0191 21.3623C36.3266 22.0219 34.6847 22.8048 33.107 23.705C30.371 25.333 27.268 28.0282 25.921 31.0322C25.542 30.6532 24.8548 29.3907 24.4048 28.8017C21.6958 25.1657 17.8499 22.9343 13.6119 21.3203C12.7979 21.0263 8.36324 19.7624 8.13824 19.6084C7.91828 18.2368 7.96579 16.8357 8.27887 15.4824C8.72436 12.9429 9.71531 10.53 11.1827 8.41013C12.65 6.29021 14.559 4.51335 16.7789 3.20212C17.2699 2.90712 17.7791 2.69598 18.2671 2.45798C20.5954 1.30046 23.1675 0.72223 25.7671 0.771454ZM32.1671 10.1884C35.0161 9.85145 35.5502 14.1747 32.7432 14.5527C32.4567 14.5905 32.1655 14.5718 31.8863 14.497C31.6071 14.4223 31.3451 14.293 31.1158 14.1172C30.8864 13.9413 30.694 13.7219 30.5494 13.4716C30.4048 13.2214 30.3108 12.9447 30.273 12.6582C30.2352 12.3716 30.2544 12.0809 30.3292 11.8017C30.4039 11.5225 30.5327 11.2606 30.7086 11.0312C30.8844 10.8019 31.1038 10.6094 31.3541 10.4648C31.6043 10.3202 31.8805 10.2263 32.1671 10.1884ZM25.4171 26.2881C23.5956 22.6999 20.9026 19.6269 17.585 17.3496C17.22 17.0826 14.5668 15.2995 14.3008 15.2295C14.9888 15.2575 16.8831 15.9452 18.0211 16.0722C21.1501 16.4362 22.621 14.6545 23.775 12.1425C24.253 11.1185 24.6313 9.36345 25.0943 8.56345C25.1223 9.91145 24.9112 11.5247 24.8692 12.9277C24.7616 15.9884 24.8228 19.0524 25.0523 22.1064C25.1223 22.9884 25.5151 25.7241 25.4161 26.2861L25.4171 26.2881ZM27.045 8.45016C27.645 9.30616 28.3638 13.4889 30.2588 15.0049C32.9118 17.1239 34.9471 15.6788 37.8941 15.1728C37.4451 15.6788 35.3111 16.829 34.5821 17.372C27.6631 22.565 27.8171 25.1207 26.6241 26.4677C26.8771 21.0087 27.4801 19.0845 27.2701 12.8965C27.2271 11.5075 26.988 9.75221 27.044 8.44821L27.045 8.45016ZM24.9542 7.05954C25.0112 5.02554 26.1049 6.3868 23.9859 4.5488H25.6563L26.0909 3.15817C26.6239 3.55117 26.1909 3.4528 26.7789 4.5488H28.3082C27.9636 4.96057 27.5322 5.29089 27.045 5.51657C27.171 6.03657 27.3399 6.51654 27.4659 7.05954C26.9897 6.88035 26.562 6.59254 26.2169 6.21872C25.8137 6.52245 25.3936 6.80245 24.9581 7.05759L24.9542 7.05954Z" fill="white"/>
<path fill-rule="evenodd" clip-rule="evenodd" d="M43.647 19.6611C41.836 20.2611 39.872 20.6163 38.019 21.3613C36.3265 22.0213 34.6846 22.8045 33.1069 23.7051C30.3699 25.3341 27.2689 28.0273 25.9209 31.0312C25.5419 30.6522 24.854 29.3878 24.405 28.7988C21.697 25.1658 17.851 22.9343 13.613 21.3203C12.799 21.0253 8.3639 19.7614 8.1389 19.6074C7.6619 19.5934 2.77782 18.527 2.08982 18.666C1.68282 18.752 1.93593 18.695 1.94993 19.875C2.09911 21.42 2.33275 22.9552 2.64988 24.4746C5.33088 24.4196 5.86399 23.887 9.86399 24.375C15.3057 24.9981 20.464 27.1328 24.7549 30.5371C26.5089 31.9261 25.2319 31.3367 30.2849 28.2637C32.8245 26.7659 35.5796 25.6679 38.4531 25.0078C41.9319 24.1786 45.5336 23.997 49.0781 24.4727C49.5457 22.5535 49.8275 20.5942 49.9199 18.6211C48.9509 18.6481 47.6737 18.916 46.7197 19.041C45.5837 19.2 44.756 19.4521 43.647 19.6611Z" fill="#32BAAE"/>
<path fill-rule="evenodd" clip-rule="evenodd" d="M0 26.0195C0.07 26.8045 1.67006 31.0293 2.09106 31.0293C2.91906 31.0293 6.27399 29.6406 11.438 29.6406C15.7192 29.6464 19.9723 30.3328 24.0381 31.6738C24.5372 31.8085 25.029 31.9679 25.512 32.1523C25.358 31.5523 24.586 31.2673 23.812 30.7773C21.8849 29.5279 19.8168 28.5102 17.6509 27.7461C12.3739 25.9611 10.4371 25.7383 4.59912 25.7383C2.87712 25.7383 1.572 26.0195 0 26.0195Z" fill="white"/>
<path fill-rule="evenodd" clip-rule="evenodd" d="M26.217 32.0117C27.803 32.0117 35.3821 28.3492 45.4451 30.0742C46.1041 30.1872 46.8342 30.3281 47.5222 30.4961C48.2141 30.727 48.9221 30.9054 49.6409 31.0293C50.4887 29.4431 51.1439 27.7614 51.592 26.0195C50.244 26.0195 49.1771 25.7383 47.6921 25.7383C42.6681 25.7383 38.7518 25.8655 34.1628 27.6895C32.2798 28.4385 27.157 30.7207 26.217 32.0117Z" fill="white"/>
<path d="M87.142 33.5269V32.853H87.8705C87.7411 32.6663 87.6641 32.4487 87.6469 32.2222C87.6498 32.0444 87.6914 31.8684 87.7689 31.7085C87.8465 31.5486 87.9583 31.4088 88.0961 31.2964C88.408 31.042 88.8001 30.9058 89.2025 30.9155C89.7541 30.9126 90.2917 31.0921 90.7328 31.4233C91.1977 31.7573 91.5472 32.2275 91.7328 32.769H91.0326C90.8755 32.4196 90.6169 32.1262 90.2894 31.9272C89.9711 31.7099 89.5928 31.5971 89.2074 31.605C89.0007 31.5968 88.7974 31.6608 88.6332 31.7866C88.5603 31.8337 88.4999 31.898 88.4584 31.9741C88.4168 32.0503 88.3951 32.1354 88.3949 32.2222C88.3943 32.3319 88.4126 32.4411 88.4496 32.5444C88.4948 32.6531 88.5514 32.7563 88.6185 32.853H89.348V33.5269H88.6039V37.4565H87.8754V33.5269H87.142ZM89.1635 33.5269V32.853H94.974V33.5269H94.2435V37.4565H93.5004V35.0288H92.5883C92.7043 35.214 92.7672 35.4275 92.7709 35.646C92.7738 35.8021 92.7429 35.9562 92.6801 36.0991C92.6172 36.2421 92.5236 36.3707 92.4066 36.4741C92.1677 36.699 91.8499 36.8204 91.5219 36.812C91.2657 36.8047 91.0147 36.7391 90.7865 36.6226C90.5583 36.506 90.3585 36.3414 90.2025 36.1382C89.7943 35.6529 89.5278 35.0637 89.431 34.437L90.0638 34.228C90.1389 34.7178 90.326 35.1839 90.6107 35.5894C90.7109 35.743 90.846 35.8718 91.0043 35.9644C91.1626 36.0569 91.3399 36.1107 91.5228 36.1226C91.5908 36.1224 91.6584 36.108 91.7211 36.0815C91.7837 36.0551 91.8405 36.0168 91.8881 35.9683C91.9374 35.927 91.9766 35.8764 92.0033 35.8179C92.0299 35.7594 92.0436 35.6946 92.0424 35.6304C92.0273 35.435 91.9635 35.2466 91.8578 35.0815C91.6957 34.8199 91.5129 34.5716 91.3109 34.3394H93.5004V33.5249L89.1635 33.5269ZM94.7904 33.5269V32.853H98.5521V33.5269H94.7904ZM96.7689 37.4565C96.314 37.2477 95.9116 36.9399 95.5902 36.5562C95.3275 36.2547 95.1734 35.8735 95.1537 35.4741C95.1533 35.3005 95.1911 35.1297 95.264 34.9722C95.3369 34.8146 95.443 34.6741 95.5756 34.562C95.7061 34.4372 95.8601 34.34 96.0287 34.2749C96.1972 34.2099 96.3774 34.1784 96.558 34.1831C96.7478 34.182 96.935 34.2254 97.1049 34.3101C97.2841 34.3759 97.4404 34.4926 97.5541 34.646C97.6783 34.4913 97.8432 34.3749 98.0306 34.3101C98.2251 34.2237 98.4361 34.1804 98.6488 34.1831V34.8569C98.4144 34.8815 98.1993 34.9974 98.0492 35.1792C97.8346 35.4276 97.6679 35.7136 97.558 36.023L96.9681 35.6987C97.0263 35.4844 97.1265 35.284 97.2631 35.1089C97.1862 35.0215 97.0825 34.9624 96.9681 34.9409C96.8381 34.8933 96.7003 34.8693 96.5619 34.8706C96.385 34.867 96.214 34.9338 96.0844 35.0542C96.0244 35.1066 95.9764 35.1707 95.9447 35.2437C95.913 35.3166 95.898 35.3966 95.9008 35.4761C95.9091 35.7753 96.0288 36.0595 96.2367 36.2749C96.4908 36.5396 96.8032 36.7415 97.1488 36.8647L96.7689 37.4565ZM98.3685 33.5269V32.853H102.453V33.5269H101.878V34.5269H100.04C99.9463 34.5267 99.8532 34.5518 99.7719 34.5991C99.7019 34.6401 99.6605 34.6828 99.6605 34.7378C99.6728 34.8271 99.7118 34.9109 99.7719 34.978C99.8702 35.0907 99.9789 35.1937 100.096 35.2866C100.29 35.1992 100.501 35.1559 100.713 35.1597C101.054 35.1554 101.385 35.2694 101.652 35.4819C101.771 35.5752 101.866 35.6935 101.932 35.8296C101.998 35.9656 102.031 36.116 102.031 36.2671C102.029 36.4167 101.985 36.5627 101.905 36.689C101.813 36.8452 101.689 36.9789 101.54 37.0815L101.049 36.689C101.122 36.6296 101.183 36.5583 101.232 36.478C101.27 36.4135 101.294 36.3416 101.302 36.2671C101.303 36.2075 101.288 36.1488 101.258 36.0972C101.228 36.0456 101.185 36.0031 101.133 35.9741C101.01 35.8884 100.863 35.844 100.713 35.8472C100.448 35.842 100.187 35.9204 99.9691 36.0718C99.8738 36.1326 99.7949 36.2159 99.7386 36.314C99.6824 36.412 99.6503 36.5213 99.6459 36.6343C99.6492 36.7978 99.6937 36.9571 99.7748 37.0991C99.8558 37.2411 99.9707 37.3608 100.11 37.4468C100.433 37.6762 100.822 37.7941 101.218 37.7827H102.045V38.4722H101.19C100.611 38.4872 100.045 38.2984 99.5902 37.939C99.3847 37.7895 99.217 37.5943 99.1 37.3687C98.983 37.143 98.9201 36.8943 98.9164 36.6401C98.9142 36.4438 98.9624 36.2497 99.057 36.0776C99.1524 35.9038 99.2865 35.755 99.4496 35.6421C99.297 35.524 99.1647 35.3823 99.057 35.2222C98.9716 35.0717 98.9237 34.9029 98.9164 34.73C98.9181 34.6075 98.9495 34.4859 99.0082 34.3784C99.0669 34.2709 99.1512 34.1805 99.2533 34.1128C99.4838 33.9297 99.7716 33.8351 100.066 33.8452H101.132V33.5347L98.3685 33.5269ZM102.269 33.5269V32.853H104.469V33.5269H103.739V37.4565H103.01V33.5269H102.269ZM106.128 33.5269V32.853H110.311V33.5269H109.582V37.4565H108.838V35.9175C108.734 36.0206 108.61 36.1019 108.474 36.1558C108.326 36.2122 108.169 36.2406 108.01 36.2397C107.642 36.2511 107.283 36.1269 107 35.8901C106.871 35.7882 106.767 35.6579 106.697 35.5093C106.626 35.3606 106.591 35.1972 106.594 35.0327V33.5327L106.128 33.5269ZM108.009 35.5483C108.161 35.5449 108.31 35.5067 108.445 35.437C108.597 35.3576 108.731 35.247 108.838 35.1128V33.5269H107.322V35.0269C107.324 35.0992 107.344 35.1705 107.378 35.2339C107.413 35.2973 107.462 35.3513 107.522 35.3921C107.664 35.4954 107.836 35.5497 108.011 35.5483H108.009ZM110.128 33.5269V32.853H110.872C110.742 32.6666 110.664 32.4488 110.647 32.2222C110.647 32.0439 110.687 31.867 110.765 31.7065C110.843 31.5461 110.956 31.4067 111.096 31.2964C111.408 31.042 111.801 30.9058 112.203 30.9155C112.751 30.9127 113.285 31.0923 113.721 31.4233C114.189 31.7567 114.542 32.2267 114.731 32.769H114.016C113.856 32.4229 113.601 32.1295 113.28 31.9233C112.959 31.7172 112.585 31.6068 112.203 31.605C111.992 31.5968 111.784 31.6606 111.615 31.7866C111.544 31.8359 111.486 31.9004 111.445 31.9761C111.403 32.0517 111.381 32.136 111.377 32.2222C111.383 32.3314 111.402 32.4398 111.434 32.5444C111.478 32.6565 111.539 32.7604 111.616 32.853H112.332V33.5269H111.602V37.4565H110.873V33.5269H110.128ZM112.149 33.5269V32.853H115.56V33.5269H114.97V34.3413C114.975 34.4864 114.949 34.6302 114.896 34.7651C114.843 34.9001 114.762 35.0216 114.66 35.1245C114.565 35.2274 114.451 35.3109 114.323 35.3667C114.195 35.4225 114.057 35.4496 113.917 35.4487L115.223 37.2026L114.647 37.5972L112.36 34.4683L112.977 34.0737C113.064 34.2666 113.194 34.4375 113.356 34.5737C113.477 34.6919 113.636 34.764 113.805 34.7749C113.863 34.7764 113.92 34.7655 113.973 34.7437C114.026 34.7218 114.074 34.6894 114.114 34.648C114.153 34.6073 114.184 34.5586 114.203 34.5054C114.223 34.4521 114.23 34.3959 114.226 34.3394V33.5249L112.149 33.5269ZM115.378 33.5269V32.853H119.405V33.5269H118.675V37.4565H117.933V36.0815C117.858 36.1611 117.759 36.2152 117.652 36.2358C117.505 36.2709 117.354 36.2897 117.203 36.2925C116.847 36.2974 116.503 36.1726 116.234 35.9409C116.109 35.8421 116.01 35.7153 115.942 35.5718C115.874 35.4282 115.839 35.2717 115.841 35.1128V33.5269H115.378ZM117.202 35.5913C117.315 35.5975 117.429 35.5875 117.539 35.562C117.621 35.5396 117.697 35.5016 117.764 35.4507L116.571 34.103V35.1128C116.571 35.1798 116.589 35.2453 116.62 35.3042C116.652 35.3631 116.699 35.4134 116.754 35.4507C116.883 35.5491 117.043 35.5987 117.205 35.5913H117.202ZM117.932 34.9019V33.5269H116.752L117.932 34.9019ZM119.223 33.5269V32.853H123.323V33.5269H122.636V34.9272H121.023C120.844 34.923 120.669 34.9825 120.531 35.0952C120.465 35.1441 120.412 35.2075 120.375 35.2808C120.339 35.3541 120.319 35.4351 120.32 35.5171C120.318 35.6693 120.355 35.8181 120.426 35.9526C120.497 36.0872 120.6 36.2019 120.727 36.2866C121.004 36.5106 121.354 36.6254 121.709 36.6089C121.662 36.5183 121.642 36.4157 121.653 36.314C121.65 36.2369 121.665 36.1617 121.697 36.0913C121.728 36.0209 121.776 35.9571 121.835 35.9077C121.89 35.8472 121.957 35.8008 122.033 35.769C122.108 35.7373 122.189 35.7212 122.271 35.7241C122.353 35.7258 122.434 35.7444 122.509 35.7788C122.584 35.8132 122.652 35.8639 122.706 35.9253C122.821 36.0579 122.886 36.2263 122.889 36.4019C122.883 36.5208 122.849 36.6365 122.789 36.7397C122.716 36.8672 122.621 36.9809 122.508 37.0757L123 37.9605L122.34 38.269L121.904 37.2886C121.312 37.3131 120.732 37.1301 120.263 36.769C120.056 36.6325 119.885 36.4474 119.765 36.23C119.645 36.0126 119.579 35.7692 119.575 35.521C119.573 35.346 119.613 35.1731 119.688 35.0151C119.763 34.8572 119.873 34.7182 120.01 34.6089C120.286 34.3572 120.648 34.2216 121.022 34.23H121.905V33.5288L119.223 33.5269ZM124.893 33.5269V32.853H129.664V33.5269H128.808C128.909 33.7018 128.963 33.9008 128.961 34.103C128.964 34.2781 128.926 34.4512 128.85 34.6089C128.791 34.7462 128.687 34.8599 128.556 34.9312C128.748 35.0312 128.905 35.1882 129.004 35.3804C129.116 35.5773 129.174 35.7985 129.173 36.0249C129.175 36.2117 129.14 36.3985 129.07 36.5718C129 36.7451 128.897 36.9013 128.766 37.0347C128.645 37.168 128.498 37.2748 128.333 37.3472C128.169 37.4196 127.991 37.4558 127.811 37.4546C127.502 37.4448 127.199 37.3681 126.923 37.23C126.647 37.0919 126.404 36.8968 126.211 36.6558C125.683 36.0831 125.315 35.3809 125.145 34.6206L125.805 34.3667C125.969 34.9949 126.259 35.5823 126.66 36.0933C126.789 36.2838 126.961 36.4435 127.16 36.5601C127.358 36.6766 127.58 36.747 127.81 36.7671C127.893 36.7663 127.976 36.7485 128.051 36.7124C128.126 36.6763 128.193 36.6228 128.245 36.5581C128.369 36.4084 128.434 36.2188 128.428 36.0249C128.431 35.9285 128.413 35.8331 128.377 35.7437C128.341 35.6542 128.288 35.573 128.219 35.5054C128.159 35.4335 128.084 35.3763 127.998 35.3374C127.913 35.2985 127.821 35.2792 127.727 35.2808H126.969V34.5933H127.643C127.794 34.5932 127.939 34.5374 128.051 34.437C128.105 34.399 128.148 34.3491 128.177 34.2905C128.206 34.2319 128.221 34.1666 128.219 34.1011C128.212 34.0128 128.188 33.9267 128.149 33.8472C128.087 33.7307 128.012 33.6222 127.923 33.5249L124.893 33.5269ZM129.482 33.5269V32.853H133.159V33.5269H131.981V34.6089C131.986 34.8464 131.911 35.079 131.769 35.269C131.708 35.3492 131.629 35.4144 131.539 35.4605C131.45 35.5065 131.351 35.5317 131.25 35.5347L132.513 37.1616L131.924 37.5405L129.678 34.5796L130.323 34.103C130.421 34.3021 130.539 34.4902 130.675 34.6655C130.775 34.7905 130.875 34.8647 130.943 34.8647C130.983 34.8663 131.023 34.8587 131.06 34.8413C131.097 34.8239 131.128 34.7976 131.153 34.7651C131.186 34.7348 131.213 34.6972 131.23 34.6558C131.247 34.6143 131.255 34.5698 131.253 34.5249V33.5249L129.482 33.5269ZM132.401 35.3667L131.981 34.6792H133.243V35.3667H132.401ZM132.962 33.5269V32.853H137.398V33.5269H136.655V37.4565H135.926V35.6187H134.508V36.0679C134.507 36.095 134.5 36.1217 134.488 36.146C134.476 36.1703 134.459 36.1912 134.438 36.2085C134.399 36.2431 134.349 36.2623 134.297 36.2632C134.186 36.2632 133.961 36.109 133.666 35.814C133.357 35.535 133.203 35.3244 133.203 35.2144C133.204 35.1407 133.223 35.0684 133.258 35.0034C133.276 34.9799 133.3 34.9609 133.327 34.9487C133.354 34.9365 133.384 34.9312 133.413 34.9331H133.764V33.5327L132.962 33.5269ZM134.507 34.9272H135.925V33.5269H134.507V34.9272ZM137.216 33.5269V32.853H139.416V33.5269H138.686V37.4565H137.943V33.5269H137.216ZM139.237 33.5269V32.853H143.727V33.5269H142.983V37.4565H142.254V35.1128H141.033C141.006 35.1112 140.981 35.1147 140.956 35.1245C140.932 35.1344 140.91 35.1501 140.892 35.1694C140.87 35.1884 140.852 35.2112 140.84 35.2378C140.828 35.2644 140.821 35.2945 140.822 35.3237V35.773C140.827 35.8542 140.802 35.9339 140.751 35.9976C140.731 36.0215 140.705 36.0401 140.676 36.0522C140.647 36.0644 140.616 36.0702 140.584 36.0679C140.401 36.0679 140.177 35.9 139.897 35.562C139.674 35.3384 139.53 35.0472 139.49 34.7339C139.492 34.6907 139.504 34.6476 139.523 34.6089C139.542 34.5702 139.569 34.5372 139.602 34.5093C139.63 34.4775 139.665 34.4523 139.704 34.4351C139.743 34.4178 139.785 34.4074 139.828 34.4077H142.255V33.523L139.237 33.5269ZM143.545 33.5269V32.853H145.745V33.5269H145.015V37.4565H144.272V33.5269H143.545ZM145.566 33.5269V32.853H149.749V33.5269H149.005V37.4565H148.275V36.6011C148.012 36.7274 147.725 36.7968 147.433 36.8022C147.239 36.8069 147.046 36.7727 146.866 36.7026C146.685 36.6326 146.52 36.528 146.38 36.394C146.239 36.2668 146.125 36.1111 146.047 35.937C145.97 35.763 145.931 35.5748 145.931 35.3843C145.927 35.1917 145.967 34.9989 146.047 34.8237C146.127 34.6485 146.246 34.4937 146.394 34.3706C146.696 34.083 147.1 33.9274 147.517 33.937C147.745 33.9295 147.972 33.9775 148.177 34.0776L147.939 34.7105C147.803 34.6627 147.661 34.6386 147.517 34.6401C147.374 34.6381 147.232 34.6776 147.111 34.7534L148.275 35.7202V33.5308L145.566 33.5269ZM147.432 36.1089C147.527 36.1108 147.622 36.0969 147.713 36.0679C147.796 36.0552 147.873 36.0211 147.938 35.9683L146.815 35.0542C146.775 35.0913 146.75 35.141 146.745 35.1948C146.726 35.2544 146.717 35.316 146.717 35.3784C146.716 35.4747 146.734 35.5704 146.77 35.6597C146.806 35.7489 146.86 35.8294 146.927 35.898C146.993 35.966 147.071 36.02 147.159 36.0562C147.246 36.0923 147.34 36.1107 147.435 36.1089H147.432ZM149.565 33.5269V32.853H151.765V33.5269H151.036V37.4565H150.292V33.5269H149.565ZM151.586 33.5269V32.853H155.686V33.5269H154.999V34.9272H153.386C153.207 34.923 153.033 34.9825 152.894 35.0952C152.828 35.1442 152.775 35.2075 152.739 35.2808C152.702 35.3541 152.683 35.4352 152.684 35.5171C152.682 35.6693 152.718 35.818 152.789 35.9526C152.86 36.0873 152.965 36.202 153.091 36.2866C153.368 36.5104 153.717 36.6252 154.073 36.6089C154.025 36.5184 154.005 36.4158 154.016 36.314C154.014 36.2367 154.029 36.1597 154.061 36.0894C154.093 36.019 154.14 35.9568 154.2 35.9077C154.254 35.8471 154.322 35.8008 154.397 35.769C154.472 35.7373 154.554 35.7211 154.635 35.7241C154.718 35.7255 154.799 35.7444 154.873 35.7788C154.948 35.8132 155.015 35.8636 155.07 35.9253C155.185 36.0579 155.25 36.2263 155.253 36.4019C155.247 36.5208 155.212 36.6364 155.153 36.7397C155.08 36.8672 154.986 36.9809 154.873 37.0757L155.364 37.9605L154.705 38.269L154.269 37.2886C153.677 37.3128 153.096 37.1299 152.626 36.769C152.419 36.6321 152.249 36.4474 152.129 36.23C152.01 36.0126 151.944 35.7691 151.939 35.521C151.938 35.3459 151.977 35.1731 152.052 35.0151C152.128 34.8572 152.239 34.7181 152.375 34.6089C152.651 34.3574 153.013 34.2218 153.386 34.23H154.27V33.5288L151.586 33.5269Z" fill="white"/>
</svg>
