<svg xmlns="http://www.w3.org/2000/svg" width="17.825" height="19.168" viewBox="0 0 17.825 19.168">
  <path id="Agency-grey" d="M39.672,13.291H38.324v-.977a.314.314,0,0,0-.628,0v.977H36.347v.8h3.325ZM35.465,28.817h5.09a.235.235,0,0,0,.231-.285,2.838,2.838,0,0,0-5.551,0A.235.235,0,0,0,35.465,28.817Zm2.545-5.781a1.434,1.434,0,1,1-1.434,1.434A1.434,1.434,0,0,1,38.01,23.036Zm-8.676,8.132h5.09a.235.235,0,0,0,.231-.285,2.838,2.838,0,0,0-5.551,0A.235.235,0,0,0,29.333,31.168Zm2.545-5.781a1.434,1.434,0,1,1-1.434,1.434A1.434,1.434,0,0,1,31.878,25.387ZM41.6,31.168h5.09a.235.235,0,0,0,.231-.285,2.838,2.838,0,0,0-5.551,0A.235.235,0,0,0,41.6,31.168Zm2.545-5.781a1.434,1.434,0,1,1-1.434,1.434A1.435,1.435,0,0,1,44.141,25.387ZM40.486,14.721a.276.276,0,0,1,.275.275V27.014a3.479,3.479,0,0,0-1.328-1.052,2.063,2.063,0,1,0-2.848,0,3.479,3.479,0,0,0-1.328,1.052V15a.276.276,0,0,1,.275-.275Zm-1.128,2.1H38.324v1.034h1.034V16.817Zm-1.034,1.662v1.034h1.034V18.479Zm0,1.662v1.034h1.034V20.142ZM37.7,18.479H36.661v1.034H37.7Zm-1.034-.628H37.7V16.817H36.661v1.034ZM37.7,20.142H36.661v1.034H37.7Zm-1.348-3.953a.314.314,0,0,0-.314.314V21.49a.314.314,0,0,0,.314.314h3.325a.314.314,0,0,0,.314-.314V16.5a.314.314,0,0,0-.314-.314Zm5.042,1.606V28.255h1.269a2.065,2.065,0,0,1-.494-2.026V19.7a.314.314,0,0,1,.314-.314H45.8a.314.314,0,0,1,.314.314V26.23a2.065,2.065,0,0,1-.494,2.026h.994a.276.276,0,0,0,.275-.275V18.069a.276.276,0,0,0-.275-.275Zm4.1,2.222V21.05H44.455V20.016Zm-1.034,1.662h1.034v1.034H44.455Zm-.628,0v1.034H42.793V21.678Zm-1.034-.628V20.016h1.034V21.05Zm1.662,2.291h1.034v1.034H44.455Zm1.034,1.919A2.069,2.069,0,0,0,45.117,25h.373Zm-1.662-1.919v1.034H42.793V23.341ZM43.166,25a2.069,2.069,0,0,0-.373.257V25ZM29.4,19.456a.276.276,0,0,0-.275.275V27.98a.276.276,0,0,0,.275.275H30.4A2.065,2.065,0,0,1,29.9,26.23V21.362a.314.314,0,0,1,.314-.314h3.325a.314.314,0,0,1,.314.314V26.23a2.065,2.065,0,0,1-.494,2.026H34.63v-8.8Zm3.825,2.22V22.71H32.192V21.676Zm-1.034,1.662h1.034v1.034H32.192Zm1.034,1.921A2.067,2.067,0,0,0,32.85,25h.376Zm-1.662-1.921v1.034H30.53V23.339ZM30.53,22.71V21.676h1.034V22.71ZM30.906,25a2.068,2.068,0,0,0-.376.258V25Zm14.9-8.253H42.479v.417H45.8ZM33.541,18.411H30.216v.417h3.325Z" transform="translate(-29.097 -12)" fill="#727171" fill-rule="evenodd"/>
</svg>
