<svg id="dashboard-grey" xmlns="http://www.w3.org/2000/svg" width="16" height="16" viewBox="0 0 16 16">
  <path id="Path_19047" data-name="Path 19047" d="M14.833,0H1.167A1.168,1.168,0,0,0,0,1.167V2.833A1.168,1.168,0,0,0,1.167,4H14.833A1.168,1.168,0,0,0,16,2.833V1.167A1.168,1.168,0,0,0,14.833,0Z" fill="#727171"/>
  <path id="Path_19048" data-name="Path 19048" d="M1.167,18.667h5A1.168,1.168,0,0,0,7.333,17.5V9.167A1.168,1.168,0,0,0,6.167,8h-5A1.168,1.168,0,0,0,0,9.167V17.5A1.168,1.168,0,0,0,1.167,18.667Z" transform="translate(0 -2.667)" fill="#727171"/>
  <path id="Path_19049" data-name="Path 19049" d="M19.167,8h-5A1.168,1.168,0,0,0,13,9.167V11.5a1.168,1.168,0,0,0,1.167,1.167h5A1.168,1.168,0,0,0,20.333,11.5V9.167A1.168,1.168,0,0,0,19.167,8Z" transform="translate(-4.333 -2.667)" fill="#727171"/>
  <path id="Path_19050" data-name="Path 19050" d="M19.167,17h-5A1.168,1.168,0,0,0,13,18.167V20.5a1.168,1.168,0,0,0,1.167,1.167h5A1.168,1.168,0,0,0,20.333,20.5V18.167A1.168,1.168,0,0,0,19.167,17Z" transform="translate(-4.333 -5.667)" fill="#727171"/>
</svg>
