<svg xmlns="http://www.w3.org/2000/svg" width="14.874" height="19.527" viewBox="0 0 14.874 19.527">
  <g id="report_4_" data-name="report (4)" transform="translate(-61)">
    <path id="Path_19479" data-name="Path 19479" d="M61,.572V15.523a.572.572,0,0,0,.572.572h10.3a.572.572,0,0,0,.572-.572V.572A.572.572,0,0,0,71.87,0h-10.3A.572.572,0,0,0,61,.572ZM70.153,13.2H67.865a.572.572,0,1,1,0-1.144h2.288a.572.572,0,1,1,0,1.144ZM63.288,2.9h3.433a.572.572,0,0,1,0,1.144H63.288a.572.572,0,1,1,0-1.144Zm0,2.288h6.865a.572.572,0,0,1,0,1.144H63.288a.572.572,0,1,1,0-1.144Zm0,2.288h6.865a.572.572,0,0,1,0,1.144H63.288a.572.572,0,1,1,0-1.144Zm0,2.288h6.865a.572.572,0,1,1,0,1.144H63.288a.572.572,0,1,1,0-1.144Z" fill="#727171"/>
    <path id="Path_19480" data-name="Path 19480" d="M151.572,107.057h10.3a.572.572,0,0,0,.572-.572V91.572A.572.572,0,0,0,161.87,91h-1.716v12.052a1.718,1.718,0,0,1-1.716,1.716H151v1.716A.572.572,0,0,0,151.572,107.057Z" transform="translate(-86.567 -87.529)" fill="#727171"/>
  </g>
</svg>
