<svg xmlns="http://www.w3.org/2000/svg" width="15.985" height="17.215" viewBox="0 0 15.985 17.215">
  <g id="school-grey" transform="translate(-15 0)">
    <g id="Group_16537" data-name="Group 16537" transform="translate(22.665 0)">
      <g id="Group_16536" data-name="Group 16536" transform="translate(0 0)">
        <path id="Path_19005" data-name="Path 19005" d="M205.177,1.85l-.5-.662.5-.662A.327.327,0,0,0,204.916,0h-2.582A.332.332,0,0,0,202,.327V3.238h.656V2.377h2.261a.329.329,0,0,0,.261-.528Z" transform="translate(-202 0)" fill="#727171"/>
      </g>
    </g>
    <g id="Group_16539" data-name="Group 16539" transform="translate(15 10.329)">
      <g id="Group_16538" data-name="Group 16538" transform="translate(0)">
        <path id="Path_19006" data-name="Path 19006" d="M15.486,252a.484.484,0,0,0-.486.481v6.4h4.14V252Zm1.071,5.083a.328.328,0,1,1-.656,0v-.7a.328.328,0,1,1,.656,0Zm0-2.744a.328.328,0,0,1-.656,0v-.7a.328.328,0,1,1,.656,0Zm1.681,2.744a.328.328,0,1,1-.656,0v-.7a.328.328,0,1,1,.656,0Zm0-2.744a.328.328,0,0,1-.656,0v-.7a.328.328,0,1,1,.656,0Z" transform="translate(-15 -252)" fill="#727171"/>
      </g>
    </g>
    <g id="Group_16541" data-name="Group 16541" transform="translate(19.796 5.759)">
      <g id="Group_16540" data-name="Group 16540">
        <path id="Path_19007" data-name="Path 19007" d="M135.144,140.5,132,143.175v8.782h1.435v-3.415a.307.307,0,0,1,.3-.315h2.835a.3.3,0,0,1,.309.293c0,.007,0,.015,0,.022v3.415h1.394v-8.785Zm1.425,5.882h-2.837a.328.328,0,1,1,0-.656h2.837a.328.328,0,0,1,0,.656Z" transform="translate(-132 -140.5)" fill="#727171"/>
      </g>
    </g>
    <g id="Group_16543" data-name="Group 16543" transform="translate(26.723 10.329)">
      <g id="Group_16542" data-name="Group 16542">
        <path id="Path_19008" data-name="Path 19008" d="M304.783,252H301v6.886h4.263v-6.4A.484.484,0,0,0,304.783,252Zm-2.1,5.083a.328.328,0,0,1-.656,0v-.7a.328.328,0,1,1,.656,0Zm0-2.744a.328.328,0,0,1-.656,0v-.7a.328.328,0,1,1,.656,0Zm1.64,2.744a.328.328,0,0,1-.656,0v-.7a.328.328,0,1,1,.656,0Zm0-2.744a.328.328,0,0,1-.656,0v-.7a.328.328,0,1,1,.656,0Z" transform="translate(-301 -252)" fill="#727171"/>
      </g>
    </g>
    <g id="Group_16545" data-name="Group 16545" transform="translate(18.263 3.682)">
      <g id="Group_16544" data-name="Group 16544" transform="translate(0)">
        <path id="Path_19009" data-name="Path 19009" d="M99.309,89.836l-4.692,4.017.593.69L99.1,91.232a.328.328,0,0,1,.426,0l3.87,3.313.607-.693Z" transform="translate(-94.617 -89.836)" fill="#727171"/>
      </g>
    </g>
    <g id="Group_16547" data-name="Group 16547" transform="translate(22.104 13.939)">
      <g id="Group_16546" data-name="Group 16546" transform="translate(0 0)">
        <rect id="Rectangle_17544" data-name="Rectangle 17544" width="1.777" height="3.11" fill="#727171"/>
      </g>
    </g>
  </g>
</svg>
