<svg xmlns="http://www.w3.org/2000/svg" width="17.724" height="17.724" viewBox="0 0 17.724 17.724">
  <path id="settings-grey" d="M16.752,6.938l-1.388-.177a6.979,6.979,0,0,0-.42-1.015l.857-1.1a1.1,1.1,0,0,0-.09-1.462L14.547,2.018a1.1,1.1,0,0,0-1.466-.094l-1.1.857a6.954,6.954,0,0,0-1.015-.42L10.787.975A1.106,1.106,0,0,0,9.689,0H8.035a1.106,1.106,0,0,0-1.1.973L6.761,2.361a6.873,6.873,0,0,0-1.015.42l-1.1-.857a1.1,1.1,0,0,0-1.462.09L2.018,3.176a1.1,1.1,0,0,0-.094,1.467l.857,1.1a6.9,6.9,0,0,0-.42,1.015L.975,6.938A1.106,1.106,0,0,0,0,8.035V9.689a1.106,1.106,0,0,0,.973,1.1l1.388.177a6.979,6.979,0,0,0,.42,1.015l-.857,1.1a1.1,1.1,0,0,0,.09,1.462l1.163,1.163a1.1,1.1,0,0,0,1.466.093l1.1-.857a6.818,6.818,0,0,0,1.015.42l.177,1.385a1.106,1.106,0,0,0,1.1.976H9.689a1.106,1.106,0,0,0,1.1-.973l.177-1.388a6.979,6.979,0,0,0,1.015-.42l1.1.857a1.1,1.1,0,0,0,1.462-.09l1.163-1.163a1.1,1.1,0,0,0,.094-1.466l-.857-1.1a6.818,6.818,0,0,0,.42-1.015l1.385-.177a1.106,1.106,0,0,0,.975-1.1V8.035a1.1,1.1,0,0,0-.972-1.1Zm-7.89,5.617a3.693,3.693,0,1,1,3.693-3.693,3.7,3.7,0,0,1-3.693,3.693Z" transform="translate(0)" fill="#727171"/>
</svg>
