<svg xmlns="http://www.w3.org/2000/svg" width="18.45" height="11.511" viewBox="0 0 18.45 11.511">
  <path id="student-grey" d="M-4660.219,3390.512a.471.471,0,0,1-.471-.471,4.915,4.915,0,0,1,3.065-4.552,4.919,4.919,0,0,1,5.374,1.123,4.881,4.881,0,0,1,1.164,1.958,4.724,4.724,0,0,1,.228,1.472.47.47,0,0,1-.471.471Zm10.24-1.334a5.379,5.379,0,0,0-.206-.887,5.824,5.824,0,0,0-1.392-2.34c-.1-.1-.2-.189-.3-.281a3.528,3.528,0,0,1,1.795-.5,3.538,3.538,0,0,1,3.535,3.534.471.471,0,0,1-.471.471Zm-14.549-.023a.471.471,0,0,1-.472-.471,3.537,3.537,0,0,1,3.535-3.534,3.528,3.528,0,0,1,1.794.5c-.1.092-.206.181-.3.28a5.841,5.841,0,0,0-1.391,2.34,5.375,5.375,0,0,0-.207.887Zm12.44-6.536a2,2,0,0,1,2-2,2,2,0,0,1,2,2,2,2,0,0,1-2,2A2,2,0,0,1-4652.088,3382.619Zm-11.38-.023a2,2,0,0,1,2-2,2,2,0,0,1,2,2,2,2,0,0,1-2,2A2,2,0,0,1-4663.468,3382.6Zm5-.9a2.693,2.693,0,0,1,2.694-2.693,2.693,2.693,0,0,1,2.694,2.693,2.693,2.693,0,0,1-2.694,2.693A2.7,2.7,0,0,1-4658.468,3381.693Z" transform="translate(4665 -3379)" fill="#727171"/>
</svg>
