<svg id="teacher-grey" xmlns="http://www.w3.org/2000/svg" width="15.275" height="14.641" viewBox="0 0 15.275 14.641">
  <path id="Path_18992" data-name="Path 18992" d="M410.7,103.81a.949.949,0,0,1,.264.039l1.581-1.938a.291.291,0,0,1,.411-.042.283.283,0,0,1,.036.4l-1.563,1.917a.9.9,0,0,1-.36,1.342H417.2a.408.408,0,0,0,.408-.408v-5.16a.408.408,0,0,0-.408-.408h-7.793a.408.408,0,0,0-.408.408v3.388l.368.466H410.7Z" transform="translate(-402.332 -98.244)" fill="#727171"/>
  <circle id="Ellipse_6" data-name="Ellipse 6" cx="1.669" cy="1.669" r="1.669" transform="translate(1.612 0)" fill="#727171"/>
  <g id="Group_16516" data-name="Group 16516" transform="translate(0 3.873)">
    <path id="Path_18993" data-name="Path 18993" d="M4.993,267.41a.408.408,0,0,1-.408.408H3.9a.408.408,0,0,1-.408-.408v-3.417a.218.218,0,0,0-.218-.218h0a.218.218,0,0,0-.218.218v3.4a.425.425,0,0,1-.424.424h-.67a.408.408,0,0,1-.408-.408l0-8.249a.2.2,0,0,0-.2-.2h0a.2.2,0,0,0-.2.2v3.172a.408.408,0,0,1-.408.408H.408A.408.408,0,0,1,0,262.334v-4.35a.934.934,0,0,1,.934-.934H4.646a1.308,1.308,0,0,1,1.022.494l1,1.259.21.266s.946,0,1.49,0a.408.408,0,0,1,.408.408v.324a.408.408,0,0,1-.408.408H6.6a.568.568,0,0,1-.447-.217l-.743-.955a.2.2,0,0,0-.16-.078H5.2a.2.2,0,0,0-.2.2Z" transform="translate(0 -257.05)" fill="#727171"/>
  </g>
</svg>
