<svg xmlns="http://www.w3.org/2000/svg" width="13.951" height="15.455" viewBox="0 0 13.951 15.455">
  <g id="User-grey" transform="translate(-6 -4.824)">
    <circle id="Ellipse_11" data-name="Ellipse 11" cx="3.311" cy="3.311" r="3.311" transform="translate(9.76 4.824)" fill="#727171"/>
    <path id="Path_19012" data-name="Path 19012" d="M16.735,21.038l-1.3-3.878-1.3,3.878v.007l1.3,1.3,1.3-1.3Z" transform="translate(-2.462 -3.744)" fill="#727171"/>
    <path id="Path_19013" data-name="Path 19013" d="M17.522,16h-.2l1.542,4.618a.715.715,0,0,1-.153.76L16.42,23.673H22.4a.7.7,0,0,0,.7-.7v-1.4A5.588,5.588,0,0,0,17.522,16Z" transform="translate(-3.152 -3.393)" fill="#727171"/>
    <path id="Path_19014" data-name="Path 19014" d="M10.388,21.378a.715.715,0,0,1-.153-.76L11.776,16h-.2A5.588,5.588,0,0,0,6,21.58v1.4a.7.7,0,0,0,.7.7h5.992S12.244,23.234,10.388,21.378Z" transform="translate(0 -3.393)" fill="#727171"/>
  </g>
</svg>
