<svg xmlns="http://www.w3.org/2000/svg" width="57.613" height="62.045" viewBox="0 0 57.613 62.045">
  <g id="School" transform="translate(-15 0)">
    <g id="Group_16537" data-name="Group 16537" transform="translate(42.625 0)">
      <g id="Group_16536" data-name="Group 16536" transform="translate(0 0)">
        <path id="Path_19005" data-name="Path 19005" d="M213.451,6.667,211.633,4.28l1.818-2.386A1.179,1.179,0,0,0,212.511,0H203.2A1.2,1.2,0,0,0,202,1.177V11.67h2.364v-3.1h8.147a1.184,1.184,0,0,0,.94-1.9Z" transform="translate(-202 0)" fill="#3f6ec5"/>
      </g>
    </g>
    <g id="Group_16539" data-name="Group 16539" transform="translate(15 37.227)">
      <g id="Group_16538" data-name="Group 16538" transform="translate(0)">
        <path id="Path_19006" data-name="Path 19006" d="M16.752,252A1.743,1.743,0,0,0,15,253.734v23.084H29.92V252Zm3.861,18.318a1.182,1.182,0,0,1-2.364,0v-2.54a1.182,1.182,0,1,1,2.364,0Zm0-9.891a1.182,1.182,0,0,1-2.364,0v-2.54a1.182,1.182,0,0,1,2.364,0Zm6.057,9.891a1.182,1.182,0,0,1-2.364,0v-2.54a1.182,1.182,0,1,1,2.364,0Zm0-9.891a1.182,1.182,0,0,1-2.364,0v-2.54a1.182,1.182,0,0,1,2.364,0Z" transform="translate(-15 -252)" fill="#3f6ec5"/>
      </g>
    </g>
    <g id="Group_16541" data-name="Group 16541" transform="translate(32.284 20.755)">
      <g id="Group_16540" data-name="Group 16540">
        <path id="Path_19007" data-name="Path 19007" d="M143.333,140.5,132,150.14v31.65h5.17V169.482a1.108,1.108,0,0,1,1.079-1.136h10.219a1.085,1.085,0,0,1,1.112,1.057c0,.026,0,.052,0,.079v12.307H154.6v-31.66Zm5.136,21.2H138.243a1.182,1.182,0,0,1,0-2.364h10.226a1.182,1.182,0,0,1,0,2.364Z" transform="translate(-132 -140.5)" fill="#3f6ec5"/>
      </g>
    </g>
    <g id="Group_16543" data-name="Group 16543" transform="translate(57.249 37.227)">
      <g id="Group_16542" data-name="Group 16542">
        <path id="Path_19008" data-name="Path 19008" d="M314.634,252H301v24.818h15.364V253.757A1.743,1.743,0,0,0,314.634,252Zm-7.577,18.318a1.182,1.182,0,0,1-2.364,0v-2.54a1.182,1.182,0,0,1,2.364,0Zm0-9.891a1.182,1.182,0,1,1-2.364,0v-2.54a1.182,1.182,0,1,1,2.364,0Zm5.909,9.891a1.182,1.182,0,0,1-2.364,0v-2.54a1.182,1.182,0,0,1,2.364,0Zm0-9.891a1.182,1.182,0,0,1-2.364,0v-2.54a1.182,1.182,0,0,1,2.364,0Z" transform="translate(-301 -252)" fill="#3f6ec5"/>
      </g>
    </g>
    <g id="Group_16545" data-name="Group 16545" transform="translate(26.761 13.271)">
      <g id="Group_16544" data-name="Group 16544" transform="translate(0)">
        <path id="Path_19009" data-name="Path 19009" d="M111.529,89.836,94.617,104.315l2.137,2.487,14.007-11.935a1.182,1.182,0,0,1,1.535,0l13.949,11.939,2.186-2.5Z" transform="translate(-94.617 -89.836)" fill="#3f6ec5"/>
      </g>
    </g>
    <g id="Group_16547" data-name="Group 16547" transform="translate(40.604 50.236)">
      <g id="Group_16546" data-name="Group 16546" transform="translate(0 0)">
        <rect id="Rectangle_17544" data-name="Rectangle 17544" width="6.405" height="11.208" fill="#3f6ec5"/>
      </g>
    </g>
  </g>
</svg>
