<svg xmlns="http://www.w3.org/2000/svg" width="100.429" height="108.154" viewBox="0 0 100.429 108.154">
  <g id="School-white" transform="translate(-15 0)" opacity="0.11">
    <g id="Group_16537" data-name="Group 16537" transform="translate(63.154 0)">
      <g id="Group_16536" data-name="Group 16536" transform="translate(0 0)">
        <path id="Path_19005" data-name="Path 19005" d="M221.961,11.621l-3.169-4.16,3.169-4.16A2.055,2.055,0,0,0,220.323,0H204.1A2.088,2.088,0,0,0,202,2.053V20.343h4.12V14.935h14.2a2.065,2.065,0,0,0,1.639-3.314Z" transform="translate(-202 0)" fill="#fff"/>
      </g>
    </g>
    <g id="Group_16539" data-name="Group 16539" transform="translate(15 64.892)">
      <g id="Group_16538" data-name="Group 16538" transform="translate(0)">
        <path id="Path_19006" data-name="Path 19006" d="M18.055,252A3.039,3.039,0,0,0,15,255.022v40.239H41.008V252Zm6.731,31.931a2.06,2.06,0,0,1-4.12,0V279.5a2.06,2.06,0,1,1,4.12,0Zm0-17.242a2.06,2.06,0,0,1-4.12,0v-4.427a2.06,2.06,0,0,1,4.12,0Zm10.558,17.242a2.06,2.06,0,0,1-4.12,0V279.5a2.06,2.06,0,1,1,4.12,0Zm0-17.242a2.06,2.06,0,0,1-4.12,0v-4.427a2.06,2.06,0,0,1,4.12,0Z" transform="translate(-15 -252)" fill="#fff"/>
      </g>
    </g>
    <g id="Group_16541" data-name="Group 16541" transform="translate(45.129 36.18)">
      <g id="Group_16540" data-name="Group 16540">
        <path id="Path_19007" data-name="Path 19007" d="M151.755,140.5,132,157.3v55.17h9.013V191.02a1.932,1.932,0,0,1,1.881-1.98h17.813a1.891,1.891,0,0,1,1.938,1.843c0,.046,0,.091,0,.137v21.453H171.4V157.284Zm8.952,36.953H142.882a2.06,2.06,0,0,1,0-4.12h17.825a2.06,2.06,0,0,1,0,4.12Z" transform="translate(-132 -140.5)" fill="#fff"/>
      </g>
    </g>
    <g id="Group_16543" data-name="Group 16543" transform="translate(88.648 64.892)">
      <g id="Group_16542" data-name="Group 16542">
        <path id="Path_19008" data-name="Path 19008" d="M324.767,252H301v43.261h26.781v-40.2A3.039,3.039,0,0,0,324.767,252Zm-13.209,31.931a2.06,2.06,0,0,1-4.12,0V279.5a2.06,2.06,0,1,1,4.12,0Zm0-17.242a2.06,2.06,0,1,1-4.12,0v-4.427a2.06,2.06,0,0,1,4.12,0Zm10.3,17.242a2.06,2.06,0,0,1-4.12,0V279.5a2.06,2.06,0,0,1,4.12,0Zm0-17.242a2.06,2.06,0,0,1-4.12,0v-4.427a2.06,2.06,0,0,1,4.12,0Z" transform="translate(-301 -252)" fill="#fff"/>
      </g>
    </g>
    <g id="Group_16545" data-name="Group 16545" transform="translate(35.502 23.133)">
      <g id="Group_16544" data-name="Group 16544" transform="translate(0)">
        <path id="Path_19009" data-name="Path 19009" d="M124.1,89.836l-29.48,25.238,3.726,4.335L122.76,98.6a2.06,2.06,0,0,1,2.676,0l24.316,20.811,3.811-4.356Z" transform="translate(-94.617 -89.836)" fill="#fff"/>
      </g>
    </g>
    <g id="Group_16547" data-name="Group 16547" transform="translate(59.631 87.57)">
      <g id="Group_16546" data-name="Group 16546" transform="translate(0 0)">
        <rect id="Rectangle_17544" data-name="Rectangle 17544" width="11.165" height="19.538" fill="#fff"/>
      </g>
    </g>
  </g>
</svg>
