<svg xmlns="http://www.w3.org/2000/svg" width="173.065" height="107.499" viewBox="0 0 173.065 107.499">
  <path id="Student-white" d="M-4620.158,3486.5a4.411,4.411,0,0,1-4.42-4.4,45.913,45.913,0,0,1,28.759-42.511,46.284,46.284,0,0,1,50.408,10.48,45.513,45.513,0,0,1,10.928,18.281,44.18,44.18,0,0,1,2.137,13.75,4.406,4.406,0,0,1-4.42,4.4Zm96.059-12.456a50.25,50.25,0,0,0-1.933-8.28,54.487,54.487,0,0,0-13.054-21.851c-.905-.924-1.871-1.762-2.835-2.619a33.226,33.226,0,0,1,16.831-4.65,33.11,33.11,0,0,1,33.155,33,4.4,4.4,0,0,1-4.418,4.4Zm-136.478-.215a4.415,4.415,0,0,1-4.423-4.4,33.118,33.118,0,0,1,33.164-33,33.235,33.235,0,0,1,16.828,4.65c-.962.858-1.927,1.7-2.841,2.619a54.586,54.586,0,0,0-13.046,21.851,50.311,50.311,0,0,0-1.935,8.284Zm116.7-61.036a18.743,18.743,0,0,1,18.791-18.7,18.742,18.742,0,0,1,18.79,18.7,18.741,18.741,0,0,1-18.79,18.7A18.742,18.742,0,0,1-4543.881,3412.792Zm-106.749-.22a18.747,18.747,0,0,1,18.794-18.7,18.748,18.748,0,0,1,18.79,18.7,18.746,18.746,0,0,1-18.79,18.7A18.744,18.744,0,0,1-4650.63,3412.572Zm46.9-8.425A25.206,25.206,0,0,1-4578.467,3379a25.206,25.206,0,0,1,25.271,25.147,25.208,25.208,0,0,1-25.271,25.146A25.23,25.23,0,0,1-4603.731,3404.147Z" transform="translate(4665 -3379)" fill="#fff" opacity="0.11"/>
</svg>
