<svg xmlns="http://www.w3.org/2000/svg" width="79.653" height="49.5" viewBox="0 0 79.653 49.5">
  <path id="Student" d="M-4644.361,3428.5a2.03,2.03,0,0,1-2.034-2.026,21.14,21.14,0,0,1,13.236-19.575,21.3,21.3,0,0,1,23.2,4.826,20.963,20.963,0,0,1,5.029,8.417,20.349,20.349,0,0,1,.983,6.332,2.028,2.028,0,0,1-2.034,2.026Zm44.211-5.735a23.139,23.139,0,0,0-.89-3.813,25.086,25.086,0,0,0-6.008-10.061c-.417-.426-.861-.812-1.3-1.206a15.283,15.283,0,0,1,7.746-2.141,15.242,15.242,0,0,1,15.26,15.2,2.028,2.028,0,0,1-2.033,2.025Zm-62.813-.1a2.033,2.033,0,0,1-2.036-2.028,15.246,15.246,0,0,1,15.264-15.2,15.291,15.291,0,0,1,7.745,2.141c-.442.4-.887.781-1.308,1.206a25.133,25.133,0,0,0-6,10.062,23.173,23.173,0,0,0-.891,3.814Zm53.709-28.1a8.629,8.629,0,0,1,8.648-8.612,8.629,8.629,0,0,1,8.648,8.612,8.628,8.628,0,0,1-8.648,8.611A8.628,8.628,0,0,1-4609.255,3394.561Zm-49.131-.1a8.63,8.63,0,0,1,8.649-8.611,8.631,8.631,0,0,1,8.648,8.611,8.63,8.63,0,0,1-8.648,8.612A8.629,8.629,0,0,1-4658.386,3394.459Zm21.585-3.879A11.6,11.6,0,0,1-4625.173,3379a11.6,11.6,0,0,1,11.631,11.579,11.6,11.6,0,0,1-11.631,11.579A11.614,11.614,0,0,1-4636.8,3390.58Z" transform="translate(4665 -3379.001)" fill="#434ab3"/>
</svg>
