<svg xmlns="http://www.w3.org/2000/svg" width="125.135" height="119.939" viewBox="0 0 125.135 119.939">
  <g id="Teacher-white" opacity="0.11">
    <path id="Path_18992" data-name="Path 18992" d="M422.9,134.446a7.774,7.774,0,0,1,2.163.321l12.954-15.879a2.384,2.384,0,0,1,3.365-.347,2.322,2.322,0,0,1,.294,3.259L428.872,137.5A7.335,7.335,0,0,1,425.92,148.5h50.254a3.34,3.34,0,0,0,3.339-3.339V102.889a3.34,3.34,0,0,0-3.339-3.339H412.339A3.34,3.34,0,0,0,409,102.889V130.64l3.018,3.82H422.9Z" transform="translate(-354.379 -88.853)" fill="#fff"/>
    <circle id="Ellipse_6" data-name="Ellipse 6" cx="13.675" cy="13.675" r="13.675" transform="translate(13.208 0)" fill="#fff"/>
    <g id="Group_16516" data-name="Group 16516" transform="translate(0 31.731)">
      <path id="Path_18993" data-name="Path 18993" d="M40.906,341.92a3.34,3.34,0,0,1-3.339,3.339H31.958a3.34,3.34,0,0,1-3.339-3.339V313.928a1.79,1.79,0,0,0-1.79-1.789h0a1.79,1.79,0,0,0-1.79,1.789v27.858a3.482,3.482,0,0,1-3.472,3.472H16.079a3.34,3.34,0,0,1-3.339-3.339l-.027-67.575a1.656,1.656,0,0,0-1.656-1.656h0A1.656,1.656,0,0,0,9.4,274.345v25.988a3.34,3.34,0,0,1-3.339,3.339H3.339A3.34,3.34,0,0,1,0,300.333V264.7a7.652,7.652,0,0,1,7.652-7.652H38.061a10.713,10.713,0,0,1,8.373,4.047l8.173,10.31,1.723,2.177s7.746,0,12.206.013a3.34,3.34,0,0,1,3.339,3.339v2.657a3.34,3.34,0,0,1-3.339,3.339H54.087a4.652,4.652,0,0,1-3.659-1.776l-6.09-7.826a1.664,1.664,0,0,0-1.309-.641h-.414a1.656,1.656,0,0,0-1.656,1.656Z" transform="translate(0 -257.05)" fill="#fff"/>
    </g>
  </g>
</svg>
