<svg id="Teacher" xmlns="http://www.w3.org/2000/svg" width="60.514" height="58.002" viewBox="0 0 60.514 58.002">
  <path id="Path_18992" data-name="Path 18992" d="M415.723,116.426a3.76,3.76,0,0,1,1.046.155l6.265-7.679a1.153,1.153,0,0,1,1.627-.168,1.123,1.123,0,0,1,.142,1.576L418.61,117.9a3.547,3.547,0,0,1-1.427,5.315h24.3a1.615,1.615,0,0,0,1.615-1.615V101.165a1.615,1.615,0,0,0-1.615-1.615H410.615A1.615,1.615,0,0,0,409,101.165v13.42l1.459,1.847h5.264Z" transform="translate(-382.586 -94.377)" fill="#3e92c4"/>
  <circle id="Ellipse_6" data-name="Ellipse 6" cx="6.613" cy="6.613" r="6.613" transform="translate(6.387 0)" fill="#3e92c4"/>
  <g id="Group_16516" data-name="Group 16516" transform="translate(0 15.345)">
    <path id="Path_18993" data-name="Path 18993" d="M19.782,298.093a1.615,1.615,0,0,1-1.615,1.615H15.455a1.615,1.615,0,0,1-1.615-1.615V284.556a.865.865,0,0,0-.865-.865h0a.865.865,0,0,0-.865.865v13.472a1.684,1.684,0,0,1-1.679,1.679H7.776a1.615,1.615,0,0,1-1.615-1.615l-.013-32.679a.8.8,0,0,0-.8-.8h0a.8.8,0,0,0-.8.8v12.568A1.615,1.615,0,0,1,2.932,279.6H1.615A1.615,1.615,0,0,1,0,277.981V260.751a3.7,3.7,0,0,1,3.7-3.7H18.406a5.181,5.181,0,0,1,4.049,1.957l3.952,4.986.833,1.053s3.746,0,5.9.007a1.615,1.615,0,0,1,1.615,1.615v1.285a1.615,1.615,0,0,1-1.615,1.615H26.156a2.25,2.25,0,0,1-1.77-.859l-2.945-3.785a.8.8,0,0,0-.633-.31h-.2a.8.8,0,0,0-.8.8Z" transform="translate(0 -257.05)" fill="#3e92c4"/>
  </g>
</svg>
