<svg xmlns="http://www.w3.org/2000/svg" width="133.088" height="133.088" viewBox="0 0 133.088 133.088">
  <g id="ZP-Officer-white" transform="translate(0 0)" opacity="0.11">
    <path id="path29728" d="M36.023,326.935v9.1A19.878,19.878,0,0,0,21.176,342.7H73.064a19.877,19.877,0,0,0-14.847-6.667h-.008v-9.111a16.185,16.185,0,0,0,4.345-8.621,6.722,6.722,0,0,0,6.745-6.663,6.6,6.6,0,0,0-2.227-4.908v-8.387A17.748,17.748,0,0,0,49.341,280.6H44.9a17.763,17.763,0,0,0-17.749,17.75v8.392a6.613,6.613,0,0,0-2.209,4.9,6.708,6.708,0,0,0,6.732,6.663,16.214,16.214,0,0,0,4.345,8.63Zm17.65-23.369,4.545,4.571v7.941a11.093,11.093,0,1,1-22.186,0v-6.646h2.209c8.129,0,13.894-4.691,15.432-5.866Zm.108,26.527v5.944s0,4.436-6.663,4.436-6.65-4.436-6.65-4.436V330.1a15.307,15.307,0,0,0,13.313,0ZM13.842,347.14a6.678,6.678,0,0,0-6.65,6.646v37.708H87.049V353.786a6.689,6.689,0,0,0-6.663-6.646Zm86.472,13.279a2.219,2.219,0,0,0-2.175,2.244v8.873a2.219,2.219,0,1,0,4.436,0v-8.873A2.216,2.216,0,0,0,100.314,360.419Zm8.877,0a2.221,2.221,0,0,0-2.179,2.244v8.873a2.22,2.22,0,1,0,4.441,0v-8.873A2.216,2.216,0,0,0,109.191,360.419ZM47.113,364.89a6.657,6.657,0,1,1-6.65,6.663A6.7,6.7,0,0,1,47.113,364.89Zm46.585,13.3a2.218,2.218,0,0,0-2.209,2.227v13.313a10.972,10.972,0,0,0,2.275,6.646h22.064a10.992,10.992,0,0,0,2.049-4.437h2.448a6.678,6.678,0,0,0,6.646-6.65v-4.436a2.219,2.219,0,0,0-2.209-2.227H118.1v-2.209a2.219,2.219,0,0,0-2.21-2.227Zm24.4,8.872h4.436v2.227a2.152,2.152,0,0,1-2.209,2.21H118.1ZM7.191,395.935a8.74,8.74,0,0,0,1.239,4.436H85.809a8.748,8.748,0,0,0,1.239-4.436Zm-4.436,8.872a2.219,2.219,0,0,0-2.227,2.21v4.441a2.218,2.218,0,0,0,2.227,2.227H131.406a2.218,2.218,0,0,0,2.209-2.227v-4.441a2.218,2.218,0,0,0-2.209-2.21Z" transform="translate(-0.528 -280.596)" fill="#fff"/>
  </g>
</svg>
