<svg xmlns="http://www.w3.org/2000/svg" width="61.223" height="61.222" viewBox="0 0 61.223 61.222">
  <g id="ZP_Officer" data-name="ZP Officer" transform="translate(0 0)">
    <path id="path29728" d="M16.856,301.913V306.1a9.144,9.144,0,0,0-6.83,3.067H33.9a9.144,9.144,0,0,0-6.83-3.067h0v-4.191a7.445,7.445,0,0,0,2-3.966,3.092,3.092,0,0,0,3.1-3.065,3.037,3.037,0,0,0-1.024-2.258v-3.858a8.164,8.164,0,0,0-8.157-8.165H20.942a8.171,8.171,0,0,0-8.165,8.165v3.86a3.042,3.042,0,0,0-1.016,2.256,3.086,3.086,0,0,0,3.1,3.065,7.459,7.459,0,0,0,2,3.97Zm8.119-10.75,2.091,2.1v3.653a5.1,5.1,0,1,1-10.206,0v-3.057h1.016a11.661,11.661,0,0,0,7.1-2.7Zm.05,12.2V306.1s0,2.041-3.065,2.041S18.9,306.1,18.9,306.1v-2.732a7.042,7.042,0,0,0,6.124,0ZM6.652,311.208a3.072,3.072,0,0,0-3.059,3.057v17.346H40.329V314.265a3.077,3.077,0,0,0-3.065-3.057Zm39.779,6.108a1.021,1.021,0,0,0-1,1.032v4.082a1.021,1.021,0,1,0,2.041,0v-4.082A1.02,1.02,0,0,0,46.431,317.316Zm4.084,0a1.021,1.021,0,0,0-1,1.032v4.082a1.021,1.021,0,1,0,2.043,0v-4.082A1.02,1.02,0,0,0,50.515,317.316Zm-28.557,2.057a3.062,3.062,0,1,1-3.059,3.065A3.084,3.084,0,0,1,21.958,319.373Zm21.43,6.116a1.02,1.02,0,0,0-1.016,1.025v6.124a5.047,5.047,0,0,0,1.046,3.057h10.15a5.056,5.056,0,0,0,.943-2.041h1.126a3.072,3.072,0,0,0,3.057-3.059v-2.041a1.021,1.021,0,0,0-1.016-1.025H54.612v-1.016a1.021,1.021,0,0,0-1.016-1.024Zm11.224,4.081h2.041v1.024a.99.99,0,0,1-1.016,1.017H54.612ZM3.593,333.654a4.021,4.021,0,0,0,.57,2.041h35.6a4.024,4.024,0,0,0,.57-2.041Zm-2.041,4.081a1.021,1.021,0,0,0-1.024,1.016v2.043a1.021,1.021,0,0,0,1.024,1.024H60.734a1.02,1.02,0,0,0,1.016-1.024v-2.043a1.02,1.02,0,0,0-1.016-1.016Z" transform="translate(-0.528 -280.596)" fill="#9442b0"/>
  </g>
</svg>
